<svg xmlns="http://www.w3.org/2000/svg" viewBox="0 0 185.32 181.3"><defs><style>.cls-1{fill:#1c191a;opacity:0.3;}</style></defs><title>animation-logo</title><g id="Layer_2" data-name="Layer 2"><g id="Layer_1-2" data-name="Layer 1"><path class="cls-1" d="M93.18.09C122,.09,150.82.18,179.64,0c4.26,0,5.69.9,5.68,5.47q-.24,85.2,0,170.42c0,4-.91,5.42-5.2,5.41q-87.46-.21-174.93,0c-3.77,0-5.17-.82-5.16-4.94Q.21,90.62,0,4.91C0,.71,1.53,0,5.22,0,34.54.15,63.86.09,93.18.09Zm-.52,173.16c26.66,0,53.31-.08,80,.08,3.65,0,4.74-.78,4.73-4.61q-.21-78,0-155.93c0-3.48-.49-4.85-4.5-4.84Q92.63,8.19,12.41,8C9,8,7.92,8.75,7.93,12.34q.18,78.21,0,156.42c0,3.92,1.23,4.58,4.79,4.56C39.36,173.18,66,173.25,92.66,173.25Z"/><path class="cls-1" d="M65,41.3a33.6,33.6,0,0,0,4.49,0c2.86-.38,4,.86,4.83,3.58q11.32,39,23,78c.89,3,.71,4-2.82,4.08-10.65.16-10.53.28-13.49-9.92-1.34-4.6-1-10.75-4.5-13.38s-9.33-.69-14.13-.75c-9.84-.11-9.83,0-12.44,9.65-.52,1.93-1.1,3.84-1.6,5.77-2.3,8.8-2.29,8.65-11.4,8.62-3.63,0-4.13-1-3.13-4.39,4.43-15,8.75-30,12.82-45.08,3-11.22,7.27-22.12,8.89-33.7.27-1.93,1.25-2.49,3-2.43C60.62,41.36,62.79,41.3,65,41.3Zm-.25,13.28c-2,8-3.9,14.89-5.47,21.82-1,4.43-4.79,10.25-2.27,12.88,2.26,2.37,8.75.69,13.38.79a4,4,0,0,1,.49,0c2.28.28,2.94-.66,2.36-2.85C70.43,76.68,67.7,66.12,64.71,54.58Z"/><path class="cls-1" d="M131.41,98.1c-4.32,0-8.65.06-13,0-2.07,0-2.9.46-2.74,2.83.51,8,5.81,13.7,13.87,14.33,4.5.36,9,.32,13.28-1.4,2.69-1.09,3-.09,3.15,2.3.46,8.79-.34,9.87-9.06,11.18-20.81,3.12-33-6.09-35.37-27a41.81,41.81,0,0,1,4.06-23.76c5.45-10.89,15.54-15.8,27.27-13.44,9.46,1.9,16.54,10.4,17.07,21.92.71,15.37.56,12.49-11.57,13C136.07,98.18,133.74,98.09,131.41,98.1Zm-5.29-10.85c2.49,0,5-.13,7.46,0,2.93.19,3.79-.88,3.22-3.77-1.1-5.51-4.19-9-8.79-9.4-5.17-.47-8.87,2-11,7.43-2,5.18-1.7,5.68,3.61,5.71C122.47,87.26,124.3,87.25,126.12,87.25Z"/></g></g></svg>