<svg xmlns="http://www.w3.org/2000/svg" viewBox="0 0 340.18 474.26"><defs><style>.cls-1,.cls-4{fill:#231f20;}.cls-1,.cls-3{opacity:0.2;}.cls-2{fill:#1c191a;opacity:0.3;}</style></defs><title>css-logo</title><g id="Layer_2" data-name="Layer 2"><g id="Layer_1-2" data-name="Layer 1"><path class="cls-1" d="M149.2,469.28l-13-3.55-15.94-4.43a.76.76,0,0,0-1.1-.55l-12.83-3.26-16.14-4.73-16.93-4.45-26.1-7.56L31.26,436.5c-.39-.64-.77-1.28-1.15-1.92.66-6.06-1.09-12-1.13-18l-1.55-14.07L26,383.63c-1.08-5,0-10.28-1.65-15.25A133.47,133.47,0,0,0,23,350.63c.55-2.14-.22-4.09-.88-6.06.64-6.05-1.1-12-1.13-18-1.26-4.61,0-9.5-1.57-14.08q-.7-9.43-1.43-18.88c-.29-4.55,0-9.24-1.05-13.6s.47-9.22-1.83-13.44c.61-5.72-.65-11.32-1.11-17-.83-5.39-.16-10.93-1.65-16.25-.63-3.93.7-8.06-1.23-11.85,0-3.68.86-7.44-1-10.95.69-6.39-1.06-12.64-1.12-19-1.2-4.27-.07-8.83-1.56-13.07Q6.71,169.07,6,159.63c-.78-5.4-.23-10.93-1.66-16.26C3,128,1.69,112.71.28,97.39c-.64-6.88-.75-6.87,6.05-6.87H334.66c1.83,0,3.66.06,5.49.09a48.73,48.73,0,0,1-.78,11c.11,6.35-1.81,12.59-1.14,19-1.3,1.51-1.1,3.29-.87,5.07L336,143.38c-1.5,5.32-.81,10.87-1.65,16.25-.21,5.67-1.77,11.24-1.12,17-2.19,4.81-.46,10.1-1.88,15q-.72,9.47-1.45,18.93l-2.55,26.07c-.13,6.34-1.78,12.59-1.12,19a4.39,4.39,0,0,0-.88,4.07q-1,10.94-2,21.88-.5,6.06-1,12.12c-.27,6-1.82,11.9-1.12,17.95-2.06,4.83-.69,10.07-1.88,15,0,6-1.78,11.92-1.12,18-1.32,1.51-1.11,3.29-.88,5.07l-2.49,28.93c-1.09.87-.56,2-.51,3.07l-.09,7.95a213.76,213.76,0,0,0-3.07,34,4.55,4.55,0,0,0-.84,4.08c-.47,8.65-.47,8.65-9.18,10.94-.32.08-.65.12-1,.18-4.94,1.82-10.33,2.16-15.09,4.57l-9.87,2.41-5.13,1.57-15.89,4.43c-4.46.94-8.91,1.88-13,3.89-10.56,1.78-20.61,5.56-31,8.12l-16.14,4.73c-5.41,1.41-10.93,2.5-16.19,4.33A21.4,21.4,0,0,1,163,473C158.51,471.44,153.8,470.51,149.2,469.28Zm-38-180.56c1.25,1.2,2.82.78,4.27.78q27.4,0,54.82,0l0,0q0,34.49-.07,69l.07.23c-13.73-3.35-27.46-6.73-41.21-10.05-7.46-1.81-7.51-1.77-7.77-9.52a171.59,171.59,0,0,0-1.81-19.6c-.43-7-.43-7-7.35-7-11.11,0-22.22.14-33.33-.08-3.36-.07-4.06,1.15-3.39,4a9.36,9.36,0,0,0-.12,1.49c1.65,19.63,3.4,39.26,4.85,58.91.2,2.68,1.83,2.9,3.38,3.36q42.87,12.62,85.77,25.12l.92.32q0,18.74,0,37.48c0,6.95,0,6.87,6.81,5q53.07-14.83,106.18-29.51c2.64-.73,4-1.79,4.26-4.55,1.18-13.3,2.51-26.6,3.68-39.91,1.56-17.77,3-35.55,4.55-53.32,1.09-12.35,2.36-24.69,3.46-37,1.49-16.63,2.87-33.28,4.36-49.92,1.51-16.93,3.13-33.86,4.65-50.8,1.91-21.22,3.63-42.46,5.76-63.65.39-3.91-.41-4.91-4.24-4.91q-67.46.15-134.91,0c-3.94,0-4.68,1.37-4.64,4.92.17,13.33,0,26.65,0,40-5.5,0-11,.14-16.48.15q-46.71.1-93.42.17c-.31.3-.92.64-.89.9,1.58,12.94,3.37,25.86,4.73,38.82.36,3.49,2.69,2.93,4.42,2.93,18.25,0,36.5-.21,54.76-.18,15.62,0,31.25.29,46.87.45v1.83q-20.25,8.52-40.52,17c-19.44,8.13-38.89,16.2-58.32,24.36-1.32.56-3.45.46-3.08,3,1.25,8.52,1.14,17.19,2.32,25.67.64,4.59-.74,9.48,1.7,13.82Z"/><path class="cls-2" d="M170.14,159.4c0-13.33.15-26.65,0-40,0-3.55.7-4.93,4.64-4.92q67.45.21,134.91,0c3.83,0,4.63,1,4.24,4.91-2.13,21.19-3.85,42.43-5.76,63.65C306.63,200,305,217,303.5,233.88c-1.49,16.64-2.87,33.29-4.36,49.92-1.1,12.35-2.37,24.69-3.46,37-1.57,17.77-3,35.55-4.55,53.32-1.17,13.31-2.5,26.61-3.68,39.91-.25,2.76-1.62,3.82-4.26,4.55Q230.08,433.25,177,448.13c-6.83,1.91-6.81,2-6.81-5q0-18.74,0-37.48a6.54,6.54,0,0,0,1-.13q43-12.49,85.93-24.93c1.72-.5,2-1.24,2.14-2.69,1-10.34,2.08-20.67,2.92-31,.74-9.06,1.43-18.13,2.27-27.16,1.33-14.29,2.54-28.59,3.75-42.89.75-8.89,1.11-17.83,2.37-26.64.45-3.2,0-3.71-2.86-3.7q-47.25.18-94.49.24l-.88-1.16c9.1-3.72,18.24-7.35,27.28-11.19,24.32-10.31,48.59-20.72,72.9-31,2.2-.93,2.6-2.36,2.76-4.56.87-11.33,1.32-22.75,3.25-33.91,1-5.67-1-5.41-5-5.41Q221.83,159.56,170.14,159.4Z"/><path class="cls-2" d="M170.22,289.49c15.79,0,31.59.23,47.37-.06,4.26-.07,4.93,1.52,4.67,5.06-1,14.08-2.66,28.18-2.67,42.28,0,7.14-2.53,9.24-8.79,10.72-13.65,3.22-27.11,7.26-40.65,11Q170.18,324,170.22,289.49Z"/><g class="cls-3"><path class="cls-4" d="M139.91,38.82,139.66.4,201,0l.13,18.6-44.37.29-.18,5.95L201,26.52l.24,36L140,62.94c-.27-4.41-.51-8.55-.87-14.48,8.25-.05,15.65.57,22.86-.34,6.89-.86,13.57-3.31,20.35-5.06-7-1.46-14-3.48-21.12-4.22C154.39,38.14,147.44,38.77,139.91,38.82Z"/><path class="cls-4" d="M270.36.34l.11,18-46.75.31c7.68,10.55,16.05,6.09,22.87,6.82,7.65.83,15.46.1,23.86.05l.24,36.54-61.33.41c-.35-3.87-.72-8-1.3-14.33,12.58-.08,24.23.1,35.84-.43,2.73-.12,5.35-2.67,8-4.1-2.8-1.76-5.54-4.91-8.42-5.05-11.24-.52-22.51-.09-34.44,0L208.81.75Z"/><path class="cls-4" d="M71.25,63.12,70.84.76l60.1-.4.12,18.77-41.14.27.19,28.41,41-.27.1,15.18Z"/></g></g></g></svg>