<svg xmlns="http://www.w3.org/2000/svg" viewBox="0 0 327.39 322.36"><defs><style>.cls-1{opacity:0.3;}.cls-2{fill:#1c191a;}</style></defs><title>design-logo</title><g id="Layer_2" data-name="Layer 2"><g id="Layer_1-2" data-name="Layer 1"><g class="cls-1"><path class="cls-2" d="M92.52,180.43c-29.17,0-58.34-.07-87.5.08-3.82,0-5-.84-5-4.89q.21-85.5,0-171C0,.78,1.14,0,4.77,0q88,.17,176,0c3.64,0,4.77.79,4.76,4.63q-.19,85.76,0,171.5c0,3.59-1.09,4.38-4.51,4.37C151.52,180.37,122,180.42,92.52,180.43Zm.24-8.05c26.66,0,53.33-.08,80,.09,3.76,0,4.71-1,4.7-4.73q-.18-77.49,0-155C177.46,9,176.5,8,172.74,8q-80,.2-160,0C9,8,8.05,9,8.06,12.77q.18,77.48,0,155c0,3.74,1,4.75,4.71,4.72C39.43,172.3,66.1,172.38,92.76,172.38Z"/><path class="cls-2" d="M236.28,143.25c28.49,0,57,.08,85.45-.09,4.09,0,5.67.57,5.66,5.3q-.3,84.45-.05,168.9c0,3.87-.93,5-4.92,5q-86.7-.19-173.39,0c-4.11,0-4.87-1.3-4.86-5.06q.17-84.45,0-168.9c0-4.11,1-5.28,5.19-5.25C178.32,143.34,207.3,143.25,236.28,143.25Zm-.52,171.09c26.32,0,52.65-.08,79,.09,3.68,0,4.73-.85,4.72-4.65q-.21-77,0-154c0-3.67-.82-4.73-4.64-4.72q-79,.24-158,.07c-3.71,0-4.72.89-4.71,4.66q.17,77-.08,154c0,3.81,1,4.66,4.72,4.64C183.1,314.27,209.43,314.34,235.76,314.34Z"/><path class="cls-2" d="M76.68,41.13c8.5,0,8.53,0,10.91,8,7.15,24,14.22,48.11,21.47,72.12,1.14,3.77.84,5.16-3.63,5-9.71-.25-9.68,0-12.33-9.4-1.35-4.78-1.47-11.33-4.66-13.75s-9.56-.84-14.53-.87c-9.39-.06-9.39,0-11.84,9.07-.74,2.72-1.79,5.42-2.11,8.19-.64,5.58-3.46,7.24-8.93,6.78-6.38-.53-6.45-.13-4.71-6.24Q56,86.29,65.62,52.52c.37-1.28.75-2.55,1.09-3.84C68.67,41.13,68.66,41.13,76.68,41.13Zm0,13.21c-2,7.93-3.68,15.15-5.51,22.35C67.56,90.9,67.53,90.82,82.59,89.55c2.67-.22,3-1.24,2.41-3.43C82.27,75.78,79.58,65.42,76.69,54.34Z"/><path class="cls-2" d="M121.4,94.76c0-9.16.11-18.32-.05-27.48-.06-3,.94-4,4-4,10.1-.15,10.09-.27,10.09,9.79,0,16.32-.08,32.64.07,49,0,3.23-.86,4.26-4.18,4.26-9.92,0-9.92.15-9.92-9.54Z"/><path class="cls-2" d="M136.39,47.42c-.22,4.69-3.35,7.46-8.26,7.29a7.5,7.5,0,0,1-7.52-8.16c.24-4.87,3.63-7.8,8.66-7.49C134,39.35,136.62,42.45,136.39,47.42Z"/><path class="cls-2" d="M188.26,226.18c0-12.48.1-25-.06-37.45,0-3.4.93-4.77,4.49-4.68,7.15.17,14.33-.32,21.46,0,14.83.75,24.14,9.6,25.07,23.34,1.08,15.89-7,26.89-21.82,29.83a42.2,42.2,0,0,1-11.91.92c-2.67-.24-3.43.82-3.39,3.4.12,7.65-.07,15.31.06,23,0,2.73-.73,3.72-3.64,3.79-10.16.27-10.17.39-10.17-9.68q0-16.24,0-32.47Zm14-15.09h0v5c0,11.08,0,11.08,11,9.26,8.55-1.41,12.5-6.62,12.09-15.95-.34-7.76-5.31-12.57-13.56-13.06-1.83-.11-3.68.1-5.5-.07-2.91-.27-4.27.58-4,3.83C202.48,203.74,202.26,207.43,202.26,211.09Z"/><path class="cls-2" d="M261.29,269.43c-1-.06-2.87-.07-4.69-.28-9.55-1.07-12.08-4.7-10.17-14.08.62-3,2.08-1.26,3.14-.72a27.61,27.61,0,0,0,15.44,3c2.86-.26,5.24-1.32,6.09-4.29.8-2.81-.62-5-2.79-6.43-4.79-3.13-9.9-5.77-14.61-9-6.84-4.73-8.61-11.54-6.45-19.3s8.13-11.5,15.65-12.85c5.46-1,10.92-.09,16.3,1,2,.42,3.21,1.64,3,3.91a27.28,27.28,0,0,0,0,3c0,6.57,0,6.59-6.1,4.62a25.37,25.37,0,0,0-10.84-1c-2.5.29-4.46,1.37-5.29,3.9-.88,2.68.51,4.65,2.51,6,3.6,2.36,7.43,4.36,11.12,6.59,5.26,3.17,9.75,6.95,10.82,13.53C286.58,260.59,277.64,269.59,261.29,269.43Z"/></g></g></g></svg>