<svg xmlns="http://www.w3.org/2000/svg" viewBox="0 0 329.33 321.28"><defs><style>.cls-1{opacity:0.3;}.cls-2{fill:#1c191a;}</style></defs><title>github-logo</title><g id="Layer_2" data-name="Layer 2"><g id="Layer_1-2" data-name="Layer 1"><g class="cls-1"><path class="cls-2" d="M307.24,82a163.93,163.93,0,0,0-59.92-59.93Q209.48,0,164.67,0T82,22.08A164,164,0,0,0,22.08,82Q0,119.85,0,164.66q0,53.82,31.41,96.81T112.56,321c3.86.72,6.72.21,8.58-1.5a8.37,8.37,0,0,0,2.78-6.43c0-.43,0-4.28-.1-11.57s-.11-13.66-.11-19.08l-4.93.85a62.54,62.54,0,0,1-11.9.75,91.2,91.2,0,0,1-14.9-1.5,33.23,33.23,0,0,1-14.37-6.43,27.19,27.19,0,0,1-9.43-13.18L66,257.93A53,53,0,0,0,59.28,247q-4.61-6-9.32-8.15l-1.51-1.07a15.63,15.63,0,0,1-2.78-2.58,11.6,11.6,0,0,1-1.93-3c-.43-1-.07-1.82,1.07-2.47s3.22-1,6.22-1l4.28.65q4.29.86,10.62,5.14a34.67,34.67,0,0,1,10.4,11.15,37.76,37.76,0,0,0,11.9,13.4,25.25,25.25,0,0,0,14,4.61,61.07,61.07,0,0,0,12.22-1.07,42.92,42.92,0,0,0,9.65-3.22q1.92-14.37,10.5-22.09a145.27,145.27,0,0,1-22-3.86,87.18,87.18,0,0,1-20.16-8.36,57.85,57.85,0,0,1-17.26-14.36Q68.4,202.18,64,188.24t-4.4-32.16q0-26,16.94-44.17Q68.6,92.41,78,68.18q6.22-1.94,18.44,2.89a128.1,128.1,0,0,1,17.9,8.25q5.69,3.44,9.12,5.79a154.9,154.9,0,0,1,82.33,0L214,80a115.58,115.58,0,0,1,19.72-9.44q11.37-4.27,17.38-2.35,9.64,24.22,1.71,43.73,16.93,18.22,16.94,44.17,0,18.22-4.4,32.27T254,210.86a59.9,59.9,0,0,1-17.38,14.26,87.3,87.3,0,0,1-20.15,8.36,146.61,146.61,0,0,1-22,3.87q11.15,9.65,11.15,30.44V313a8.54,8.54,0,0,0,2.68,6.43Q211,322,216.77,321q49.74-16.51,81.15-59.5t31.41-96.81A161.1,161.1,0,0,0,307.24,82Z"/></g></g></g></svg>