<svg xmlns="http://www.w3.org/2000/svg" viewBox="0 0 333.96 471.25"><defs><style>.cls-1{fill:#231f20;opacity:0.2;}.cls-2{fill:#1c191a;opacity:0.3;}</style></defs><title>Asset 75</title><g id="Layer_2" data-name="Layer 2"><g id="Layer_1-2" data-name="Layer 1"><path class="cls-1" d="M167.38,91.84H324.84c9,0,9.68.83,8.87,9.77-2.32,25.53-4.12,51.11-7,76.58-2.54,22.49-3.55,45.11-6.25,67.6-1.64,13.67-2,27.57-3.5,41.3-2.6,23.5-3.8,47.11-6.5,70.6-1.6,14-2.29,28.21-3.51,42.31-.79,9.11-2.23,18.17-2.34,27.34-.05,4.63-2.25,7-6.88,8.28Q234.31,453,171,470.66a15.68,15.68,0,0,1-8.8-.07Q100.62,453.33,39,436.23c-9.24-2.58-9.1-2.57-9.94-12.08-2.9-33.17-5.93-66.34-8.89-99.51-2.42-27.18-4.64-54.38-7.23-81.55C10.3,215.75,8.06,188.37,5.37,161c-2-20.36-3.55-40.79-5.23-61.2-.58-7,.42-8,7.78-8Q87.66,91.83,167.38,91.84Zm-.47,263.36c-14.37-2.9-28.31-7.47-42.5-11.06-3-.75-4.28-2.81-4.53-5.81-.66-8-1.44-15.91-2.14-23.86-.33-3.7-1.48-6.47-5.93-6.44-10.48.05-21,0-31.46,0-3.55,0-5.12,1.49-4.77,5.24,1.68,18.23,3.35,36.46,4.76,54.71.42,5.49,2.87,8,8.21,9.43,26.21,7,52.31,14.42,78.46,21.69,0,11.82-.06,23.65,0,35.48,0,6.87,1.22,7.76,7.7,6q47.46-13.08,94.88-26.24c7.87-2.19,8.53-3.08,9.25-11.36q5.16-59.2,10.33-118.4,7-78.86,14-157.69c.55-6.14-.07-6.89-6.49-6.9q-61.22-.06-122.43,0c-6.3,0-7.24,1-7.28,7.31-.06,11.49,0,23,0,34.48-3,.06-6,.17-9,.17q-44.46,0-88.91,0c-6.38,0-6.88.62-6.33,7q4.71,53.72,9.44,107.43c1.1,12.34,1.24,12.43,13.84,12.45l80.91.09Z"/><path class="cls-1" d="M190.89,36c0,6.7,0,13.28,0,19.85,0,7.71-.49,8.16-8.27,8.18-13.64,0-12.73.76-12.73-12.75,0-14.81,0-29.62,0-44.44,0-5.87.86-6.8,6.63-6.75,19.09.16,13.9-2.34,23.4,12.75,5.79,9.2,4.72,11.05,11.57.07C221-2.27,215.85.23,234.89.06c6.19-.06,7,.76,7,6.89q.07,25,0,49.94c0,6.37-.78,7-7.31,7.11-3,0-6-.07-9,0-3.76.08-5.49-1.72-5.47-5.45q.06-8.49,0-17c0-1.78.39-3.65-.82-5.72-3.19,2.2-4.3,5.8-6.35,8.65-1.37,1.88-2.55,3.9-3.86,5.82-3.17,4.64-3.88,4.64-6.88.06-2.46-3.75-4.86-7.55-7.38-11.27C194,37.94,193.55,36.3,190.89,36Z"/><path class="cls-1" d="M92.77,32.22c0,8.48-.08,17,0,25.46.06,4.33-1.56,6.39-6.15,6.37C68.31,64,71.09,65.39,71,49.27c0-4.76-2-6.42-6.58-6.48-12.52-.18-12.51-.31-12.55,12,0,9.08-.18,9.24-9.22,9.24C29.5,64,30,65,30.06,51.67c0-14.82,0-29.63,0-44.44,0-6.47.72-7.18,7.23-7.19C53.7,0,51.75-1.25,51.92,13.86c.06,6.39.78,7,7.31,7.15C71,21.2,71,21.2,71,9.32,71,.1,71.06,0,80.1,0,93.54,0,92.8-1.13,92.8,12.74q0,9.74,0,19.48Z"/><path class="cls-1" d="M131.29,0c7.65,0,15.31-.06,23,0,5.81.06,6.53.84,6.62,6.76,0,3.32,0,6.65,0,10s-1.69,4.86-4.93,4.89c-2.66,0-5.33.15-8,.07-4.23-.12-6,1.85-6,6.05.1,9.65.05,19.3,0,29,0,6.53-.69,7.24-7.15,7.24-16.43,0-14.64,1.6-14.73-14.67,0-7-.15-14,0-21,.11-4.61-1.72-6.56-6.45-6.67-12.53-.29-12.53-.43-12.48-12.9,0-8.49.27-8.75,8.66-8.77Q120.56,0,131.29,0Z"/><path class="cls-1" d="M252,31.61c0-8.49.09-17,0-25.48C251.89,2,253.49-.12,257.8,0c3.5.11,7,.1,10.49,0,4.08-.11,5.64,1.92,5.61,5.83-.07,9.82,0,19.65,0,29.47,0,6.79.69,7.43,7.46,7.49,5.49.06,11,.15,16.48,0,4.31-.11,5.95,1.91,5.95,6.05,0,17.41,1.11,15-14.32,15.12-10.33.09-20.65-.1-31,.06-4.65.07-6.67-1.72-6.57-6.48C252.13,48.93,252,40.27,252,31.61Z"/><path class="cls-2" d="M167,161.75c0-11.49-.06-23,0-34.48,0-6.33,1-7.3,7.28-7.31q61.22-.06,122.43,0c6.42,0,7,.76,6.49,6.9q-7,78.84-14,157.69-5.24,59.19-10.33,118.4c-.72,8.28-1.38,9.17-9.25,11.36q-47.43,13.15-94.88,26.24c-6.48,1.79-7.66.9-7.7-6-.06-11.83,0-23.66,0-35.48l0-.37,76.62-21c9.14-2.5,9.26-2.48,10.12-12q5.07-56,10-111.93c.5-5.6-.59-6.9-6.3-6.91q-45.23,0-90.44.1l0-.41q0-21.3,0-42.58l0-.41q47.68.1,95.38.26c4.33,0,5.86-2.32,6.2-6.14.9-9.94,1.67-19.9,2.81-29.82.51-4.52-1.27-6-5.51-6q-49.44.17-98.88.19Z"/><path class="cls-2" d="M167,356l-.06-.83.06-66.31v-.49c15.14.77,30.3.65,45.43.06,4.93-.2,6.15,1.29,5.7,5.86-1.32,13.42-2.27,26.87-3.59,40.28-.84,8.41-1,8.39-9.09,10.65Z"/><path class="cls-1" d="M167,246.6q-25.18.1-50.35.23c-3.67,0-5.38-1.63-5.66-5.35-.77-10.44-1.63-20.87-2.72-31.28-.48-4.68,1.45-6.35,5.87-6.33,17.62.1,35.24.1,52.85.14Q167,225.31,167,246.6Z"/></g></g></svg>