<svg xmlns="http://www.w3.org/2000/svg" viewBox="0 0 343.71 482.86"><defs><style>.cls-1{fill:#231f20;opacity:0.2;}.cls-2{fill:#1c191a;opacity:0.3;}</style></defs><title>javascript-logo</title><g id="Layer_2" data-name="Layer 2"><g id="Layer_1-2" data-name="Layer 1"><path class="cls-1" d="M172.58,482.86h-2.15c-.22-.26-.4-.68-.67-.75-4.8-1.27-9.61-2.5-14.42-3.73a60,60,0,0,0-10-2.67,63.89,63.89,0,0,0-11.49-3.38l-1.06-.19a47.57,47.57,0,0,0-9.67-2.71,53.2,53.2,0,0,0-10.73-3,46.82,46.82,0,0,0-10.76-3,78.82,78.82,0,0,0-13.84-3.82,8.46,8.46,0,0,0-5-1.67l-1.63-.32a85.14,85.14,0,0,0-12.34-3.62l-2.46-.34a1,1,0,0,0-1.31-.7L64,452.83a3.12,3.12,0,0,0-2.67-.79l-1.15-.19c-1-1.16-2.47-.94-3.7-1.3-6.41-1.86-12.89-3.5-19.34-5.22l-.1,0a2.94,2.94,0,0,0-2.59-.85l-2.07-.32c-.3-.85-.93-.93-1.69-.74l-1-1.37c-.17-3.17-.16-6.36-.58-9.5-.3-2.17.33-4.46-.8-6.52a4.93,4.93,0,0,0-.22-2.82,7.33,7.33,0,0,0,.13-3.45c-1.23-13.93-2.44-27.86-3.81-41.78-.22-2.26.19-4.64-.91-6.79a9.4,9.4,0,0,0-.2-3.88c-.36-5.59-.62-11.18-1.14-16.74-.13-1.37.06-2.88-.72-4.16-.05-.73-.09-1.47-.13-2.2.29-3.78-.63-7.46-.9-11.19-.18-2.44.49-5-.89-7.29,0-.83-.07-1.65-.11-2.48a133.43,133.43,0,0,0-1.73-19.85l-.17-3.25c-.59-7.52-1.09-15-1.84-22.54-.25-2.59.41-5.34-1-7.78,0-.65-.07-1.3-.1-2,.44-3.65-.21-7.21-.85-10.78a1.71,1.71,0,0,0-.09-1.6A192.55,192.55,0,0,0,11.77,234l-.06-1.12A56.54,56.54,0,0,0,10.78,221c-.34-2.31.51-4.79-1-6.93,0-.71-.05-1.41-.08-2.12.4-5.72-.89-11.33-1.11-17-.06-1.43.26-3.06-.66-4.42l-.16-3.3q-1.09-13.66-2.21-27.31c0-.3-.39-.56-.6-.83l-.12-3.57c.23-5.26-.75-10.44-1.09-15.67-.09-1.55.24-3.23-.63-4.7,0-1.09-.09-2.18-.13-3.28-.38-5.34-.76-10.68-1.19-16,0-.28-.41-.54-.63-.81-.07-1.92-.15-3.84-.23-5.75,0-1.06.05-2.12,0-3.17C.58,102-.23,97.86.06,93.69h0l1.57-.14a7.89,7.89,0,0,0,3.21,0,80.94,80.94,0,0,0,10.79,0,75.2,75.2,0,0,0,10.72,0,80.79,80.79,0,0,0,10.78,0,75.21,75.21,0,0,0,10.72,0,80.79,80.79,0,0,0,10.78,0,75.21,75.21,0,0,0,10.72,0,82.66,82.66,0,0,0,10.79,0,75.2,75.2,0,0,0,10.72,0,80.79,80.79,0,0,0,10.78,0,75.2,75.2,0,0,0,10.72,0,80.79,80.79,0,0,0,10.78,0,75.21,75.21,0,0,0,10.72,0,80.79,80.79,0,0,0,10.78,0,75.21,75.21,0,0,0,10.72,0,80.94,80.94,0,0,0,10.79,0,75.2,75.2,0,0,0,10.72,0,80.79,80.79,0,0,0,10.78,0,75.21,75.21,0,0,0,10.72,0,84.3,84.3,0,0,0,10.78,0,75.21,75.21,0,0,0,10.72,0,80.94,80.94,0,0,0,10.79,0,75.2,75.2,0,0,0,10.72,0,80.79,80.79,0,0,0,10.78,0,75.21,75.21,0,0,0,10.72,0,80.79,80.79,0,0,0,10.78,0,75.21,75.21,0,0,0,10.72,0,80.79,80.79,0,0,0,10.78,0,75.21,75.21,0,0,0,10.72,0,80.94,80.94,0,0,0,10.79,0,75.2,75.2,0,0,0,10.72,0,84.3,84.3,0,0,0,10.78,0,20.71,20.71,0,0,0,3.14.12c1.72-.2,2.43.52,2.4,2.17a90.26,90.26,0,0,0-1.65,16.64c-.07,1.61-.14,3.22-.2,4.83A104.32,104.32,0,0,0,340,136.13c-.05.89-.09,1.78-.13,2.66A38.2,38.2,0,0,0,339,149.6c0,.55-.07,1.11-.1,1.66-.94,2.23-.79,4.56-.69,6.9,0,.71-.07,1.42-.11,2.14-.24.45-.7.91-.69,1.36.05,6.76-1.44,13.42-1.26,20.17,0,.37-.05.73-.07,1.09a.68.68,0,0,0,0,1l-.09,2c-1.32,1.7-.73,3.65-.74,5.52v1.05c-.5,3.59-1.33,7.15-1,10.82a8.86,8.86,0,0,0-.22,3.8c-.63.54-.49,1.29-.55,2-.49,5.67-1,11.34-1.46,17-.56,7.08-1.06,14.16-1.59,21.24-.07,1.1-.14,2.19-.2,3.29-.88,1.46-.56,3.14-.71,4.69-.47,4.86-.69,9.73-1,14.6-.13,1.49-.75,2.95-.26,4.48-.92.62-.58,1.62-.65,2.45-1,11.91-2.2,23.81-3,35.73-.33,4.78-1.43,9.51-.95,14.34l-.12,3c-.2.28-.56.55-.58.85-.43,5.52-.81,11-1.21,16.57,0,.74-.07,1.48-.1,2.22-.85,1.56-.63,3.33-.69,5-.2,5.32-1.41,10.57-1.16,15.92a11.06,11.06,0,0,0-.25,4.4,177.83,177.83,0,0,0-2.05,21.37l-.06.57c-.39,3.58-1,7.15-.71,10.77,0,.86-.05,1.72-.08,2.57-.22.27-.64.54-.64.8,0,5.54-1.4,11-1.13,16.51a1.84,1.84,0,0,0-.07,1.6,35.87,35.87,0,0,0-.86,10.78c0,.65,0,1.29,0,1.94a1.31,1.31,0,0,0-.65,1.34l-.84.37c-.64-.3-1,0-1.21.58a12.61,12.61,0,0,0-5.23,1.29c-1.13.26-2.28.46-3.39.78-6.39,1.85-12.95,3.12-19.14,5.64a2.33,2.33,0,0,0-1.67.3,1.85,1.85,0,0,0-2.12.73l-1.64.34c-.9-.32-1.52.19-2.14.71l-1.1.18c-4.28,1.14-8.57,2.25-12.85,3.43s-8.8,2-12.88,4l-1.65.26A168.37,168.37,0,0,0,230,466.63c-7.08,1.59-14,3.78-20.93,5.86-4.21,1.18-8.67,1.56-12.59,3.72-1.61-.11-3,.66-4.54,1a1.41,1.41,0,0,0-1.8.76l-2,.32c-3.83,1-7.69,1.89-11.47,3.06C175.33,481.75,173.63,481.51,172.58,482.86Zm-31.69-80.52,1.17.22a71.77,71.77,0,0,0,13.34,3.72l2.17.37c1.61-.42.94-1.75,1-2.68,0-8.87,0-17.73,0-26.6V190.62c0-7.52,0-15.05,0-22.57,0-1.53-.17-2.61-2.13-2.54-3.94.15-7.88.15-11.82.21a91.62,91.62,0,0,0-10.74,0c-3.31,0-6.64.13-9.92-.16-2.73-.25-3.49.53-3.49,3.32q.15,50.74.07,101.49,0,43.36,0,86.73h-1.69c-3.26-2-7.06-2.19-10.61-3.22-6.45-1.88-13-3.47-19.48-5.19l-1.55-.24c-.5-.93-1.34-.92-2.22-.78l-2-.32c-.15-.21-.28-.55-.48-.61q-13-3.59-26.06-7.14c-1.68-.46-2,.37-1.94,1.83,0,11.8,0,23.61,0,35.42,0,.77-.49,1.91.94,2.1l1.39.32c4,1.79,8.37,2.43,12.6,3.51a2.77,2.77,0,0,0,2.19.5.72.72,0,0,0,1,.4,17.55,17.55,0,0,0,6.25,1.49c.25.24.45.63.73.71,7.35,1.94,14.7,3.84,22,5.76l10.68,2.85c1.77.59,3.51,1.27,5.31,1.75,5.41,1.43,10.84,2.78,16.26,4.17l2,.3A8,8,0,0,0,140.89,402.34Zm30.62-114.62q0,79.14,0,158.3c0,2-1,4.46.77,5.82s3.44-.69,5.19-1.09c6.75-1.57,13.36-3.64,20.06-5.35,8.17-2.09,16.28-4.41,24.42-6.62,8.31-2.24,16.6-4.56,24.91-6.75,4.2-1.1,8.35-2.38,12.56-3.37,7.25-1.72,14.33-4.05,21.54-5.88,1.23-.31,2.18-.88,2.3-2.26.74-8.69,1.53-17.37,2.15-26.07.37-5.15.76-10.32,1.37-15.42.73-6.26.89-12.55,1.74-18.81.72-5.35.57-10.92,1.45-16.2,1.32-7.95,1.18-16,2.26-23.91,1.13-8.25,1.53-16.64,2.23-25,.84-10.1,2-20.19,2.64-30.3.58-9.6,2.25-19.09,2.41-28.72,0-2.46.27-5,.55-7.46.85-7.42,1.67-14.84,2.06-22.31.25-4.89.95-9.74,1.22-14.64.38-7.09,1.62-14.12,2.09-21.23.22-3.29.24-6.59.6-9.87.71-6.36,1.94-12.69,1.92-19.09,0-4.85,1-9.57,1.27-14.37.22-3.39.5-3.37-2.86-3.37H175c-3.46,0-3.47,0-3.47,3.5Z"/><path class="cls-2" d="M171.51,287.72V127.27c0-3.5,0-3.5,3.47-3.5H306.4c3.36,0,3.08,0,2.86,3.37-.31,4.8-1.29,9.52-1.27,14.37,0,6.4-1.21,12.73-1.92,19.09-.36,3.28-.38,6.58-.6,9.87-.47,7.11-1.71,14.14-2.09,21.23-.27,4.9-1,9.75-1.22,14.64-.39,7.47-1.21,14.89-2.06,22.31-.28,2.48-.52,5-.55,7.46-.16,9.63-1.83,19.12-2.41,28.72-.62,10.11-1.8,20.2-2.64,30.3-.7,8.34-1.1,16.73-2.23,25-1.08,7.95-.94,16-2.26,23.91-.88,5.28-.73,10.85-1.45,16.2-.85,6.26-1,12.55-1.74,18.81-.61,5.1-1,10.27-1.37,15.42-.62,8.7-1.41,17.38-2.15,26.07-.12,1.38-1.07,2-2.3,2.26-7.21,1.83-14.29,4.16-21.54,5.88-4.21,1-8.36,2.27-12.56,3.37-8.31,2.19-16.6,4.51-24.91,6.75-8.14,2.21-16.25,4.53-24.42,6.62-6.7,1.71-13.31,3.78-20.06,5.35-1.75.4-3.53,2.35-5.19,1.09s-.76-3.85-.77-5.82Q171.48,366.87,171.51,287.72Zm13.6-41.37a71,71,0,0,0,0,10.72,74.59,74.59,0,0,0,0,10.78,71,71,0,0,0,0,10.72,74.59,74.59,0,0,0,0,10.78,71,71,0,0,0,0,10.72c-.11,3.72-.22,7.45-.31,11.17,0,.62,0,1.45.86,1.37,3.56-.36,7.17-.47,10.54-1.86a3.46,3.46,0,0,0,2.17-.26,20.15,20.15,0,0,0,2.91-.05c8.26-1.29,16.53-2.47,24.74-4,2.94-.55,6.06-.23,8.83-1.68l1.69-.12c1,.1,2.11.43,2.8-.73l2-.14a7.67,7.67,0,0,0,1.59,0c2.55-.55,3.31.53,2.92,2.95a28.68,28.68,0,0,0-.68,7.39l-.21,4.56c-.23.26-.63.51-.66.79-.39,4.31-.74,8.63-1.1,12.94-.06,1.08-.11,2.15-.16,3.23a11.41,11.41,0,0,0-.76,5.36,2.69,2.69,0,0,0-.06,2.12c-.38,2.26-.85,4.52-1.1,6.8a2.45,2.45,0,0,1-2,2.57c-2.82.86-5.83,1.23-8.46,2.69l-1.11.19a1.7,1.7,0,0,0-2,.7l-1.7.25a1,1,0,0,0-1.32.69c-1.61.09-3.27,0-4.61,1.16A48.43,48.43,0,0,0,209.12,361a4.67,4.67,0,0,0-2.35.4c-4.05,1.28-8.11,2.52-12.17,3.77-1.1-.75-1.83,0-2.61.62l-1.12.21a1.38,1.38,0,0,0-1.84.64l-1.37.29c-1.43-.14-2.79,0-2.81,1.84,0,2.19.17,4.38.26,6.58a69.62,69.62,0,0,0,0,10.71,74.73,74.73,0,0,0,0,10.79,27.88,27.88,0,0,0,0,6.52c-.84,3.51-.54,3.91,2.74,3.08,4.36-1.11,8.71-2.28,13-3.55,1.31-.39,2.91-.06,3.89-1.4l1.15-.19a1.2,1.2,0,0,0,1.69-.68l1.52-.22a3.83,3.83,0,0,0,1.07,0c4.73-1.29,9.52-2.4,14.14-4,2.55-.89,5.44-.84,7.67-2.62l2.39-.36a.8.8,0,0,0,1.05-.49,4.49,4.49,0,0,0,2.71-.58.83.83,0,0,0,1.09-.4l1.61-.24c4.42-1.19,8.86-2.34,13.27-3.61,3.19-.91,6.5-1.44,9.5-2.95,1.86.1,3.48-.8,5.19-1.29a1.31,1.31,0,0,0,1.58-.57L272,383c1.92.14,1.81-1.39,2-2.54.26-2,.34-4.09.51-6.14.73-9,2.09-17.91,2.29-26.94.05-1.43.1-2.86.16-4.3a1.06,1.06,0,0,0,.75-1c-.13-5.09,1.08-10.08,1.1-15.16l.11-3.28c1.42-6,1.48-12.1,1.74-18.2l-.2-.59a.73.73,0,0,0,0-.44,1.71,1.71,0,0,0,.3-1.51c.24-.36.69-.73.68-1.09-.1-5.46,1.22-10.82,1.19-16.27l.21-4.24c1-.58.91-1.19.05-1.82l.07-.87c.2-.17.55-.32.57-.5.52-5.64,1-11.27,1.49-16.91.11-1.3-.54-1.6-1.63-.86l-2.17.16c-1.19,0-2.45-.41-3.34.8l-1.52.05c-3.76-.1-7.38,1-11.05,1.54-1.77.28-3.74-.3-5.32,1-2.64.21-5.33,0-7.81,1.24-3.81-.4-7.39,1.41-11.19,1.13-.93.06-2-.54-2.75.5a7.21,7.21,0,0,1-3.32.44c-.47-.61-.77-.41-1,.2l-1.17.26c-.6-.68-1,0-1.55.16-.34.15-.8.1-.94.58l-1.23.13c-1.22.28-2.58-.75-3.69.44l-1.1.16-1.6-.31c-.06-.34-.11-.68-.16-1a76,76,0,0,0,0-10.78,80,80,0,0,0,0-10.73,84.14,84.14,0,0,0,0-10.77,80,80,0,0,0,0-10.73,84.14,84.14,0,0,0,0-10.77c.06-3.57.13-7.15.19-10.72l8-.23a79.75,79.75,0,0,0,10.71,0,74.73,74.73,0,0,0,10.79,0,79.75,79.75,0,0,0,10.71,0,74.73,74.73,0,0,0,10.79,0,79.9,79.9,0,0,0,10.72,0l3.44.16c.92,0,1.65-.39,1.67-1.32.08-4,1.35-8,.84-12.08l.13-3c1.41-5.19,1.22-10.56,1.7-15.86a13.27,13.27,0,0,0,.22-4.31c.47-.61.33-.95-.45-1l-5.92,0c-.83-.54-1.75-.27-2.62-.27l-54.55,0H187.46c-1.22,0-2.61-.37-2.56,1.7.12,4.92.15,9.85.21,14.77a69.75,69.75,0,0,0,0,10.72,74.59,74.59,0,0,0,0,10.78,68.51,68.51,0,0,0,0,10.72,74.73,74.73,0,0,0,0,10.79,68.38,68.38,0,0,0,0,10.71A74.73,74.73,0,0,0,185.11,246.35Z"/><path class="cls-1" d="M143.49.08l16.57.09c.06,8.29.15,16.59.17,24.88,0,11.78,0,23.56,0,35.34a23.72,23.72,0,0,1-.22,2.37c-11.5-.06-23-.14-34.5-.17-3.39,0-6.77.13-10.16.19-.08-4.9-.15-9.8-.25-14.71,0-1.8,1.19-1.65,2.37-1.65,7.78,0,15.55-.07,23.33.06,2.14,0,2.69-.61,2.68-2.71C143.38,29.21,143.45,14.64,143.49.08Z"/><path class="cls-1" d="M171,38.76c-.07-2.94-.17-5.89-.18-8.84,0-9.12,0-18.25,0-27.37,0-1.75.35-2.55,2.35-2.55Q200,.11,226.81,0c1.92,0,2.47.66,2.41,2.49-.11,3.21-.17,6.44,0,9.65.13,2.39-.53,3.24-3.09,3.21-12.25-.14-24.51,0-36.76-.11-2.62,0-3.61.81-3.34,3.38.14,1.33,0,2.68.06,4,0,.78,0,1.79,1.33,1.26,3.75,0,7.49,0,11.23,0l30.73.12c-.07,1.16-.19,2.31-.19,3.47q0,15.86,0,31.69c0,3.44,0,3.44-3.56,3.44H174.07c-.54,0-1.07,0-1.61,0-1.1,0-1.68-.43-1.65-1.58.13-4.82-.27-9.66.22-14.48l16.65-.07,23.61-.15,1.64.07c1.46-1.53,1.42-6.11-.06-7.52Z"/></g></g></svg>