<svg xmlns="http://www.w3.org/2000/svg" viewBox="0 0 274.01 372.28"><defs><style>.cls-1{opacity:0.3;}.cls-2{fill:#1c191a;}</style></defs><title>java-logo</title><g id="Layer_2" data-name="Layer 2"><g id="Layer_1-2" data-name="Layer 1"><g class="cls-1"><path class="cls-2" d="M251.38,318.16c2,6.61,1,9-4.92,11.92-11.85,5.86-24.83,7.52-37.66,9.09-17.05,2.08-34.21,3.74-51.37,4.52-16.78.76-33.63.4-50.44.1-12.9-.23-25.85-.53-38.66-1.91-12.25-1.33-24.39-3.85-36.48-6.37-3-.63-7.85-3.13-8-5-.26-4.22,4.29-6.05,8-7.22,8.43-2.66,17-5,25.13-7.35a11.29,11.29,0,0,0-3.58-1,105.27,105.27,0,0,0-13.88.89c-12.94,2.1-25.37,5.88-35.92,14A10.67,10.67,0,0,0,0,337.73c.13,1.92,3.33,4.61,5.63,5.23a163.21,163.21,0,0,0,22.72,4.67c19.41,2.38,38.84,4.9,58.34,6.16,15.4,1,30.91.11,46.36.23a393.32,393.32,0,0,0,65.73-5.43c15.2-2.44,30.23-5.5,44.56-11.26a48,48,0,0,0,8.3-4.45C260,327.45,260,324.13,251.38,318.16ZM150.11,217l.6,1c6.74-5.71,14.22-10.76,20.07-17.27,9.88-11,12.8-24.13,2.63-37.82a181,181,0,0,1-10.58-16c-3.36-5.72-6.07-12-3.21-18.6a53.06,53.06,0,0,1,8.72-14.34c11.41-12.65,25.86-21.48,40.16-30.44,3.55-2.22,7.12-4.41,10.69-6.61l-.65-1.35c-9.25,3.52-18.59,6.81-27.71,10.63-16.6,7-32.21,15.51-44,29.72-7.5,9.08-11.08,19.5-9.28,31.19,1.87,12.14,8.24,22.19,16.36,31.19,7,7.79,8.67,17.5,4,26.77C155.78,209.34,152.74,213.08,150.11,217Zm64.78,1.73c-5,.66-9.86,1.33-14.69,1.91-17.64,2.11-35.24,4.66-52.93,6.13-13.18,1.09-26.47,1-39.72,1-12,0-24.08-.39-36.1-.94a43.38,43.38,0,0,1-10.88-2.35c-1.66-.53-3-2.18-4.43-3.32,1.14-1.33,2-3.12,3.48-3.89a90,90,0,0,1,12.18-5.5c6.62-2.33,13.38-4.25,20.09-6.34l-.22-1.15C83.1,205.51,74.42,206.2,66,208c-12,2.62-23.67,6.41-34.1,13.18-3.52,2.29-3.45,5.73.27,7.63a42.67,42.67,0,0,0,9.63,3.6c19.53,4.5,39.52,4.55,59.38,5.4,10.65.46,21.35-.47,32-.78.45,0,.9,0,1.35-.07,13.51-1.48,27-2.88,40.52-4.47C189.24,230.86,202.82,227.4,214.89,218.75ZM86.7,288.22c-2,.59-3.71,1-5.34,1.64a36.19,36.19,0,0,0-5.61,2.7c-8,5-8.16,9.62-.54,15a25.92,25.92,0,0,0,4.62,2.72c12.65,5.46,26.11,7.46,39.66,8.26a174.9,174.9,0,0,0,54.75-5.42c7-1.81,13.72-4.43,21.44-7-7.1-3.67-13-6.88-19-9.69-1.59-.73-3.8-.46-5.66-.2-9.45,1.28-18.83,3.29-28.31,3.94a242.17,242.17,0,0,1-30.48,0,150.29,150.29,0,0,1-23.37-3.48C82.93,295.44,82.54,293.16,86.7,288.22ZM78.15,248l-.54-1.22c-5.06,2.72-10.28,5.18-15.13,8.22-5.07,3.19-5.17,7.67-.62,11.26a20.57,20.57,0,0,0,4.2,2.53c12.31,5.6,25.56,7.45,38.8,8.05,26.89,1.21,53.68-.2,80.05-6.25,5.42-1.24,10.77-2.79,16.7-4.35-5.11-3.16-9.32-5.93-13.72-8.38a8.07,8.07,0,0,0-4.67-.72c-14.62,1.95-29.18,5-43.86,5.82-15,.87-30.1-.16-45.14-.77a66.32,66.32,0,0,1-14.92-2.67c-6.08-1.68-6.79-5-2.59-9.82C77.2,249.11,77.67,248.53,78.15,248Zm195.58,91.31c-6.85,3.35-13.66,7.39-21,10.14-20.08,7.58-41.21,10.84-62.39,13.32-16.18,1.9-32.5,3.19-48.79,3.6-17.75.45-35.53-.34-53.29-.8-4.91-.13-9.8-1-14.69-1.53l-23.85-2.65a25.87,25.87,0,0,0,7.43,3.45c18.88,5.17,38.32,6.64,57.69,7.11,29.74.73,59.49.68,89.13-3.28,18.42-2.46,36.62-5.53,53.65-13.16C265.24,352.09,271.85,347.12,273.73,339.28Zm-50.89-131c1.62-.29,2.06-.32,2.47-.45,12.85-3.92,23.4-.81,29.74,8.85,5.9,9,3.65,17.58-1.57,25.89-7,11.1-17.38,18.33-28.4,24.83-3.31,1.95-6.59,3.95-9.89,5.93l.6,1.16c5.77-1.88,11.64-3.48,17.28-5.69,13.33-5.21,25.89-11.7,34.69-23.6,8.38-11.34,9-25.67-2.16-35.83-8.86-8.1-19.35-8.77-30.31-7.24C231,202.71,226.54,203.77,222.84,208.25Z"/><path class="cls-2" d="M175.09,0c4.6,7.35,8.45,14.9,8.9,23.88.73,14.85-4.22,27.78-12.56,39.71-9.8,14-22.21,25.39-35.51,36-9.49,7.55-18,16-23.89,26.93-6.41,11.92-6.44,24.07-.08,35.65,5.77,10.52,12.87,20.31,19.31,30.47,2.17,3.43,4.08,7,6.52,11.26-1.52-.34-2.06-.29-2.32-.53-14.29-13.44-29-26.49-39.67-43.25-4.53-7.11-8-14.7-8.35-23.25-.41-9.46,3.71-17.39,9.58-24.38,11.51-13.72,26.11-24,40-35.08,12.68-10.14,25-20.59,32.57-35.23,4.74-9.24,8-19.2,5.82-30-.81-4-1.4-8.1-2.1-12.15Z"/><path class="cls-2" d="M251.38,318.16c8.59,6,8.57,9.29.27,14.72a48,48,0,0,1-8.3,4.45c-14.33,5.76-29.36,8.82-44.56,11.26A393.32,393.32,0,0,1,133.06,354c-15.45-.12-31,.77-46.36-.23-19.5-1.26-38.93-3.78-58.34-6.16A163.21,163.21,0,0,1,5.64,343c-2.3-.62-5.5-3.31-5.63-5.23a10.67,10.67,0,0,1,3.61-7.94c10.55-8.08,23-11.86,35.92-14a105.27,105.27,0,0,1,13.88-.89,11.29,11.29,0,0,1,3.58,1c-8.17,2.36-16.7,4.69-25.13,7.35-3.7,1.17-8.25,3-8,7.22.12,1.88,4.95,4.38,8,5,12.09,2.52,24.23,5,36.48,6.37,12.81,1.38,25.76,1.68,38.66,1.91,16.81.3,33.66.66,50.44-.1,17.16-.78,34.32-2.44,51.37-4.52,12.83-1.57,25.81-3.23,37.66-9.09C252.35,327.16,253.34,324.77,251.38,318.16Z"/><path class="cls-2" d="M150.11,217c2.63-3.94,5.67-7.68,7.81-11.87,4.71-9.27,3.07-19-4-26.77-8.12-9-14.49-19-16.36-31.19-1.8-11.69,1.78-22.11,9.28-31.19,11.74-14.21,27.35-22.75,44-29.72,9.12-3.82,18.46-7.11,27.71-10.63l.65,1.35c-3.57,2.2-7.14,4.39-10.69,6.61-14.3,9-28.75,17.79-40.16,30.44a53.06,53.06,0,0,0-8.72,14.34c-2.86,6.58-.15,12.88,3.21,18.6a181,181,0,0,0,10.58,16c10.17,13.69,7.25,26.82-2.63,37.82-5.85,6.51-13.33,11.56-20.07,17.27Z"/><path class="cls-2" d="M214.89,218.75c-12.07,8.65-25.65,12.11-39.81,13.78-13.49,1.59-27,3-40.52,4.47-.45.05-.9.06-1.35.07-10.68.31-21.38,1.24-32,.78-19.86-.85-39.85-.9-59.38-5.4a42.67,42.67,0,0,1-9.63-3.6c-3.72-1.9-3.79-5.34-.27-7.63C42.33,214.45,54,210.66,66,208c8.42-1.84,17.1-2.53,25.67-3.74l.22,1.15c-6.71,2.09-13.47,4-20.09,6.34a90,90,0,0,0-12.18,5.5c-1.44.77-2.34,2.56-3.48,3.89,1.47,1.14,2.77,2.79,4.43,3.32a43.38,43.38,0,0,0,10.88,2.35c12,.55,24.07,1,36.1.94,13.25,0,26.54.09,39.72-1,17.69-1.47,35.29-4,52.93-6.13C205,220.08,209.85,219.41,214.89,218.75Z"/><path class="cls-2" d="M86.7,288.22c-4.16,4.94-3.77,7.22,2.17,8.51a150.29,150.29,0,0,0,23.37,3.48,242.17,242.17,0,0,0,30.48,0c9.48-.65,18.86-2.66,28.31-3.94,1.86-.26,4.07-.53,5.66.2,6,2.81,11.89,6,19,9.69-7.72,2.53-14.47,5.15-21.44,7a174.9,174.9,0,0,1-54.75,5.42c-13.55-.8-27-2.8-39.66-8.26a25.92,25.92,0,0,1-4.62-2.72c-7.62-5.37-7.46-10,.54-15a36.19,36.19,0,0,1,5.61-2.7C83,289.2,84.74,288.81,86.7,288.22Z"/><path class="cls-2" d="M78.15,248c-.48.56-1,1.14-1.44,1.7-4.2,4.81-3.49,8.14,2.59,9.82a66.32,66.32,0,0,0,14.92,2.67c15,.61,30.15,1.64,45.14.77,14.68-.85,29.24-3.87,43.86-5.82a8.07,8.07,0,0,1,4.67.72c4.4,2.45,8.61,5.22,13.72,8.38-5.93,1.56-11.28,3.11-16.7,4.35-26.37,6.05-53.16,7.46-80,6.25-13.24-.6-26.49-2.45-38.8-8.05a20.57,20.57,0,0,1-4.2-2.53c-4.55-3.59-4.45-8.07.62-11.26,4.85-3,10.07-5.5,15.13-8.22Z"/><path class="cls-2" d="M273.73,339.28c-1.88,7.84-8.49,12.81-16.06,16.2-17,7.63-35.23,10.7-53.65,13.16-29.64,4-59.39,4-89.13,3.28-19.37-.47-38.81-1.94-57.69-7.11a25.87,25.87,0,0,1-7.43-3.45L73.62,364c4.89.54,9.78,1.4,14.69,1.53,17.76.46,35.54,1.25,53.29.8,16.29-.41,32.61-1.7,48.79-3.6,21.18-2.48,42.31-5.74,62.39-13.32C260.07,346.67,266.88,342.63,273.73,339.28Z"/><path class="cls-2" d="M222.84,208.25c3.7-4.48,8.15-5.54,12.45-6.15,11-1.53,21.45-.86,30.31,7.24,11.12,10.16,10.54,24.49,2.16,35.83-8.8,11.9-21.36,18.39-34.69,23.6-5.64,2.21-11.51,3.81-17.28,5.69l-.6-1.16c3.3-2,6.58-4,9.89-5.93,11-6.5,21.43-13.73,28.4-24.83,5.22-8.31,7.47-16.9,1.57-25.89-6.34-9.66-16.89-12.77-29.74-8.85C224.9,207.93,224.46,208,222.84,208.25Z"/></g></g></g></svg>