<svg xmlns="http://www.w3.org/2000/svg" viewBox="0 0 373.85 384.62"><defs><style>.cls-1{opacity:0.3;}.cls-2{fill:#1c191a;}</style></defs><title>laravel-logo</title><g id="Layer_2" data-name="Layer 2"><g id="Layer_1-2" data-name="Layer 1"><g class="cls-1"><path class="cls-2" d="M80.61,0c-.28.53.23.51.47.65q35.83,20.63,71.69,41.22a7.36,7.36,0,0,1,4,7q-.06,75.66,0,151.33v2.22l7.55-4.33q25.59-14.73,51.19-29.44a2.65,2.65,0,0,0,1.57-2.66c-.05-25.4,0-50.81-.07-76.21a7.31,7.31,0,0,1,4-7q35.26-20.22,70.45-40.55a7.19,7.19,0,0,1,7.93,0q35.12,20.3,70.32,40.48a7.44,7.44,0,0,1,4.09,7.13q-.08,40.07,0,80.13a7.32,7.32,0,0,1-4,7q-33.51,19.19-67,38.47a2.54,2.54,0,0,0-1.45,2.57c0,25.41,0,50.81.06,76.22a7.3,7.3,0,0,1-4,7q-71.3,41-142.53,82.06a7.67,7.67,0,0,1-8.49,0Q75.56,342.42,4.61,301.63c-1.7-1-3.32-2-4.22-3.82,0,0-.08,0-.13-.06-.25-.1-.2.13-.26.24V45.48a1.16,1.16,0,0,0,.2.18s.1,0,.12-.08c.94-2.23,2.94-3.28,4.9-4.4l40-23Q60.18,9.57,75.08.94c.33-.18,1.15-.12.83-.94Zm64.05,368.31v-2q0-32.7,0-65.4A2.86,2.86,0,0,0,143,298c-22-12.39-43.89-24.87-65.89-37.19-3.45-1.93-4.79-4.38-4.79-8.3q.14-79,.08-157.92A2.55,2.55,0,0,0,71,92Q42.34,75.59,13.78,59.11c-1.73-1-1.73-1-1.73,1q0,115.11,0,230.22a2.55,2.55,0,0,0,1.51,2.55q60.57,34.81,121.1,69.69Zm12.12,0c.69-.37,1.19-.62,1.67-.89Q223.19,330.1,288,292.86a2.52,2.52,0,0,0,1.49-2.55q-.06-32.54,0-65.07a3.08,3.08,0,0,0-.22-1.78c-.46.24-.91.46-1.35.71Q223.1,261.12,158.33,298a2.72,2.72,0,0,0-1.58,2.81q.06,32.78,0,65.54ZM283.27,212.88c-.59-.35-1-.61-1.39-.84q-28.5-16.42-57-32.87a3.14,3.14,0,0,0-3.64,0q-60.91,35.15-121.87,70.2c-2.89,1.66-5.77,3.34-8.77,5.07.49.3.82.53,1.17.73q28.89,16.35,57.78,32.74a2.21,2.21,0,0,0,2.53-.15l115.06-65.71ZM144.5,58.43c-.55,0-.89.33-1.28.55Q114.38,75.57,85.53,92.16a2.05,2.05,0,0,0-1.16,2.1q0,74.16,0,148.32c0,.43-.2.93.25,1.33.28-.14.56-.27.83-.43q29-16.71,58.11-33.4a2.16,2.16,0,0,0,1.09-2.3q0-73.84,0-147.69A3,3,0,0,0,144.5,58.43Zm90.74,30.16c.48.31.82.55,1.18.76q29,16.68,57.94,33.4a2,2,0,0,0,2.39-.17L353.62,89.8a5.65,5.65,0,0,0,1.86-1.25c-.42-.26-.81-.52-1.21-.75q-28.84-16.6-57.68-33.24a2.06,2.06,0,0,0-2.39.06q-22.32,12.88-44.66,25.72ZM138.58,47.71c-.55-.35-.85-.55-1.16-.73q-29-16.68-57.92-33.39A2.18,2.18,0,0,0,77,13.8L21.87,45.52c-1.16.66-2.31,1.35-3.46,2,.27.61.76.73,1.14,1Q48.32,65.07,77.07,81.65a2.3,2.3,0,0,0,2.68,0q22.5-13,45-26ZM289.32,202.39c.05-.52.09-.77.09-1q0-33.24,0-66.46a1.87,1.87,0,0,0-1.16-1.81L230.47,99.84c-.38-.21-.72-.62-1.39-.44v1.36q0,32.76,0,65.52a2.22,2.22,0,0,0,1.29,2.2q20.11,11.52,40.17,23.1Zm12.12,0c.54-.29.86-.45,1.17-.63q29-16.67,58-33.32a2.07,2.07,0,0,0,1.16-2.11q0-32.76,0-65.52c0-.49.18-1-.24-1.56-.32.17-.64.32-.95.5q-29,16.68-57.95,33.33a2,2,0,0,0-1.14,2.1q0,31.05,0,62.08Z"/></g></g></g></svg>