<svg xmlns="http://www.w3.org/2000/svg" viewBox="0 0 629.13 178.53"><defs><style>.cls-1{fill:#1c191a;opacity:0.3;}.cls-2{fill:#231f20;opacity:0.2;}</style></defs><title>mongodb-logo</title><g id="Layer_2" data-name="Layer 2"><g id="Layer_1-2" data-name="Layer 1"><path class="cls-1" d="M360.9,178.28A22.53,22.53,0,0,1,350.11,174,15.05,15.05,0,0,1,344,163.5a8.24,8.24,0,0,1,1.76-6.05,21.94,21.94,0,0,1,3.69-3.58c2.06-1.71,4.24-3.28,6.44-4.82.18-.13.37-.24.54-.38.79-.61.75-.93-.2-1.34a15.22,15.22,0,0,1-3.95-2.36,9.45,9.45,0,0,1-3.08-4.66c-.38-1.39-.22-1.89,1-2.67,1.63-1,3.31-2,4.95-3,.82-.51,1.62-1.06,2.42-1.61.39-.27.83-.53.77-1.13s-.56-.72-1-.89a20.17,20.17,0,0,1-4-2,14.53,14.53,0,0,1-5.56-6.53,20.5,20.5,0,0,1-1.2-12.67,17.15,17.15,0,0,1,8.86-11.58,33.23,33.23,0,0,1,12.31-4.09,24.77,24.77,0,0,1,10.42,1.16c1.76.55,3.48,1.22,5.24,1.77a20,20,0,0,0,9.13.66,9.11,9.11,0,0,0,4.29-1.91c.29-.24.51-.62,1-.64a8.48,8.48,0,0,1-.89,6.95c-1.07,1.72-2.83,2.27-4.73,2.46a11.91,11.91,0,0,1-3.15-.31c-1.44-.23-1.48-.2-1.14,1.15a22.62,22.62,0,0,1-.4,12.37,17.56,17.56,0,0,1-6.95,9,26.76,26.76,0,0,1-14,5,6.73,6.73,0,0,0-3.43.78,3.24,3.24,0,0,0-1.78,2.87,3.33,3.33,0,0,0,2,3,10.88,10.88,0,0,0,4.35,1c5.13.36,10.27.66,15.37,1.33a41.16,41.16,0,0,1,4.41.8,12.67,12.67,0,0,1,9.67,13c-.22,5.74-2.74,10.4-6.76,14.3A34.67,34.67,0,0,1,371,178.29a7.16,7.16,0,0,0-2.39.24h-5.28A6.37,6.37,0,0,0,360.9,178.28Zm10.24-6.09a22.33,22.33,0,0,0,10.05-2.09c4-2,6.5-5.19,6.77-9.8a8.29,8.29,0,0,0-4.25-8.18,13.9,13.9,0,0,0-3.77-1.53,56.72,56.72,0,0,0-16-1.37,7.4,7.4,0,0,0-3.6,1.18,22.34,22.34,0,0,0-4.1,3.29,9.24,9.24,0,0,0-.14,12.87,15.21,15.21,0,0,0,4.6,3.48A23.76,23.76,0,0,0,371.14,172.19Zm7.33-58.26a25.78,25.78,0,0,0-.44-4.58,21.83,21.83,0,0,0-.75-2.66c-2.32-6.31-7.72-8.5-13.18-7.55-3.86.67-6.13,3.34-7.12,7A19.78,19.78,0,0,0,358.27,120a11,11,0,0,0,8.86,6.67c3.79.53,7.9-.69,9.88-5.29A18.85,18.85,0,0,0,378.47,113.93Z"/><path class="cls-1" d="M360.9,178.28a6.37,6.37,0,0,1,2.38.25h-2.37A.7.7,0,0,0,360.9,178.28Z"/><path class="cls-1" d="M368.56,178.53a7.16,7.16,0,0,1,2.39-.24.65.65,0,0,0,0,.24Z"/><path class="cls-1" d="M39.08,1.39c.78,1.58,1.55,3.16,2.35,4.72a32.65,32.65,0,0,0,5.93,8.18A108,108,0,0,1,60.52,29.91,105.27,105.27,0,0,1,73.64,57a88,88,0,0,1,3.59,14,94.38,94.38,0,0,1,1,15.76,71.14,71.14,0,0,1-1.19,12.71c-.42,2.09-.84,4.18-1.37,6.25-.72,2.83-1.59,5.61-2.55,8.35-.59,1.69-1.33,3.33-2.07,5-.88,1.94-1.64,3.93-2.68,5.81a81.22,81.22,0,0,1-21.67,25.57c-1.16.89-1.29.91-2.31-.1a9.13,9.13,0,0,1-2.75-4.5,1.68,1.68,0,0,0,0-.39c-1.54-4.76-1.79-9.71-2.07-14.65-.14-2.31.43-4.6.28-6.91a1.22,1.22,0,0,1,0-.27c.34-2.72.43-5.46.51-8.19,0-1.58,0-3.15,0-4.73a3.07,3.07,0,0,0,.26-1.79c-.13-8.66,0-17.31-.2-26-.38-13.48.18-27-.28-40.47-.23-6.93.06-13.88-.3-20.81-.11-2.23,0-4.46-.2-6.71-.25-2.6,0-5.25-.32-7.87-.07-.65-.07-1.3-.19-2-.21-1.11,0-2.27-.31-3.39C38.85,1.63,39,1.5,39.08,1.39Z"/><path class="cls-2" d="M40.41,110.68c0,1.58,0,3.15,0,4.73-.08,2.73-.17,5.47-.51,8.19a1.22,1.22,0,0,0,0,.27c.15,2.31-.42,4.6-.28,6.91a9.77,9.77,0,0,0-.44,3.21c-.4,4.37-.9,8.71-1.68,13a18.68,18.68,0,0,1-1.56,5.67c-1.25-1-2.52-2-3.75-3.08A94.29,94.29,0,0,1,7.67,118.08,78.31,78.31,0,0,1,.75,95,74.58,74.58,0,0,1,.09,80.87,115,115,0,0,1,2.4,62.59a102,102,0,0,1,10-27.65c.21-.38.46-.74.69-1.11,1-.12,1.13.63,1.35,1.3,4.22,12.55,8.32,25.15,12.63,37.67,3,8.8,5.89,17.65,8.82,26.47l3.39,10.11C39.52,110,39.61,110.61,40.41,110.68Z"/><path class="cls-2" d="M469.69,72.07a15.47,15.47,0,0,1,2.14-4.5.94.94,0,0,1,.9-.42,10.88,10.88,0,0,1,2,0,16.82,16.82,0,0,0,3.54.18c3.56,0,7.11.46,10.67.25,4.31-.27,8.62-.07,12.91-.31,3.65-.2,7.3-.19,10.94-.14a47.59,47.59,0,0,1,18,3.39,33.92,33.92,0,0,1,12.8,9.24,36.28,36.28,0,0,1,7,12.43,34.59,34.59,0,0,1,1.51,6.92,41.74,41.74,0,0,1,.45,5.9,46.93,46.93,0,0,1-2.87,16.37,35,35,0,0,1-7.17,11.42,42.49,42.49,0,0,1-11.89,8.83,45.85,45.85,0,0,1-12.46,4.12,82,82,0,0,1-10.84,1.14c-2.51.12-5,.25-7.51.12-6.68-.34-13.36,0-20-.27q-3.42-.12-6.84-.18c-.82,0-.87-.1-.88-.95a7,7,0,0,1,1.25-3.56,1.49,1.49,0,0,1,1-.57c1-.29,2-.1,3-.45.37-.14.76-.2,1.14-.32,2.72-.8,3.42-2.52,3.68-4.73a58.71,58.71,0,0,0,.29-7.5c-.05-5,.43-10,.19-15-.19-3.78-.29-7.57-.13-11.34.21-5,.2-10,.11-15,0-2.77,0-5.54-.22-8.3s-1.36-4.36-3.94-5.15a39.69,39.69,0,0,0-6.57-1.26C471.15,72.34,470.52,72.17,469.69,72.07Zm25.35,32h0q0,12.33,0,24.66a28.58,28.58,0,0,0,.27,4.34,7.18,7.18,0,0,0,4.66,6.05,24.73,24.73,0,0,0,8.34,1.67c1.67,0,3.34,0,5,0a22.67,22.67,0,0,0,9.4-2.25,27.14,27.14,0,0,0,12.17-12,35.75,35.75,0,0,0,3.91-14.9,49.82,49.82,0,0,0-.43-11.82,32.67,32.67,0,0,0-6-14.44,29.76,29.76,0,0,0-12.74-9.71,43.21,43.21,0,0,0-14-2.69c-1.8-.09-3.61,0-5.41,0a11.94,11.94,0,0,0-3.36.56,2.17,2.17,0,0,0-1.53,1.82,16.64,16.64,0,0,0-.27,2.75Q495.06,91.07,495,104.07Z"/><path class="cls-2" d="M589.79,147.09c-1.89,0-3.79.12-5.67,0-3.69-.3-7.39,0-11.07-.28-3.51-.24-7-.1-10.54-.18h-.66c-.54,0-.81-.25-.69-.84a12.56,12.56,0,0,1,1.24-3.46,1.46,1.46,0,0,1,1.28-.76,34.94,34.94,0,0,0,5.55-1,4,4,0,0,0,3.13-3.48,42.19,42.19,0,0,0,.47-6.82c.08-17,.07-34,.07-50.94a12,12,0,0,0-.15-2.23c-.46-2.52-2.19-3.53-4.26-3.85s-4-.67-6-.85c-1.27-.11-1.42-.43-1.06-1.63A13.68,13.68,0,0,1,562.73,68a1.49,1.49,0,0,1,1.78-.8,21.53,21.53,0,0,0,3.67.22,135.13,135.13,0,0,0,14.37.18c6.33-.27,12.66-.22,19-.17a27.61,27.61,0,0,1,12.67,3.1,15.36,15.36,0,0,1,8.61,11.72A16,16,0,0,1,621.2,93a18.62,18.62,0,0,1-7.76,7.49c-.62.33-1.26.64-1.88,1-.15.08-.33.16-.3.38a.44.44,0,0,0,.35.35c.21.07.43.09.64.15a30.07,30.07,0,0,1,9.39,4.38,17.09,17.09,0,0,1,7.25,11.76,21,21,0,0,1-4.72,17,27.23,27.23,0,0,1-7.32,6,39.07,39.07,0,0,1-13.68,4.92c-1.89.31-3.82.49-5.74.67C594.88,147.16,592.34,147,589.79,147.09Zm-4.72-30.2h0c0,1,0,2,0,3-.11,4.26.28,8.51.28,12.78a9,9,0,0,0,1.9,5.11c1.34,1.9,3.38,2.36,5.5,2.7a50.05,50.05,0,0,0,7.24.29,16.28,16.28,0,0,0,8.66-2.35,13.38,13.38,0,0,0,5.65-6.42,20.29,20.29,0,0,0,1.13-11.25,14.6,14.6,0,0,0-8-10.94c-4-2.16-8.36-2.84-12.8-3.09-2.42-.13-4.84,0-7.26,0-2.08,0-2.29.22-2.29,2.25Zm8.7-15.74a38.45,38.45,0,0,0,7.54-.51,9.67,9.67,0,0,0,7.76-6,16,16,0,0,0,1.08-9.13,12.76,12.76,0,0,0-8.71-10.76c-4.37-1.65-8.93-1.7-13.5-1.52-1.75.07-2.46.9-2.6,2.66,0,.35,0,.71,0,1.06q0,7.65-.05,15.29a7.85,7.85,0,0,1,0,1.19,44,44,0,0,0-.16,6.18c0,.95.32,1.3,1.27,1.28C588.86,100.84,591.34,101.31,593.77,101.15Z"/><path class="cls-1" d="M121.46,123.43v14a8.16,8.16,0,0,0,.09,1.31,3.42,3.42,0,0,0,2.44,2.85,26.4,26.4,0,0,0,4.12.84c1.34.21,1.38.25,1.35,1.56,0,.7-.1,1.4-.18,2.1s-.39.89-1.06.85c-1.45-.09-2.9-.07-4.35-.15a151.73,151.73,0,0,0-16,0c-1.45.08-2.9.07-4.36.13-.53,0-.83-.16-.87-.72s-.16-1-.16-1.44c0-1.89.11-2.07,2-2.36a31.31,31.31,0,0,0,3.72-.85,3.51,3.51,0,0,0,2.72-3.05,11.84,11.84,0,0,0,.21-1.57c.44-9.8.32-19.61.26-29.42a3.42,3.42,0,0,0-1.9-3.22,29.7,29.7,0,0,0-5.43-2.35,8.51,8.51,0,0,1-1.48-.56c-1.07-.58-1.12-1.55-.15-2.32a3.85,3.85,0,0,1,2-.68,86.81,86.81,0,0,0,11-2.45c1.7-.47,3.37-1,5-1.64.76-.29.89-.22,1.12.52a4.47,4.47,0,0,1,0,2c-.17,1.27-.17,2.55-.22,3.82,0,.48-.1,1,.43,1.29s1,0,1.43-.33a45.59,45.59,0,0,1,7.93-5,25.72,25.72,0,0,1,6.7-2.32,13.48,13.48,0,0,1,11.56,3.12,18.67,18.67,0,0,1,3.43,4c1,1.43,1,1.43,2.43.38a48.71,48.71,0,0,1,11.42-6.5,16.61,16.61,0,0,1,10.09-.76,14.7,14.7,0,0,1,10.2,8.42,25.9,25.9,0,0,1,2.34,10c.15,2.9.06,5.8,0,8.71q0,7.92-.1,15.84a3.46,3.46,0,0,0,2.58,3.81,25.2,25.2,0,0,0,5,1.2c1.28.22,1.27.23,1.19,1.5-.19,3-.19,3.07-3.19,2.91-7.35-.38-14.69-.33-22,0-1.18,0-1.18,0-1.31-1.17,0-.22-.06-.43-.07-.65-.13-2.19-.07-2.25,2.07-2.75a29.44,29.44,0,0,0,2.92-.83,3.29,3.29,0,0,0,2.29-2.81,18.65,18.65,0,0,0,.22-2.36c.09-6.29.16-12.58.06-18.87a32.66,32.66,0,0,0-.5-6.17,11.1,11.1,0,0,0-12-9.12,20.52,20.52,0,0,0-10.69,4.09,1.66,1.66,0,0,0-.72,1.83,33.89,33.89,0,0,1,.4,6.44q0,11.22,0,22.44c0,3.28.73,4.14,4,4.88,1.15.26,2.31.54,3.48.74a.76.76,0,0,1,.73.88,9.85,9.85,0,0,1-.18,2.36c-.29,1.11-.28,1.12-1.4,1.11-1.36,0-2.73,0-4.09-.08-6.56-.22-13.11,0-19.66.1-1.28,0-1.28,0-1.45-1.26,0-.3-.07-.61-.07-.92,0-1.85.17-2.06,2-2.37,1-.17,2-.35,3-.57,2.3-.5,3.19-1.53,3.36-3.91.1-1.45.2-2.9.23-4.35.14-6,.24-12,0-18.08a20.26,20.26,0,0,0-1.33-7.09,9.89,9.89,0,0,0-8.24-6.53,14.53,14.53,0,0,0-6.25.6,24.3,24.3,0,0,0-6.82,3.39,3.17,3.17,0,0,0-1.38,2.29,11.73,11.73,0,0,0-.07,1.45v13.86Z"/><path class="cls-1" d="M291.15,123.28c.09,5.22,0,9.76.25,14.28,0,.35,0,.71.06,1.06a3,3,0,0,0,2.57,3.06,23.43,23.43,0,0,0,4.42.72c1,.06,1.1.18,1.17,1.18a9.49,9.49,0,0,1-.36,3.13,1,1,0,0,1-1.23.87c-2.2-.13-4.39-.18-6.59-.3-5.77-.29-11.52,0-17.28.23l-.39,0c-1.63.09-1.76,0-1.86-1.71a11.61,11.61,0,0,1,.08-2.5,1,1,0,0,1,1-1,32.2,32.2,0,0,0,4-.76,3.17,3.17,0,0,0,2.64-2.76,47.66,47.66,0,0,0,.38-6.32c.17-8.18.13-16.36.08-24.54a3.15,3.15,0,0,0-1.75-3,29.19,29.19,0,0,0-5.21-2.23,6.25,6.25,0,0,1-1.81-.75,1.67,1.67,0,0,1-.12-2.8,4.08,4.08,0,0,1,2.18-.84,85.24,85.24,0,0,0,11.19-2.47,35.48,35.48,0,0,0,5.12-1.74c.63-.28,1-.11,1.24.47a3.5,3.5,0,0,1,.26,1.68c-.08,1.4-.18,2.81-.27,4.21,0,.31,0,.62,0,.93s-.08.55.19.72.57-.09.8-.27a46,46,0,0,1,6.34-4.49A24.6,24.6,0,0,1,306.83,94a15.08,15.08,0,0,1,14.49,5.42,19.06,19.06,0,0,1,3.94,9.09,43.21,43.21,0,0,1,.59,8.27q0,10.17.21,20.32a13.86,13.86,0,0,0,.05,1.45A2.65,2.65,0,0,0,327.9,141a27.9,27.9,0,0,0,5.61,1.39c1,.15,1,.15,1.08,1.14a8.44,8.44,0,0,1-.27,3c-.33,1.09-.34,1.1-1.47,1.06-2.24-.09-4.48-.16-6.72-.28-5.24-.28-10.47,0-15.7.21l-1.58.08c-1.39,0-1.39,0-1.63-1.41a7.21,7.21,0,0,1,0-2.62c.2-1,.26-1,1.27-1.17s2.26-.32,3.37-.58c2.16-.51,2.67-1.12,2.93-3.32a16.17,16.17,0,0,0,.15-2c0-7.34.16-14.69-.21-22a17.12,17.12,0,0,0-.57-4,10.09,10.09,0,0,0-8.41-7.6,16.22,16.22,0,0,0-12.59,3.06,4.43,4.43,0,0,0-1.95,3.7c-.05,1.45,0,2.9,0,4.35C291.15,117.29,291.15,120.63,291.15,123.28Z"/><path class="cls-2" d="M40.41,110.68c-.8-.07-.89-.73-1.08-1.3L35.94,99.27C33,90.45,30.15,81.6,27.12,72.8c-4.31-12.52-8.41-25.12-12.63-37.67-.22-.67-.37-1.42-1.35-1.3a38.32,38.32,0,0,1,2.91-5A87.37,87.37,0,0,1,32.46,9.68a27.67,27.67,0,0,0,3.29-3,10.1,10.1,0,0,0,2.51-6c0-.17,0-.34.07-.52s0-.06.1-.17a2.74,2.74,0,0,1,.65,1.39c-.07.11-.23.24-.21.32.3,1.12.1,2.28.31,3.39.12.66.12,1.31.19,2,.29,2.62.07,5.27.32,7.87.21,2.25.09,4.48.2,6.71.36,6.93.07,13.88.3,20.81.46,13.49-.1,27,.28,40.47.25,8.66.07,17.31.2,26A3.07,3.07,0,0,1,40.41,110.68Z"/><path class="cls-1" d="M406.65,121.86c-.15-6.91,1.52-13.09,6.13-18.27a27.21,27.21,0,0,1,11.11-7.35A33,33,0,0,1,436.4,94a24,24,0,0,1,23.53,20.42,31.64,31.64,0,0,1-1.2,15.75C456,138,450.6,143.2,442.86,146a28.6,28.6,0,0,1-22.21-.33c-6.73-3.12-10.69-8.52-12.71-15.49a29.91,29.91,0,0,1-1-4.77C406.8,124.21,406.74,123,406.65,121.86ZM449,124c-.07-1.21-.1-2.58-.23-3.93a28.4,28.4,0,0,0-3.47-11.8c-3-5.21-7.36-8.43-13.52-8.84a11.56,11.56,0,0,0-7.52,1.93,13.58,13.58,0,0,0-5.53,8.53,35.24,35.24,0,0,0,.9,18.75,21.68,21.68,0,0,0,5.79,9.61,14.78,14.78,0,0,0,13.24,4c4.47-.81,7.28-3.67,8.79-7.87A33,33,0,0,0,449,124Z"/><path class="cls-1" d="M260,120a27.77,27.77,0,0,1-3,13.64A25.09,25.09,0,0,1,242.72,146a29.27,29.27,0,0,1-11.06,2.11A29,29,0,0,1,220,145.5a22.42,22.42,0,0,1-11.63-13.21A32.33,32.33,0,0,1,207,114.76a23.34,23.34,0,0,1,11.57-16.09A32.83,32.83,0,0,1,236.22,94a23.84,23.84,0,0,1,23.33,19.68,25.58,25.58,0,0,1,.46,3C260.09,117.8,260,118.91,260,120Zm-42.23-2.62c0,.92-.05,1.85,0,2.76a30.52,30.52,0,0,0,3.65,13.24c2.91,5.16,7.08,8.59,13.19,9.14,5.33.47,9.89-2,12-6.74a18.49,18.49,0,0,0,1.22-3.61,38.61,38.61,0,0,0,.57-12.73,27.84,27.84,0,0,0-3.39-11.14c-2.32-4-5.53-7-10.14-8.28-3.89-1-7.66-.92-11.1,1.52a12.81,12.81,0,0,0-4.48,5.75A24.62,24.62,0,0,0,217.8,117.38Z"/><path class="cls-1" d="M41.69,145.82a1.68,1.68,0,0,0,0-.39c-1.54-4.76-1.79-9.71-2.07-14.65h0c0,.12-.09.24-.13.35l0,.1c0,.1-.05.19-.07.28a.29.29,0,0,0,0,.09,2,2,0,0,0-.06.35s0,.06,0,.09l0,.28a.49.49,0,0,1,0,.12c0,.1,0,.19,0,.29s0,.24,0,.37h0c0,.3,0,.6,0,.89-.4,4.37-.9,8.71-1.68,13a18.68,18.68,0,0,1-1.56,5.67h0s-1.33,14.93,2,15.84H41.7s.14-14.17,3.77-17.45c-.28,0-.56-.28-1-.75A9.13,9.13,0,0,1,41.69,145.82Z"/></g></g></svg>