<svg xmlns="http://www.w3.org/2000/svg" viewBox="0 0 500.48 263.27"><defs><style>.cls-1{opacity:0.3;}.cls-2{fill:#1c191a;}</style></defs><title>php-logo</title><g id="Layer_2" data-name="Layer 2"><g id="Layer_1-2" data-name="Layer 1"><g class="cls-1"><path class="cls-2" d="M369.69,92.71H352.23l-9.67,49.78h14.19c10.92,0,19.07-2,24.23-6s8.62-10.74,10.47-20.23c1.72-8.88,1.07-15.08-1.95-18.42S379.75,92.71,369.69,92.71Z"/><path class="cls-2" d="M250.24,0C112,0,0,58.94,0,131.64S112,263.27,250.24,263.27s250.24-58.93,250.24-131.63S388.44,0,250.24,0ZM183.31,153.12a53.48,53.48,0,0,1-20.12,12.06c-7.25,2.36-16.55,3.56-27.65,3.56H113.16l-6.39,32.87a2.7,2.7,0,0,1-2.66,2.2H75.37a2.72,2.72,0,0,1-2.66-3.23L98.35,68.66a2.7,2.7,0,0,1,2.66-2.2h55.26c17.37,0,30.29,4.72,38.42,14s10.69,22.42,7.5,38.85a60.06,60.06,0,0,1-18.88,33.79ZM266,167.75a2.75,2.75,0,0,1-.57-2.24l11.34-58.37c1.08-5.55.82-9.54-.75-11.22-.95-1-3.82-2.76-12.31-2.76H243.14l-14.26,73.38a2.71,2.71,0,0,1-2.66,2.2H197.71a2.72,2.72,0,0,1-2.67-3.23L220.68,33.59a2.71,2.71,0,0,1,2.66-2.2h28.52a2.7,2.7,0,0,1,2.09,1,2.67,2.67,0,0,1,.57,2.24l-6.19,31.84h22.11c16.84,0,28.26,3,34.91,9.08s8.89,16.19,6.28,29.61L299.7,166.54a2.7,2.7,0,0,1-2.66,2.2h-29A2.72,2.72,0,0,1,266,167.75Zm160.5-48.42a60,60,0,0,1-18.87,33.79,53.59,53.59,0,0,1-20.13,12.06c-7.24,2.36-16.54,3.56-27.64,3.56H337.46l-6.39,32.87a2.71,2.71,0,0,1-2.66,2.2H299.67a2.72,2.72,0,0,1-2.67-3.23L322.64,68.66a2.72,2.72,0,0,1,2.67-2.2h55.26c17.37,0,30.29,4.72,38.42,14S429.68,102.9,426.48,119.33Z"/><path class="cls-2" d="M145.39,92.71H127.94l-9.68,49.78h14.19c10.92,0,19.07-2,24.23-6s8.63-10.74,10.47-20.23c1.73-8.88,1.07-15.08-2-18.42S155.45,92.71,145.39,92.71Z"/></g></g></g></svg>