<svg xmlns="http://www.w3.org/2000/svg" viewBox="0 0 397.91 270.94"><defs><style>.cls-1{opacity:0.3;}.cls-2{fill:#1c191a;}</style></defs><title>sql-logo</title><g id="Layer_2" data-name="Layer 2"><g id="Layer_1-2" data-name="Layer 1"><g class="cls-1"><path class="cls-2" d="M95.67,246.74H80.82c-1.45-24.1-2.89-48.06-4.33-72l-1-.12c-.27.8-.56,1.59-.82,2.39-7.16,22.43-14.35,44.85-21.42,67.3-.65,2.05-1.56,2.78-3.65,2.61-2.95-.25-6.64.76-8.66-.67s-2.13-5.16-3-7.92q-9.6-30.21-19.18-60.44c-.32-1-.67-2-1-3H17c-.67,11.92-1.46,23.83-2,35.76s-.77,23.85-1.15,36H0c0-1,0-2.09,0-3.13C1,214.53,3,185.66,6.44,156.91c.19-1.55.7-2.14,2.3-2.11,4.89.09,9.79.11,14.68,0,1.8,0,2.58.54,3.15,2.27q10.18,31.33,20.54,62.62c.23.7.48,1.39.9,2.61.49-1.25.83-2,1.1-2.85,6.83-20.71,13.69-41.4,20.44-62.13.63-1.93,1.46-2.59,3.48-2.53,5.12.15,10.24.05,15.58.05C92.23,185.45,94.85,215.88,95.67,246.74Z"/><path class="cls-2" d="M295,240.76l16.77,8.33-5.88,10.27c-.91-.5-1.69-.9-2.45-1.34-5.73-3.34-11.48-6.65-17.17-10.06a6,6,0,0,0-4.88-.8A44.8,44.8,0,0,1,261,247c-10.06-2.34-16.85-8.5-20.61-18.05-3.84-9.77-4.51-20-4.17-30.33a68.06,68.06,0,0,1,3.87-21.7c5.47-14.78,16.7-22.94,32.47-23.34a51.84,51.84,0,0,1,10.63.78c11.43,2.13,18.92,9.05,22.95,19.8,3.5,9.34,4.18,19.08,3.75,28.91a92.54,92.54,0,0,1-1.49,13.08C306.56,225.58,302.79,234,295,240.76ZM251.9,200.2c0,2.82-.37,5.7.08,8.44a110,110,0,0,0,3.57,16.45c1.94,5.94,6.36,9.79,12.64,11.18,11.11,2.47,19.73-2.47,23.39-13.59,3.34-10.14,3.17-20.59,2.35-31.05-.46-5.81-1.51-11.52-4.17-16.8a16.83,16.83,0,0,0-11.1-9.25c-11.25-3-20.42,2-24.24,13.26C252.06,185.77,251.65,193,251.9,200.2Z"/><path class="cls-2" d="M385.24,123.43a30.54,30.54,0,0,0-2.8-2.55c-1.68-1.21-3.57-2.15-5.19-3.43a66.82,66.82,0,0,0-24.91-12.53,10.87,10.87,0,0,1-7.23-6.34c-4.63-9.73-9.48-19.38-13.65-29.3C323.53,50.42,310.68,35.93,293.6,25c-2.23-1.42-4.65-2.56-6.94-3.89C280.57,17.57,273.81,17,267,16.49a8.68,8.68,0,0,1-4.66-1.83c-4.78-4.08-10.42-6.41-16.21-8.47-1.87-.67-3.87-.85-5.28.86s-.79,3.53.14,5.15a41.16,41.16,0,0,0,3.71,5.57,58.61,58.61,0,0,1,11.36,21.09,82.59,82.59,0,0,0,4.88,12.74,28.78,28.78,0,0,0,4.78,6.59c1.76,2,2.56,4,1.73,6.58-.61,1.89-1.17,3.8-1.83,5.67a45.45,45.45,0,0,0,1.2,34.42c1,2.28,2.18,4.49,5.37,5.18,1.38-8.61,1-17.83,8.87-24.19,6.29,15.88,14,30.9,25.95,43.44-4.91-4.39-9.85-8.76-14.74-13.18-5.07-4.58-8-10.62-10.79-16.75l-.67.16c-.51,3.21-1,6.42-1.54,9.64s-1.49,5.81-4.91,6.79-5.83-.63-7.94-2.92c-5.19-5.62-7.05-12.62-8.05-20-1.35-9.89,1-19.26,3.84-28.6a4.06,4.06,0,0,0-.43-2.88c-2.49-4.36-5.52-8.46-7.61-13-2.18-4.72-3.39-9.87-5.26-14.74a32.35,32.35,0,0,0-3.52-6.52c-2-3-4.52-5.74-6.52-8.78a24.09,24.09,0,0,1-3.45-7.08C233.74,4.8,238.73-.7,245.58.07a37.61,37.61,0,0,1,19.14,8.31A10.18,10.18,0,0,0,271.17,11c9.49.15,17.86,3.45,25.79,8.62,14.78,9.64,27,21.67,36,36.9,2.38,4,4,8.54,6,12.82,3.93,8.41,7.91,16.81,11.82,25.23a9.62,9.62,0,0,0,5.81,5.33c11.65,4.25,21.41,11.55,30.59,19.66,2.13,1.88,3.74,4.37,5.89,6.94-7.91,3.41-16.36,2.59-24.27,5.91a14.88,14.88,0,0,0,2.26,2.82,55.07,55.07,0,0,0,6.57,4.47,50.55,50.55,0,0,1,14.79,12.75c1.73,2.19,3.47,4.36,5.18,6.57.17.21.16.57.36,1.39a39.6,39.6,0,0,0-4.15-3.44c-5-3.09-10.15-5.92-15.08-9.1a161.73,161.73,0,0,1-14.34-10.13c-1.94-1.58-2.92-4.34-4.36-6.56-1.19-1.84-.21-2.7,1.43-3.31a54,54,0,0,1,20.91-3.8c.88,0,1.75,0,2.63,0Z"/><path class="cls-2" d="M224.3,160.5,221,167.88c-4.07-1-7.93-2.38-11.9-2.88a33.21,33.21,0,0,0-11.08.14c-10,2.14-13.1,12.75-6,20.09a37.25,37.25,0,0,0,7.75,5.74c5.48,3.28,11.09,6.34,16.68,9.43,9.41,5.2,14.26,12.9,13.08,23.87-1.14,10.57-7.17,17.48-16.76,21.28-12.7,5-29.48,2.38-40.64-6.27l3.63-7.25c5,1.54,9.72,3.23,14.53,4.37a24.89,24.89,0,0,0,13.28-.53c5-1.57,8.61-4.64,9.79-9.94s-.9-9.63-4.93-13a48,48,0,0,0-6.56-4.47c-5.15-3-10.38-5.91-15.58-8.85-10.33-5.85-14.56-14.13-12.87-25.14,1.58-10.24,8.87-17.81,19.79-20.06a40.7,40.7,0,0,1,29.7,5.08C223.31,159.74,223.68,160.06,224.3,160.5Z"/><path class="cls-2" d="M102,260.88h6.2c5.18,0,9.6-1.61,12.87-5.82,2.42-3.12,3.63-6.66,2.57-10.49q-3.77-13.53-8-26.94c-3.76-12-7.7-24-11.56-36-.25-.77-.44-1.56-.74-2.63,4.85,0,9.4,0,13.94.05a1.87,1.87,0,0,1,1.34,1.11q7.53,25.5,14.94,51.05c.34,1.18.29,2.46.67,3.76,6.92-18,10.95-36.71,13.45-55.83h14.68c-1.23,5.86-2.32,11.54-3.61,17.17-3.92,17.09-8.66,33.92-16.89,49.54C138.31,252.64,134.1,259,128.2,264c-6.82,5.83-14.41,8.69-23.46,5.7-2-.66-3.12-1.46-2.82-3.78A39.18,39.18,0,0,0,102,260.88Z"/><path class="cls-2" d="M366.74,246.7H323.36V155.09h14.51v80.34h28.87Z"/><path class="cls-2" d="M268.06,28.16c3.81-1.28,5.91-.49,7.65,2.79,1.31,2.47.74,4.79-1.62,6.64C272.08,34.46,270.08,31.32,268.06,28.16Z"/></g></g></g></svg>