<svg xmlns="http://www.w3.org/2000/svg" viewBox="0 0 521.63 506.04"><defs><style>.cls-1{fill:#fc4949;}.cls-2{fill:#fff;}.cls-3{fill:#dd975e;}.cls-4{fill:#bc752f;}</style></defs><title>Asset 62</title><g id="Layer_2" data-name="Layer 2"><g id="Layer_1-2" data-name="Layer 1"><path class="cls-1" d="M133.06,97H49.76A19.33,19.33,0,0,1,30.43,77.63V19.33A19.32,19.32,0,0,1,49.76,0h55.82a19.33,19.33,0,0,1,17.49,11.09l27.47,58.3A19.33,19.33,0,0,1,133.06,97Z"/><rect class="cls-2" x="378.42" y="214.43" width="7.01" height="225.66" rx="2.11" ry="2.11"/><rect class="cls-2" x="140.41" y="214.43" width="7.01" height="225.66" rx="2.11" ry="2.11"/><g id="_Group_" data-name="&lt;Group&gt;"><path class="cls-1" d="M495.6,86.91c16.68,15.88,26,33.71,26,52.56s-9.35,36.68-26,52.56Z"/><path class="cls-1" d="M495.6,86.91V192C467.78,123.08,495.6,86.91,495.6,86.91Z"/><path class="cls-2" d="M495.6,192h0c-42.24,40.25-131.51,68-234.79,68-144,0-260.81-54-260.81-120.58S116.77,18.89,260.81,18.89c103.28,0,192.55,27.76,234.79,68C495.6,86.91,467.78,123.08,495.6,192Z"/></g><path class="cls-2" d="M509.42,7.76a1.5,1.5,0,0,0,0-3,1.5,1.5,0,0,0,0,3Z"/><path class="cls-1" d="M133.06,151.89H49.76a19.33,19.33,0,0,0-19.33,19.33v58.3a19.32,19.32,0,0,0,19.33,19.33h55.82a19.33,19.33,0,0,0,17.49-11.09l27.47-58.3A19.33,19.33,0,0,0,133.06,151.89Z"/><path class="cls-3" d="M397.38,413c7.5,0,9.91,8.3,5.6,17.89H118.65c-4.31-9.59-1.9-17.89,5.6-17.89Z"/><path class="cls-4" d="M403,430.92l-29.15,64.86c-2.59,5.75-9,10.26-14.46,10.26H162.25c-5.41,0-11.87-4.51-14.45-10.26l-29.15-64.86Z"/></g></g></svg>