<svg xmlns="http://www.w3.org/2000/svg" viewBox="0 0 72.76 32.45"><defs><style>.cls-1{fill:#fff;}.cls-2{fill:none;stroke:#fff;stroke-miterlimit:10;stroke-width:3px;}</style></defs><title>Asset 89</title><g id="Layer_2" data-name="Layer 2"><g id="Layer_1-2" data-name="Layer 1"><rect class="cls-1" x="1.5" y="1.5" width="55.26" height="29.45" rx="3.57" ry="3.57"/><path class="cls-2" d="M68.64,7.82H66.91a1.27,1.27,0,0,1-1.27-1.27V5.35A3.86,3.86,0,0,0,61.79,1.5H5.35A3.86,3.86,0,0,0,1.5,5.35V27.1A3.86,3.86,0,0,0,5.35,31H61.79a3.86,3.86,0,0,0,3.85-3.85V25.87a1.25,1.25,0,0,1,1.24-1.25h1.76A2.63,2.63,0,0,0,71.26,22V10.45A2.64,2.64,0,0,0,68.64,7.82Z"/></g></g></svg>