<svg xmlns="http://www.w3.org/2000/svg" viewBox="0 0 120.45 104.57"><defs><style>.cls-1{fill:#ffc239;}.cls-2{fill:#fff53b;}.cls-3{fill:#fff;}.cls-4{fill:#0c0c0c;}</style></defs><title>Asset 51</title><g id="Layer_2" data-name="Layer 2"><g id="Layer_1-2" data-name="Layer 1"><rect class="cls-1" x="51.07" y="90.65" width="2.6" height="11.32"/><ellipse class="cls-1" cx="51.47" cy="102.19" rx="3.72" ry="2.38"/><rect class="cls-1" x="66.35" y="90.65" width="2.6" height="11.32"/><ellipse class="cls-1" cx="66.76" cy="102.19" rx="3.72" ry="2.38"/><path class="cls-2" d="M69.48,32.79c-3.29-4.12-6.46-8.33-10-12.23C54.24,14.83,47.54,11.72,40,10.2a31.69,31.69,0,0,0-8.19-.53c1.44-3.15,2.18-6.49,4.62-9A.72.72,0,0,0,36.65,0h-1.3c.25.35-.12.33-.26.36-3.87.92-6.19,3.48-7.54,7.09a5.14,5.14,0,0,1-.23.51c-.91-1.25-1.57-2.59-2.84-3.39a7.42,7.42,0,0,0-4.59-.79c2.66,1.89,2.84,5,4.67,7.09.47.54-.1.58-.37.7a23.68,23.68,0,0,0-4.48,2.83A29.62,29.62,0,0,0,9.27,30.07C8.9,33.31,8.59,36.55,8,39.76c-.41,15.61,9,39.65,30,50A57.17,57.17,0,0,0,50.57,94.2l1.83.37a69.1,69.1,0,0,0,10.27.65l2-.14a51.3,51.3,0,0,0,18.65-5.27A48.1,48.1,0,0,0,97.2,79.3C104.15,74.35,69.48,32.79,69.48,32.79Z"/><path class="cls-1" d="M0,33.83a33.28,33.28,0,0,0,4.49-1.78c1.6-.63,3.19-1.32,4.78-2C8.9,33.31,8.59,36.55,8,39.76L0,34.05Z"/><path class="cls-1" d="M120.36,57c.22.31,0,.53-.17.74-2.92,4.74-5.75,9.53-9.37,13.78-3.28,3.83-6.77,7.42-11.42,9.65a4.16,4.16,0,0,0-.68.51,1.5,1.5,0,0,0-.52,0c-5.92,2.33-12,2.34-18.1,1A43.1,43.1,0,0,1,57.38,69.79,28,28,0,0,1,49.84,53a22,22,0,0,1,1.33-10.83c2-4.95,7.78-8.84,13-8.79a12.47,12.47,0,0,1,5.6,1.45c.37.18.71.56,1.2.3a6,6,0,0,0,1.42,1.14,30.82,30.82,0,0,1,5.08,4,109.29,109.29,0,0,0,9.42,8.31,47.7,47.7,0,0,0,24.16,9.55,21.09,21.09,0,0,0,7.81-.85C119.38,57.2,119.87,57.1,120.36,57Z"/><rect class="cls-3" x="19.65" y="26.06" width="12.5" height="14.42" rx="3.22" ry="3.22"/><circle class="cls-4" cx="23.02" cy="33.27" r="3.36"/></g></g></svg>