<svg xmlns="http://www.w3.org/2000/svg" viewBox="0 0 940.98 73.07"><defs><style>.cls-1{fill:#8d6042;}.cls-2{fill:#fff;}</style></defs><title>Asset 25</title><g id="Layer_2" data-name="Layer 2"><g id="Layer_1-2" data-name="Layer 1"><rect class="cls-1" x="433.96" y="-433.96" width="73.07" height="940.98" transform="translate(507.03 -433.96) rotate(90)"/><path class="cls-2" d="M364.19,28.47V27.6h2.26v1c0,1.08.48,1.48,1.24,1.48s1.24-.4,1.24-1.53-.47-2.06-2-3.43c-2-1.77-2.66-3-2.66-4.75,0-2.39,1.25-3.78,3.57-3.78s3.48,1.39,3.48,3.83v.63H369v-.79c0-1.08-.43-1.5-1.2-1.5s-1.19.42-1.19,1.46.5,1.91,2.06,3.29c2,1.76,2.64,3,2.64,4.87,0,2.48-1.26,3.87-3.61,3.87S364.19,30.91,364.19,28.47Z"/><path class="cls-2" d="M372.7,16.85h2.39v6.2h2.57v-6.2h2.39V32.08h-2.39V25.23h-2.57v6.85H372.7Z"/><path class="cls-2" d="M381.84,16.85h6.53V19h-4.14v4h3.29v2.18h-3.29v4.68h4.14v2.17h-6.53Z"/><path class="cls-2" d="M389.74,16.85h2.39V29.91h3.94v2.17h-6.33Z"/><path class="cls-2" d="M397.22,16.85h6.34V19h-3.94v4.24h3.09v2.18h-3.09v6.63h-2.4Z"/><path class="cls-2" d="M408,28.47v-8c0-2.44,1.28-3.83,3.63-3.83s3.63,1.39,3.63,3.83v8c0,2.44-1.28,3.83-3.63,3.83S408,30.91,408,28.47Zm4.87.16V20.31c0-1.08-.48-1.5-1.24-1.5s-1.24.42-1.24,1.5v8.32c0,1.08.48,1.5,1.24,1.5S412.89,29.71,412.89,28.63Z"/><path class="cls-2" d="M416.89,16.85h6.34V19h-3.94v4.24h3.09v2.18h-3.09v6.63h-2.4Z"/><path class="cls-2" d="M427.86,16.85h3.53c2.39,0,3.56,1.33,3.56,3.77v1.5c0,2.44-1.17,3.76-3.56,3.76h-1.14v6.2h-2.39Zm3.53,6.86c.76,0,1.17-.35,1.17-1.44v-1.8c0-1.09-.41-1.44-1.17-1.44h-1.14v4.68Z"/><path class="cls-2" d="M436.26,16.85h6.53V19h-4.14v4h3.29v2.18h-3.29v4.68h4.14v2.17h-6.53Z"/><path class="cls-2" d="M444.16,16.85h3.55c2.48,0,3.54,1.16,3.54,3.51v.93c0,1.57-.5,2.57-1.56,3v0c1.19.37,1.59,1.5,1.59,3.22v2.68a4.44,4.44,0,0,0,.26,1.84H449.1a4.66,4.66,0,0,1-.22-1.87V27.43c0-1.42-.41-1.87-1.5-1.87h-.83v6.52h-2.39Zm3.26,6.53c.9,0,1.44-.39,1.44-1.61V20.6c0-1.09-.37-1.57-1.22-1.57h-1.09v4.35Z"/><path class="cls-2" d="M452.52,28.47V27.6h2.26v1c0,1.08.48,1.48,1.24,1.48s1.24-.4,1.24-1.53-.48-2.06-2.05-3.43c-2-1.77-2.65-3-2.65-4.75,0-2.39,1.24-3.78,3.57-3.78s3.48,1.39,3.48,3.83v.63h-2.26v-.79c0-1.08-.44-1.5-1.2-1.5s-1.2.42-1.2,1.46.5,1.91,2.07,3.29c2,1.76,2.63,3,2.63,4.87,0,2.48-1.26,3.87-3.61,3.87S452.52,30.91,452.52,28.47Z"/><path class="cls-2" d="M460.85,28.47v-8c0-2.44,1.28-3.83,3.63-3.83s3.64,1.39,3.64,3.83v8c0,2.44-1.29,3.83-3.64,3.83S460.85,30.91,460.85,28.47Zm4.87.16V20.31c0-1.08-.47-1.5-1.24-1.5s-1.24.42-1.24,1.5v8.32c0,1.08.48,1.5,1.24,1.5S465.72,29.71,465.72,28.63Z"/><path class="cls-2" d="M469.73,16.85h3L475.06,26h0V16.85h2.14V32.08h-2.46L471.9,21h0V32.08h-2.13Z"/><path class="cls-2" d="M480.87,16.85h3.24l2.48,15.23H484.2l-.44-3v0H481l-.43,3h-2.22ZM483.48,27l-1.07-7.53h0l-1,7.53Z"/><path class="cls-2" d="M487.75,16.85h2.39V29.91h3.94v2.17h-6.33Z"/><path class="cls-2" d="M498.71,16.85h6.53V19h-4.13v4h3.28v2.18h-3.28v4.68h4.13v2.17h-6.53Z"/><path class="cls-2" d="M508.77,24.3l-2.64-7.45h2.53l1.61,4.92h0L512,16.85h2.26L511.6,24.3l2.76,7.78h-2.53l-1.74-5.3h0l-1.78,5.3H506Z"/><path class="cls-2" d="M515.49,16.85H519c2.39,0,3.56,1.33,3.56,3.77v1.5c0,2.44-1.17,3.76-3.56,3.76h-1.14v6.2h-2.39ZM519,23.71c.76,0,1.17-.35,1.17-1.44v-1.8c0-1.09-.41-1.44-1.17-1.44h-1.14v4.68Z"/><path class="cls-2" d="M523.89,16.85h6.53V19h-4.14v4h3.29v2.18h-3.29v4.68h4.14v2.17h-6.53Z"/><path class="cls-2" d="M531.79,16.85h3.55c2.48,0,3.54,1.16,3.54,3.51v.93c0,1.57-.5,2.57-1.56,3v0c1.19.37,1.58,1.5,1.58,3.22v2.68a4.43,4.43,0,0,0,.27,1.84h-2.44a4.66,4.66,0,0,1-.22-1.87V27.43c0-1.42-.41-1.87-1.5-1.87h-.83v6.52h-2.39Zm3.26,6.53c.9,0,1.44-.39,1.44-1.61V20.6c0-1.09-.37-1.57-1.22-1.57h-1.09v4.35Z"/><path class="cls-2" d="M540.56,16.85H543V32.08h-2.39Z"/><path class="cls-2" d="M544.74,16.85h6.53V19h-4.14v4h3.29v2.18h-3.29v4.68h4.14v2.17h-6.53Z"/><path class="cls-2" d="M552.64,16.85h3L558,26h0V16.85h2.13V32.08h-2.45L554.81,21h0V32.08h-2.13Z"/><path class="cls-2" d="M561.78,28.56V20.38c0-2.35,1.21-3.74,3.52-3.74s3.53,1.39,3.53,3.74V22h-2.27V20.23c0-1-.48-1.42-1.19-1.42s-1.2.42-1.2,1.42v8.5c0,1,.48,1.4,1.2,1.4s1.19-.4,1.19-1.4V26.41h2.27v2.15c0,2.35-1.22,3.74-3.53,3.74S561.78,30.91,561.78,28.56Z"/><path class="cls-2" d="M570.26,16.85h6.53V19h-4.13v4h3.28v2.18h-3.28v4.68h4.13v2.17h-6.53Z"/><path class="cls-2" d="M379.61,47a3.24,3.24,0,0,0,1.42-.28,4.81,4.81,0,0,0,1.26-.89l1,1.06a4.75,4.75,0,0,1-3.67,1.67,4.91,4.91,0,0,1-3.57-1.38,4.7,4.7,0,0,1-1.42-3.51,4.76,4.76,0,0,1,1.44-3.54,5,5,0,0,1,3.66-1.41,4.78,4.78,0,0,1,3.7,1.63l-1,1.11a4.89,4.89,0,0,0-1.29-.91,3.64,3.64,0,0,0-1.42-.25,3.38,3.38,0,0,0-2.42.93,3.11,3.11,0,0,0-1,2.38,3.29,3.29,0,0,0,1,2.42A3.15,3.15,0,0,0,379.61,47Z"/><path class="cls-2" d="M386.58,48.41h-1.52V38.31h1.52Z"/><path class="cls-2" d="M388.88,39.73a1,1,0,0,1,0-1.36,1,1,0,1,1,1.36,1.36,1,1,0,0,1-1.36,0Zm1.43,8.68h-1.52V41.17h1.52Z"/><path class="cls-2" d="M395.72,48.51a3.65,3.65,0,0,1-2.59-1,3.83,3.83,0,0,1,0-5.39,4,4,0,0,1,2.77-1,3.76,3.76,0,0,1,2.76,1.13l-.9,1.1a2.88,2.88,0,0,0-1.89-.81,2.4,2.4,0,0,0-1.65.63,2.08,2.08,0,0,0-.7,1.63,2.29,2.29,0,0,0,.69,1.69,2.32,2.32,0,0,0,1.71.7,2.64,2.64,0,0,0,1.91-.93l.9,1A4.17,4.17,0,0,1,395.72,48.51Z"/><path class="cls-2" d="M401.87,48.41h-1.52V38.31h1.52v5.93l2.94-3.07h2L404,44l3,4.37h-1.85L403,45.24l-1.1,1.11Z"/><path class="cls-2" d="M418,47.43a4,4,0,0,1-5.44,0,3.75,3.75,0,0,1,0-5.29,4,4,0,0,1,5.44,0,3.75,3.75,0,0,1,0,5.29Zm-4.36-.94a2.37,2.37,0,0,0,3.28,0,2.32,2.32,0,0,0,.64-1.7,2.34,2.34,0,0,0-.64-1.71,2.37,2.37,0,0,0-3.28,0,2.35,2.35,0,0,0-.65,1.71A2.32,2.32,0,0,0,413.67,46.49Z"/><path class="cls-2" d="M422.37,44.49v3.92h-1.53V41.17h1.53v1.32a2.75,2.75,0,0,1,1-1.05,2.71,2.71,0,0,1,1.39-.38,2.68,2.68,0,0,1,2,.75,2.89,2.89,0,0,1,.76,2.16v4.44H426v-4c0-1.33-.55-2-1.66-2A2,2,0,0,0,423,43,2,2,0,0,0,422.37,44.49Z"/><path class="cls-2" d="M437.23,41.06a3.45,3.45,0,0,1,2.49,1,3.56,3.56,0,0,1,1,2.68,3.74,3.74,0,0,1-1,2.72,3.26,3.26,0,0,1-2.4,1,3.22,3.22,0,0,1-2.45-1.19v1.09h-1.53V38.31h1.53v4.12A2.72,2.72,0,0,1,437.23,41.06Zm-2.38,3.74a2.34,2.34,0,0,0,.63,1.69,2,2,0,0,0,1.52.66,2.12,2.12,0,0,0,1.56-.65,2.24,2.24,0,0,0,.67-1.69,2.43,2.43,0,0,0-.65-1.73,2.09,2.09,0,0,0-1.57-.69,2,2,0,0,0-1.53.69A2.45,2.45,0,0,0,434.85,44.8Z"/><path class="cls-2" d="M448.55,47.43a4,4,0,0,1-5.44,0,3.75,3.75,0,0,1,0-5.29,4,4,0,0,1,5.44,0,3.75,3.75,0,0,1,0,5.29Zm-4.36-.94a2.18,2.18,0,0,0,1.64.66,2.22,2.22,0,0,0,1.64-.66,2.32,2.32,0,0,0,.64-1.7,2.34,2.34,0,0,0-.64-1.71,2.22,2.22,0,0,0-1.64-.66,2.18,2.18,0,0,0-1.64.66,2.35,2.35,0,0,0-.65,1.71A2.32,2.32,0,0,0,444.19,46.49Z"/><path class="cls-2" d="M457.41,47.43a4,4,0,0,1-5.44,0,3.78,3.78,0,0,1,0-5.29,4,4,0,0,1,5.44,0,3.75,3.75,0,0,1,0,5.29Zm-4.35-.94a2.36,2.36,0,0,0,3.27,0,2.32,2.32,0,0,0,.65-1.7,2.35,2.35,0,0,0-.65-1.71,2.36,2.36,0,0,0-3.27,0,2.31,2.31,0,0,0-.65,1.71A2.28,2.28,0,0,0,453.06,46.49Z"/><path class="cls-2" d="M461.75,48.41h-1.52V38.31h1.52v5.93l2.94-3.07h2L463.9,44l3,4.37H465l-2.15-3.17-1.1,1.11Z"/><path class="cls-2" d="M473.73,42.39v3.68a1.21,1.21,0,0,0,.28.82,1,1,0,0,0,.76.31,1.29,1.29,0,0,0,.94-.48l.62,1.07a2.57,2.57,0,0,1-1.77.72,2.28,2.28,0,0,1-1.66-.67,2.41,2.41,0,0,1-.69-1.81V42.39h-.91V41.17h.91V38.9h1.52v2.27h1.91v1.22Z"/><path class="cls-2" d="M483.54,47.43a4,4,0,0,1-5.44,0,3.75,3.75,0,0,1,0-5.29,4,4,0,0,1,5.44,0,3.75,3.75,0,0,1,0,5.29Zm-4.36-.94a2.37,2.37,0,0,0,3.28,0,2.32,2.32,0,0,0,.64-1.7,2.34,2.34,0,0,0-.64-1.71,2.37,2.37,0,0,0-3.28,0,2.35,2.35,0,0,0-.65,1.71A2.32,2.32,0,0,0,479.18,46.49Z"/><path class="cls-2" d="M491.6,48.41h-1.52V38.31h1.52v5.93l2.94-3.07h2L493.75,44l3,4.37h-1.86l-2.14-3.17-1.11,1.11Z"/><path class="cls-2" d="M499.51,44.49v3.92H498V41.17h1.53v1.32a2.75,2.75,0,0,1,1-1.05,2.71,2.71,0,0,1,1.39-.38,2.68,2.68,0,0,1,2,.75,2.89,2.89,0,0,1,.76,2.16v4.44h-1.53v-4c0-1.33-.55-2-1.66-2a2,2,0,0,0-1.37.53A2,2,0,0,0,499.51,44.49Z"/><path class="cls-2" d="M512.82,47.43a4,4,0,0,1-5.44,0,3.75,3.75,0,0,1,0-5.29,4,4,0,0,1,5.44,0,3.75,3.75,0,0,1,0,5.29Zm-4.36-.94a2.37,2.37,0,0,0,3.28,0,2.32,2.32,0,0,0,.65-1.7,2.35,2.35,0,0,0-.65-1.71,2.37,2.37,0,0,0-3.28,0,2.34,2.34,0,0,0-.64,1.71A2.32,2.32,0,0,0,508.46,46.49Z"/><path class="cls-2" d="M518.93,48.41h-1.74l-2.5-7.24h1.57l1.8,5.47,1.79-5.47h1.58l1.8,5.47L525,41.17h1.58l-2.5,7.24h-1.74l-1.72-5Z"/><path class="cls-2" d="M533.19,44.49v3.92h-1.52V41.17h1.52v1.32a2.5,2.5,0,0,1,1-1.05,2.82,2.82,0,0,1,1.42-.38,2.3,2.3,0,0,1,2.33,1.42,3.23,3.23,0,0,1,2.68-1.42,2.71,2.71,0,0,1,2,.75,2.92,2.92,0,0,1,.75,2.16v4.44h-1.52v-4c0-1.33-.56-2-1.66-2a2,2,0,0,0-1.35.5,1.88,1.88,0,0,0-.61,1.45v4h-1.52v-4a2.54,2.54,0,0,0-.37-1.51,1.38,1.38,0,0,0-1.16-.49,2,2,0,0,0-1.37.53A2,2,0,0,0,533.19,44.49Z"/><path class="cls-2" d="M551.52,47.43a4,4,0,0,1-5.45,0,3.78,3.78,0,0,1,0-5.29,4,4,0,0,1,5.45,0,3.78,3.78,0,0,1,0,5.29Zm-4.36-.94a2.36,2.36,0,0,0,3.27,0,2.32,2.32,0,0,0,.65-1.7,2.35,2.35,0,0,0-.65-1.71,2.36,2.36,0,0,0-3.27,0,2.35,2.35,0,0,0-.65,1.71A2.32,2.32,0,0,0,547.16,46.49Z"/><path class="cls-2" d="M558.12,42.6a2,2,0,0,0-1.7.73,3.14,3.14,0,0,0-.57,2v3.11h-1.52V41.17h1.52v1.46a3.18,3.18,0,0,1,1-1.12,2.42,2.42,0,0,1,1.34-.45l0,1.54Z"/><path class="cls-2" d="M566.46,45.45h-5.67a1.69,1.69,0,0,0,.72,1.28,2.8,2.8,0,0,0,3.59-.38l.87.95a4,4,0,0,1-3,1.21,3.63,3.63,0,0,1-2.6-1,3.56,3.56,0,0,1-1.06-2.72,3.52,3.52,0,0,1,1.08-2.71,3.67,3.67,0,0,1,2.57-1,3.74,3.74,0,0,1,2.51.89,3.07,3.07,0,0,1,1,2.46Zm-5.67-1.19h4.15a1.73,1.73,0,0,0-.57-1.4,2.07,2.07,0,0,0-1.41-.49,2.39,2.39,0,0,0-1.5.51A1.63,1.63,0,0,0,560.79,44.26Z"/></g></g></svg>