<svg xmlns="http://www.w3.org/2000/svg" viewBox="0 0 170 280"><defs><style>.cls-1,.cls-10,.cls-7,.cls-8,.cls-9{fill:none;}.cls-2{fill:#c4c4c4;}.cls-3{fill:#ffdfc2;}.cls-4{fill:#0c0c0c;}.cls-5{fill:#fff;}.cls-6{fill:#3a3a3a;}.cls-7{stroke:#fff;stroke-width:5px;}.cls-10,.cls-7,.cls-8,.cls-9{stroke-miterlimit:10;}.cls-10,.cls-8,.cls-9{stroke:#0c0c0c;stroke-linecap:round;}.cls-8{stroke-width:8px;}.cls-9{stroke-width:7.99px;}.cls-10{stroke-width:12.42px;}</style></defs><title>Asset 71</title><g id="Layer_2" data-name="Layer 2"><g id="Layer_1-2" data-name="Layer 1"><rect class="cls-1" width="170" height="279.91"/><rect class="cls-2" x="119.16" y="164.6" width="17" height="59" transform="translate(-82.34 94.74) rotate(-31.35)"/><circle class="cls-3" cx="143.2" cy="218.28" r="10.9"/><rect class="cls-4" x="81.41" y="214.65" width="14.91" height="11.9" rx="0.5" ry="0.5"/><rect class="cls-5" x="98.18" y="277.71" width="20.64" height="1.15" transform="translate(217 556.56) rotate(-180)"/><rect class="cls-3" x="98.18" y="261.66" width="9.18" height="11.47" rx="0.82" ry="0.82" transform="translate(205.53 534.78) rotate(-180)"/><path class="cls-4" d="M99,272h19a.84.84,0,0,1,.84.84V280a0,0,0,0,1,0,0H102.3a4.13,4.13,0,0,1-4.13-4.13v-3.06A.84.84,0,0,1,99,272Z" transform="translate(217 551.97) rotate(180)"/><rect class="cls-6" x="98.18" y="277.71" width="20.64" height="2.29" rx="0.5" ry="0.5" transform="translate(217 557.71) rotate(-180)"/><rect class="cls-5" x="58.91" y="277.71" width="20.64" height="1.15"/><rect class="cls-3" x="70.38" y="261.66" width="9.18" height="11.47" rx="0.82" ry="0.82"/><path class="cls-4" d="M63,272H79.56a0,0,0,0,1,0,0v7.19a.84.84,0,0,1-.84.84h-19a.84.84,0,0,1-.84-.84V276.1A4.13,4.13,0,0,1,63,272Z"/><rect class="cls-6" x="58.91" y="277.71" width="20.64" height="2.29" rx="0.5" ry="0.5"/><rect class="cls-4" x="94.73" y="214.65" width="16.06" height="52.74" rx="8.03" ry="8.03"/><rect class="cls-4" x="66.94" y="214.65" width="16.06" height="52.74" rx="8.03" ry="8.03"/><rect class="cls-5" x="80.27" y="166.49" width="22.94" height="50.45" rx="0.71" ry="0.71"/><path class="cls-2" d="M102.59,165.35h12.52a.71.71,0,0,1,.71.71v57.06a.71.71,0,0,1-.71.71H97a.71.71,0,0,1-.71-.71v-51.5A6.26,6.26,0,0,1,102.59,165.35Z" transform="translate(212.14 389.16) rotate(-180)"/><path class="cls-2" d="M62.62,165.35H80.7a.71.71,0,0,1,.71.71v57.06a.71.71,0,0,1-.71.71H68.18a6.26,6.26,0,0,1-6.26-6.26v-51.5A.71.71,0,0,1,62.62,165.35Z"/><rect class="cls-2" x="19.3" y="185.61" width="59" height="17" transform="translate(-142.36 134.81) rotate(-58.65)"/><line class="cls-7" x1="50.71" y1="174.65" x2="65.28" y2="183.4"/><line class="cls-7" x1="45.49" y1="182.82" x2="60.06" y2="191.57"/><circle class="cls-3" cx="33.26" cy="218.28" r="10.9"/><path class="cls-3" d="M123.85,78.19H52.75c-13.06,0-22.06,11.57-20.13,24.84l7.11,48.79a23.29,23.29,0,0,0,2.61,7.46v0c7,13.22,25.45,23.46,45.95,23.46s39-10.24,45.94-23.46l0,0a23.29,23.29,0,0,0,2.61-7.46L144,103C145.9,89.76,136.9,78.19,123.85,78.19Z"/><rect class="cls-5" x="100.93" y="118.37" width="19.75" height="22.78" rx="5.08" ry="5.08"/><circle class="cls-4" cx="110.25" cy="129.75" r="5.32"/><rect class="cls-5" x="59.92" y="118.37" width="19.75" height="22.78" rx="5.08" ry="5.08"/><circle class="cls-4" cx="69.24" cy="129.75" r="5.32"/><path class="cls-8" d="M42,99.21s5.52,11.11,30.41,8.53"/><path class="cls-4" d="M162.74,62.88c4.38,28.12-27.22,50.61-73.29,49.85-40.48-.66-73.3-22.32-73.3-49.85S49,13,89.45,13,158.5,35.65,162.74,62.88Z"/><path class="cls-9" d="M17.67,37.87c16.65-15,27.76-19.66,35.18-16.77"/><path class="cls-10" d="M53.17,23.58s3.74-16.85,50-8.56"/><path class="cls-4" d="M34.09,31.82a4,4,0,0,0-6.56-4C16,37.86-.19,59.93,19.68,95.81c26.73,48.28,10.16-27.17,8.07-36.44a4,4,0,0,1,0-1.84Z"/><path class="cls-4" d="M28.54,88.24a4,4,0,0,0-1.17,3.42c.86,6.12,3.51,24.17,5,25,1,.56,4.06.52,6.68.37a4,4,0,0,0,3.81-4.32L40.8,85.51a4,4,0,0,0-6.86-2.57Z"/><path class="cls-4" d="M155.25,67.87,144.2,124.43a4,4,0,0,1-4,3.26h0a4,4,0,0,1-4-4V93.05"/><path class="cls-9" d="M74.5,106.31s7.56,9.79,31.48,2.44"/><path class="cls-9" d="M107.46,104.12S116.1,113,139,103"/><path class="cls-4" d="M156.15,62.71s9,20.05-8,41.51"/><path class="cls-10" d="M94,26.16s9.1-14.66,50,8.46"/><ellipse class="cls-3" cx="40.15" cy="125.19" rx="11" ry="13.5"/><ellipse class="cls-3" cx="140.2" cy="126.46" rx="11" ry="13.5"/></g></g></svg>