<svg xmlns="http://www.w3.org/2000/svg" viewBox="0 0 138.28 62.85"><defs><style>.cls-1{fill:#fff;}</style></defs><title>Asset 60</title><g id="Layer_2" data-name="Layer 2"><g id="Layer_1-2" data-name="Layer 1"><path class="cls-1" d="M31.26,0,78.18.41c.61.4,1.24.77,1.82,1.2,5.32,4,7.12,9.44,5.08,15.31-1.75,5-5.86,7.52-12.54,7.57-3.82,0-7.65-.11-11.47.05-4.63.18-7,2.73-6.77,7.39.23,4.29,2.41,6.68,6.94,6.64,10.74-.09,21.48-.11,32.22-.16s21.44.09,32.16.18c8,.07,12.65,4.64,12.66,12.39,0,7.51-4.45,11.88-12.45,11.87q-54.78-.06-109.58-.24c-6.36-4-8.39-8-7.3-14.36,1-5.59,4.3-8.49,11.36-9.89,2.71.06,5.41.07,8.11.18,5,.21,6.8-2.84,6.81-7.12s-1.94-6.89-6.54-6.88c-2,0-4,0-6,0-3.81,0-7.63.06-11.43-.07C4.47,24.25,0,19.48,0,12.45S4.39.44,11.11.23,24.54.07,31.26,0Z"/></g></g></svg>