<svg xmlns="http://www.w3.org/2000/svg" viewBox="0 0 116.25 82.33"><defs><style>.cls-1{fill:#fff;}</style></defs><title>Asset 61</title><g id="Layer_2" data-name="Layer 2"><g id="Layer_1-2" data-name="Layer 1"><path class="cls-1" d="M103.79,53q-26.33-.12-52.65-.22c-3.8,0-5.47,2.23-5.46,5.87s1.53,5.83,5.4,5.9c1.68,0,3.37,0,5,0,5.13.31,8.59,3.9,8.62,8.85A8.51,8.51,0,0,1,56,82.09c-13.28.17-26.56.17-39.84.24-1.79-.07-3.59-.19-5.4-.21C2.82,82-.16,78.86.23,71c.9-1.45,1.79-2.91,2.69-4.37,4-3.14,8.74-1.87,13.2-2C20,64.46,22,62.8,22,58.8s-1.7-6-5.7-6c-1.82,0-3.64.07-5.46.11C2.74,51.85-.42,48.47,0,41.3c.39-6,4.3-8.91,11.92-8.95,1.21,0,2.42-.15,3.63-.23l33,.09h.94l2.81-.09c2.58.06,5.17.23,7.76.17,4.39-.1,6.15-2,6.08-6.15-.07-4-2.19-5.76-6.09-5.65-2.59.07-5.18.07-7.77.11C43.48,17.09,41.66,10.79,47,2.23A16.22,16.22,0,0,1,56.11,0C70,.15,83.92,0,97.83.05c7.2,0,11.11,3.74,11.06,10.4,0,6.27-4.1,10-11,10-3.81,0-7.6-.18-8,5.09-.37,4.42,1.48,6.51,6,6.76,5.59.31,11.31-1,16.73,1.37,1.76,2.43,3.59,4.75,3.75,8C116.58,48.8,112.92,52.2,103.79,53Z"/></g></g></svg>