<svg xmlns="http://www.w3.org/2000/svg" viewBox="0 0 135.33 145"><defs><style>.cls-1{fill:#a0a0a0;}.cls-2{fill:#7c7c7c;}.cls-3{fill:#fff;}.cls-4{fill:#d98b37;}.cls-5{fill:#f2f2f2;}.cls-6{fill:#d6d7d8;}.cls-7{fill:#f69777;}.cls-8{fill:#baff78;}.cls-9{fill:#d6d6d6;}.cls-10{fill:#ddd;}.cls-11{fill:#ffd55c;stroke:#ffd55c;stroke-miterlimit:10;}.cls-12{fill:#e5e5e5;}.cls-13{fill:#bfc0c1;}</style></defs><title>Asset 12</title><g id="Layer_2" data-name="Layer 2"><g id="Layer_1-2" data-name="Layer 1"><rect class="cls-1" x="12.52" y="22.31" width="110.3" height="111.54"/><rect class="cls-2" x="17.79" y="27.64" width="99.76" height="100.88"/><rect class="cls-3" x="34.33" y="49.08" width="29.74" height="3.72"/><rect class="cls-4" x="5.33" y="46.85" width="32.72" height="8.18" rx="3.12" ry="3.12"/><path class="cls-5" d="M76.52,56.51H58a1.15,1.15,0,0,1-1-.77l-4.06-12.5c-.28-.87,0-1.6.6-1.6H81c.61,0,.88.73.6,1.6l-4.07,12.5A1.14,1.14,0,0,1,76.52,56.51Z"/><path class="cls-6" d="M50.87,32.72H83.6a3.34,3.34,0,0,1,3.34,3.34v3.36a7.43,7.43,0,0,1-7.43,7.43H55a7.43,7.43,0,0,1-7.43-7.43V36.06a3.34,3.34,0,0,1,3.34-3.34Z"/><rect class="cls-3" width="135.33" height="37.18" rx="12" ry="12"/><circle class="cls-7" cx="15.8" cy="22.68" r="4.09"/><circle class="cls-8" cx="30.55" cy="22.68" r="4.09"/><rect class="cls-9" x="84.89" y="19.33" width="38.67" height="7.44" rx="2.83" ry="2.83"/><path class="cls-10" d="M97.59,117.18H89.18A10.6,10.6,0,0,1,78.6,106.59V92.9A10.6,10.6,0,0,1,89.18,82.31h8.41A10.6,10.6,0,0,1,108.17,92.9v13.69A10.6,10.6,0,0,1,97.59,117.18ZM89.18,88.54a4.36,4.36,0,0,0-4.36,4.36v13.69A4.36,4.36,0,0,0,89.18,111h8.41a4.36,4.36,0,0,0,4.35-4.36V92.9a4.36,4.36,0,0,0-4.35-4.36Z"/><path class="cls-3" d="M51.23,73.62H86a5,5,0,0,1,5,5v45.56a0,0,0,0,1,0,0H46.23a0,0,0,0,1,0,0V78.62A5,5,0,0,1,51.23,73.62Z"/><path class="cls-11" d="M72.94,85.31,63.49,99.94a.37.37,0,0,0,.29.57l3.77.27a.37.37,0,0,1,.32.5l-3.67,9.9a.37.37,0,0,0,.65.34l8-11.65a.38.38,0,0,0-.22-.58l-3.51-.83a.38.38,0,0,1-.27-.48c.73-2.18,4.28-12.88,4.07-12.67Z"/><path class="cls-3" d="M129.48,124.18H6.1a4.49,4.49,0,0,0-4.49,4.46v11.9A4.49,4.49,0,0,0,6.1,145H29.28a4.49,4.49,0,0,0,4.49-4.46v-2.79a.19.19,0,0,1,.18-.19h67.68a.2.2,0,0,1,.19.19v2.79A4.48,4.48,0,0,0,106.3,145h23.18a4.49,4.49,0,0,0,4.49-4.46v-11.9A4.49,4.49,0,0,0,129.48,124.18Z"/><rect class="cls-12" x="1.61" y="124.18" width="132.36" height="5.21" rx="0.67" ry="0.67"/><path class="cls-3" d="M128.19,49.28H107.27a1.21,1.21,0,0,1-1.21-1.21V35.27a1.21,1.21,0,0,0-1.21-1.21h-1.47a1.21,1.21,0,0,0-1.21,1.21V51.79A1.21,1.21,0,0,0,103.38,53H127a1.21,1.21,0,0,1,1.21,1.21V77.82A1.21,1.21,0,0,0,129.4,79h1.3a1.21,1.21,0,0,0,1.21-1.21V50.49a1.21,1.21,0,0,0-1.21-1.21Z"/><path class="cls-6" d="M131.62,89h-2.9a1.5,1.5,0,0,1-1.35-1.55l-1.2-25.71A1.54,1.54,0,0,1,127.51,60h5.31a1.54,1.54,0,0,1,1.34,1.74L133,87.45A1.5,1.5,0,0,1,131.62,89Z"/><path class="cls-13" d="M131.94,89h-3.55c-.87,0-1.6-.49-1.65-1.13l-1.47-18.61c-.06-.68.7-1.26,1.64-1.26h6.51c1,0,1.7.58,1.65,1.26l-1.48,18.61A1.51,1.51,0,0,1,131.94,89Z"/></g></g></svg>