<svg xmlns="http://www.w3.org/2000/svg" viewBox="0 0 223.39 196.04"><defs><style>.cls-1{fill:#c4c4c4;}.cls-2{fill:#d2cfd6;}.cls-3{fill:#eaeaea;}.cls-4{fill:#4c4c4c;}.cls-5{fill:#fff;}.cls-6{fill:#bcb8be;}.cls-7{fill:#efefef;}.cls-8{fill:#f69777;}.cls-9{fill:#ffd55c;}.cls-10{fill:#baff78;}.cls-11{fill:none;stroke:#dbdbdb;stroke-miterlimit:10;}.cls-12{fill:#181616;fill-rule:evenodd;}</style></defs><title>Asset 14</title><g id="Layer_2" data-name="Layer 2"><g id="Layer_1-2" data-name="Layer 1"><g id="_Group_" data-name="&lt;Group&gt;"><path class="cls-1" d="M148.47,196H74.92c6.23-1.54,10-4.52,12.2-9.12h49.13C138.48,191.57,142.22,194.57,148.47,196Z"/><path class="cls-2" d="M136.25,186.92H87.12c2.18-4.48,2.92-10.51,3.15-18.24h42.86C133.36,176.38,134.1,182.43,136.25,186.92Z"/></g><path class="cls-3" d="M0,158.2c0,6.69,4.71,10.64,11.4,10.64H213.21c6.69,0,10.18-4,10.18-10.64V141.48H0Z"/><path class="cls-4" d="M216.55,0H8.05C1.37,0,0,1.82,0,8.51V141.33H223.39V8.51C223.39,2,223.09,0,216.55,0Z"/><rect class="cls-5" x="9.12" y="7.6" width="205.16" height="124.61"/><circle class="cls-6" cx="112.3" cy="153.79" r="6.69"/><rect class="cls-7" x="9.12" y="7.84" width="205.16" height="18.53"/><polygon class="cls-2" points="66.87 12.52 62.31 12.52 40.42 12.52 40.42 21.69 62.31 21.69 66.87 21.69 96.8 21.69 96.8 12.52 66.87 12.52"/><rect class="cls-2" x="100.45" y="12.52" width="109.72" height="9.17"/><circle class="cls-8" cx="16.55" cy="17.11" r="2.96"/><circle class="cls-9" cx="25.44" cy="17.11" r="2.96"/><circle class="cls-10" cx="34.5" cy="17.11" r="2.96"/><rect class="cls-11" x="50.12" y="81.09" width="121.63" height="12.41" rx="4.61" ry="4.61"/><path class="cls-12" d="M110.93,41.32a13.48,13.48,0,0,0-4.26,26.27c.68.12.92-.29.92-.65s0-1.17,0-2.29c-3.75.81-4.54-1.81-4.54-1.81a3.58,3.58,0,0,0-1.5-2c-1.22-.84.09-.82.09-.82a2.84,2.84,0,0,1,2.07,1.39,2.87,2.87,0,0,0,3.92,1.12,2.82,2.82,0,0,1,.86-1.8c-3-.34-6.14-1.5-6.14-6.67a5.2,5.2,0,0,1,1.38-3.61,4.83,4.83,0,0,1,.14-3.57s1.13-.36,3.7,1.38a12.88,12.88,0,0,1,6.75,0c2.57-1.74,3.7-1.38,3.7-1.38a4.83,4.83,0,0,1,.14,3.57,5.2,5.2,0,0,1,1.38,3.61c0,5.18-3.15,6.32-6.15,6.66a3.2,3.2,0,0,1,.91,2.49c0,1.8,0,3.26,0,3.7s.24.78.92.65a13.48,13.48,0,0,0-4.27-26.27Z"/><rect class="cls-1" x="13.32" y="188.32" width="196.74" height="7.72"/></g></g></svg>