<svg xmlns="http://www.w3.org/2000/svg" viewBox="0 0 158 158"><defs><style>.cls-1{fill:#fff;}.cls-2{fill:#e0a217;}.cls-3{fill:#f2be3d;}.cls-4{fill:#fff2cf;}</style></defs><title>Asset 93</title><g id="Layer_2" data-name="Layer 2"><g id="Layer_1-2" data-name="Layer 1"><rect class="cls-1" width="158" height="158" rx="31.5" ry="31.5"/><path class="cls-2" d="M99.56,47.17H60.44a6.41,6.41,0,0,0-6.39,6.39v4.65a6.41,6.41,0,0,0,6.39,6.4H99.56a6.41,6.41,0,0,0,6.39-6.4V53.56A6.41,6.41,0,0,0,99.56,47.17Zm2.2,10.36a4.91,4.91,0,0,1-4.89,4.9H63.13a4.91,4.91,0,0,1-4.89-4.9V55.12a4.91,4.91,0,0,1,4.89-4.9H96.87a4.91,4.91,0,0,1,4.89,4.9Z"/><g id="_Group_" data-name="&lt;Group&gt;"><path class="cls-2" d="M123.39,100.35v15.23a5.25,5.25,0,0,1-5.23,5.23H41.84a5.25,5.25,0,0,1-5.23-5.23V100.35Z"/><path class="cls-3" d="M123.39,62v38.39H36.61V62a5.25,5.25,0,0,1,5.23-5.23h76.32A5.25,5.25,0,0,1,123.39,62Z"/></g><circle class="cls-4" cx="80" cy="79.39" r="9.37"/><ellipse class="cls-4" cx="80" cy="102.96" rx="17.85" ry="10.46"/></g></g></svg>