<svg xmlns="http://www.w3.org/2000/svg" viewBox="0 0 158 158"><defs><style>.cls-1{fill:#fff;}.cls-2{fill:#5a74e2;}.cls-3{fill:#0c0c0c;}.cls-4{fill:#7897f9;}</style></defs><title>Asset 92</title><g id="Layer_2" data-name="Layer 2"><g id="Layer_1-2" data-name="Layer 1"><rect class="cls-1" width="158" height="158" rx="31.5" ry="31.5"/><path class="cls-2" d="M116.05,77c0,3.64-.09,7.29,0,10.92A8.66,8.66,0,0,1,112,95.81a33.15,33.15,0,0,1-11.19,4.73A95.89,95.89,0,0,1,72.79,103a81.14,81.14,0,0,1-18.72-2.91,29.65,29.65,0,0,1-9.78-4.43,8.51,8.51,0,0,1-3.86-7.6c.13-3.32,0-6.65,0-10,0-1.49.12-1.58,1.57-1.17,10.51,3,21.08,5.68,31.7,8.25a18.69,18.69,0,0,0,9.71-.06c10.29-2.88,20.69-5.31,31.05-7.93.46-.12.92-.2,1.38-.3Z"/><path class="cls-3" d="M119,76.63l.19.19Z"/><path class="cls-3" d="M116.79,80.82l-.18-.18Z"/><path class="cls-4" d="M119,76.63l-18.91,4.75q-9.51,2.4-19,4.84a9.93,9.93,0,0,1-5-.13c-17.94-4.62-35.86-9.3-53.56-14.77l-.56-.17a2,2,0,0,1-1.64-1.89,1.91,1.91,0,0,1,1.62-1.89c2.26-.67,4.49-1.41,6.76-2,15.31-4,30.62-8,46-11.75a19.85,19.85,0,0,1,9.86.2c17,4.37,34,8.87,50.75,14.31l1,.34a1.9,1.9,0,0,1,1.44,1.92,1.84,1.84,0,0,1-1.59,1.78c-3.9,1-7.8,2-11.72,3-1,.26-1.48.69-1.48,1.82q.06,14,0,28a1.71,1.71,0,0,0,1.07,1.73A6.22,6.22,0,0,1,125.15,117a1.86,1.86,0,0,0-.61,2.5c.75,1.89,1.39,3.82,2,5.75s0,3-2.11,3.08-4.15,0-6.22,0-2.72-1.11-2.06-3c.75-2.15,1.48-4.3,2.26-6.43a1.23,1.23,0,0,0-.48-1.6,6.26,6.26,0,0,1,.36-10.37,1.79,1.79,0,0,0,.83-1.67q0-14.2,0-28.43Z"/></g></g></svg>