<svg xmlns="http://www.w3.org/2000/svg" viewBox="0 0 85.57 108.36"><defs><style>.cls-1{fill:#8d6042;}.cls-2{fill:#fff;}.cls-3{fill:#4c4c4c;}</style></defs><title>Asset 8</title><g id="Layer_2" data-name="Layer 2"><g id="Layer_1-2" data-name="Layer 1"><rect class="cls-1" width="85.57" height="108.36"/><rect class="cls-2" x="10.7" y="11.63" width="64.18" height="85.11"/><path class="cls-3" d="M30.66,65.54H28.8l-.54-9-.13,0c0,.1-.07.2-.1.3-.9,2.81-1.8,5.63-2.69,8.44-.08.26-.2.35-.46.33s-.83.1-1.08-.08-.27-.65-.38-1Q22.22,60.7,21,56.9l-.12-.38H20.8c-.09,1.5-.19,3-.25,4.49s-.1,3-.14,4.51H18.67c0-.13,0-.26,0-.39.12-3.63.36-7.25.8-10.86,0-.19.09-.26.29-.26.61,0,1.23,0,1.84,0a.34.34,0,0,1,.4.28q1.28,3.93,2.57,7.86c0,.08.06.17.12.32.06-.15.1-.25.13-.35q1.29-3.9,2.57-7.8c.08-.24.18-.32.43-.31.65,0,1.29,0,2,0C30.23,57.85,30.56,61.67,30.66,65.54Z"/><path class="cls-3" d="M55.67,64.79l2.1,1L57,67.12l-.3-.17q-1.08-.61-2.16-1.26a.76.76,0,0,0-.61-.1,5.72,5.72,0,0,1-2.57,0,3.51,3.51,0,0,1-2.58-2.27,9.45,9.45,0,0,1-.53-3.8,8.66,8.66,0,0,1,.49-2.72,4.19,4.19,0,0,1,4.07-2.93,6.67,6.67,0,0,1,1.34.1,3.62,3.62,0,0,1,2.87,2.48,8.94,8.94,0,0,1,.47,3.63,11.42,11.42,0,0,1-.18,1.64A5.19,5.19,0,0,1,55.67,64.79ZM50.26,59.7a6.23,6.23,0,0,0,0,1.06,12.8,12.8,0,0,0,.45,2.06,2,2,0,0,0,1.58,1.41,2.33,2.33,0,0,0,2.93-1.71,9.83,9.83,0,0,0,.3-3.89A5.7,5.7,0,0,0,55,56.52a2.12,2.12,0,0,0-1.4-1.16,2.37,2.37,0,0,0-3,1.66A7.61,7.61,0,0,0,50.26,59.7Z"/><path class="cls-3" d="M67,50.07c-.12-.1-.22-.22-.35-.32s-.45-.27-.65-.43a8.55,8.55,0,0,0-3.13-1.57A1.32,1.32,0,0,1,62,47c-.58-1.22-1.19-2.43-1.71-3.68a12.06,12.06,0,0,0-4.75-5.55c-.28-.18-.58-.32-.87-.49a5.71,5.71,0,0,0-2.47-.58,1,1,0,0,1-.58-.23,6.3,6.3,0,0,0-2-1.06.55.55,0,0,0-.66.11.53.53,0,0,0,0,.64,4.28,4.28,0,0,0,.47.7,7.39,7.39,0,0,1,1.42,2.65,10.73,10.73,0,0,0,.61,1.6,3.68,3.68,0,0,0,.6.82.81.81,0,0,1,.22.83c-.08.23-.15.47-.23.71a5.67,5.67,0,0,0,.15,4.32.94.94,0,0,0,.67.65c.18-1.08.13-2.24,1.11-3a16.45,16.45,0,0,0,3.26,5.45l-1.85-1.65A6.15,6.15,0,0,1,54,47.06l-.09,0c-.06.4-.13.8-.19,1.2a.91.91,0,0,1-.62.86.93.93,0,0,1-1-.37,4.36,4.36,0,0,1-1-2.5,8.43,8.43,0,0,1,.48-3.59.56.56,0,0,0,0-.36c-.32-.55-.69-1.06-1-1.63s-.42-1.24-.66-1.85a3.82,3.82,0,0,0-.44-.82c-.26-.37-.57-.72-.82-1.1a2.93,2.93,0,0,1-.43-.89,1.13,1.13,0,0,1,1.27-1.43,4.69,4.69,0,0,1,2.41,1,1.24,1.24,0,0,0,.8.32,6,6,0,0,1,3.24,1.09,13.84,13.84,0,0,1,4.51,4.62c.3.51.5,1.08.75,1.61.49,1.06,1,2.11,1.48,3.17a1.2,1.2,0,0,0,.73.66,12.27,12.27,0,0,1,3.84,2.47,8.39,8.39,0,0,1,.74.87c-1,.43-2.06.33-3,.74a2,2,0,0,0,.29.36,7.89,7.89,0,0,0,.82.56,6.21,6.21,0,0,1,1.86,1.6l.65.82a.58.58,0,0,1,0,.17c-.21-.17-.35-.32-.52-.43-.63-.39-1.27-.74-1.89-1.14a20.79,20.79,0,0,1-1.8-1.27,3.46,3.46,0,0,1-.55-.82c-.15-.23,0-.34.18-.42a6.75,6.75,0,0,1,2.62-.47H67Z"/><path class="cls-3" d="M46.8,54.72l-.42.93a12.37,12.37,0,0,0-1.49-.36,4.32,4.32,0,0,0-1.39,0,1.45,1.45,0,0,0-.75,2.53,4.7,4.7,0,0,0,1,.72c.68.41,1.39.79,2.09,1.18a2.85,2.85,0,0,1,1.64,3,3.09,3.09,0,0,1-2.1,2.67,5.45,5.45,0,0,1-5.1-.79l.46-.91c.63.2,1.22.41,1.82.55a3.12,3.12,0,0,0,1.66-.06,1.65,1.65,0,0,0,1.23-1.25,1.57,1.57,0,0,0-.62-1.63,5.92,5.92,0,0,0-.82-.56c-.65-.38-1.3-.74-1.95-1.11a2.86,2.86,0,0,1-1.62-3.15A3,3,0,0,1,42.89,54a5.09,5.09,0,0,1,3.73.64Z"/><path class="cls-3" d="M31.45,67.31h.78a1.9,1.9,0,0,0,1.62-.73,1.46,1.46,0,0,0,.32-1.31c-.32-1.13-.65-2.26-1-3.38-.47-1.51-1-3-1.45-4.52,0-.09,0-.19-.09-.33h1.75a.22.22,0,0,1,.16.14c.63,2.13,1.26,4.27,1.88,6.4,0,.15,0,.31.08.47a30.44,30.44,0,0,0,1.69-7H39c-.15.74-.29,1.45-.45,2.16a25.32,25.32,0,0,1-2.12,6.21,7.54,7.54,0,0,1-1.72,2.28,2.87,2.87,0,0,1-2.94.71c-.25-.08-.39-.18-.35-.47A4.56,4.56,0,0,0,31.45,67.31Z"/><path class="cls-3" d="M64.66,65.53H59.22V54.05H61V64.12h3.62Z"/><path class="cls-3" d="M52.28,38.13c.48-.17.75-.07,1,.35a.6.6,0,0,1-.2.83Z"/></g></g></svg>