<svg xmlns="http://www.w3.org/2000/svg" viewBox="0 0 713.03 399.88"><defs><style>.cls-1{fill:#04ad04;}.cls-2{fill:#ee4b36;}.cls-3{fill:#ed3736;}.cls-4{fill:#ffcb92;}.cls-5{fill:none;stroke:#ffcb92;stroke-miterlimit:10;stroke-width:14px;}.cls-6{fill:#ff8b00;}.cls-7{fill:#fff;}.cls-8{fill:#ffce00;}.cls-9{fill:#afafaf;}.cls-10{fill:#3a393a;}.cls-11{fill:#f9a054;}.cls-12{fill:#2d2c2d;}.cls-13{fill:#b2b2b2;}.cls-14{fill:#474747;}.cls-15{fill:#595959;}.cls-16{fill:#383838;}.cls-17{fill:#898989;}.cls-18{fill:#07a6d1;}.cls-19{fill:#00e530;}.cls-20{fill:#ffef22;}.cls-21{fill:#ea3b3b;}.cls-22{fill:#bfbfbf;}.cls-23{fill:lime;}.cls-24{fill:#03ef03;}.cls-25{fill:#e0e0e0;}.cls-26{fill:#6a6b6b;}.cls-27{fill:#ffec00;}.cls-28{fill:#070707;}</style></defs><title>Asset 56</title><g id="Layer_2" data-name="Layer 2"><g id="Layer_1-2" data-name="Layer 1"><ellipse class="cls-1" cx="290" cy="229.03" rx="31.41" ry="27"/><ellipse class="cls-1" cx="251" cy="218.03" rx="31.41" ry="27"/><ellipse class="cls-1" cx="239" cy="249.03" rx="31.41" ry="27"/><ellipse class="cls-1" cx="200" cy="256.03" rx="31.41" ry="27"/><ellipse class="cls-1" cx="200" cy="296.03" rx="31.41" ry="27"/><path class="cls-2" d="M594.29,192.68c-.58,2.84-2.12,5.25-3.53,7.71-1.17,2-2.49,4-3.66,6a1.26,1.26,0,0,1-1.46.77,2.42,2.42,0,0,0-1.89.23c-.5.34-.68.59,0,.92,1,.49,2,1.09,3,1.55.77.34.79.72.4,1.4-.8,1.4-1.52,2.85-2.28,4.27a14.74,14.74,0,0,0-1.22,2.86,5,5,0,0,1-.71,1.57c-3.47,4.92-5.82,10.48-8.78,15.69s-5.7,10.3-8.28,15.59c-2.23,4.58-4.48,9.14-7.07,13.54-.73,1.24-.95,1.35-1.73.1-1.42-2.26-3.52-3.8-5.45-5.52s-4.21-2.47-6.48-3.39c-.57-.22-.74,0-.94.45s-.24.81.26,1.06a4.91,4.91,0,0,1,.5.28.72.72,0,0,1,.13.93c-.11.29-.45.21-.7.07a3.58,3.58,0,0,0-2.52-.46,1.54,1.54,0,0,1-1.06-.39c-3.18-1.93-6.33-3.92-9.55-5.77-2.23-1.29-4.54-2.42-5.8-4.86-.17-.32-.48-.26-.81-.22a8.17,8.17,0,0,1-5.34-1.1,12.23,12.23,0,0,0-3.06-1.31c-2.49-.71-4.45-2.39-6.67-3.59-2.43-1.32-4.86-2.63-7.41-3.71a22.64,22.64,0,0,0-4.05-1.61,27.17,27.17,0,0,0-4.93-.31c-2.19-.05-2.77-.44-3-2.54-.09-.87-.43-1.09-1.19-1.11a4,4,0,0,1-2.59-1.52,25.21,25.21,0,0,0-2.31-2.19,3,3,0,0,0-3.32-.41c-.31.15-.63.29-.95.42-1.91.79-2.61.51-3-1.51a16.35,16.35,0,0,1-.6-5.44c.15-1.1-1.05-1.13-1.39-1-1.43.67-2.08-.35-2.87-1.08a11.53,11.53,0,0,0-2.29-1.52,8,8,0,0,1-2.76-2.15c-.92-1.23-2.57-1.6-4-2.23-2.42-1.08-4.85-2.13-7.26-3.22a9.56,9.56,0,0,1-2.09-1.61,11.29,11.29,0,0,0-4-2c-.29-.1-.68-.13-.84-.34-1.37-1.76-3.47-2.25-5.35-3.12a.32.32,0,0,0-.35-.19q-3.42-2-7-3.71c-1.33-.62-2.67-1.16-4-1.74a22.6,22.6,0,0,1-8.08-5.73,1.59,1.59,0,0,1-.22-2.31c.93-1.27,1.69-2.66,2.64-3.9,2.25-2.9,3.05-6.5,4.71-9.69,1.47-2.83,2.82-5.73,4.3-8.55a6,6,0,0,1,3.67-2.62,4.36,4.36,0,0,0,2.22-1.56,104.17,104.17,0,0,0,6-9.12c.92-1.61,1.43-3.18.22-4.95a3.28,3.28,0,0,1-.16-3.11A82.12,82.12,0,0,1,451,138a57.48,57.48,0,0,0,2.68-5.87c.2-.53.39-.76,1.07-.56,2.38.73,3.62.32,5.08-1.7,1.15-1.59,2.23-3.23,1.42-5.38a4.63,4.63,0,0,1-.1-1.25,3.29,3.29,0,0,1,2.17.6L504,145.38a23.61,23.61,0,0,1,3.66,2.16c.34,1.22.69,2.44,1,3.67,1.3,4.86,2.35,9.82,4,14.58,1.33,3.94,2.53,7.89,3.6,11.91s2,8.32,4,12.11a3.25,3.25,0,0,1,.46,1.88,8.93,8.93,0,0,0,.53,3.74c.8,2.41,1.14,4.93,1.84,7.36.6,2.08.78,4.32,1.69,6.28a32.19,32.19,0,0,1,1.34,4.71c.67,2.3,1.13,4.68,1.92,7a5.26,5.26,0,0,0,1.73,2.4,105.75,105.75,0,0,0,12.88,8.5,3.47,3.47,0,0,0,3.77.1,19.75,19.75,0,0,0,1.66-1.17,51.23,51.23,0,0,0,7-5.49q4.62-4.74,9.17-9.57a26.13,26.13,0,0,0,2.83-3.77c.2-.31.49-.57.16-1a23.47,23.47,0,0,1-2.73-5.29c-1.07-2.62-2.8-4.92-3.73-7.61a1.92,1.92,0,0,0-.77-1.11,5.6,5.6,0,0,1-2.44-2.94,45.56,45.56,0,0,0-3.68-7.73A111.57,111.57,0,0,1,547.51,174c-1.18-2.61-2.87-5-4-7.64a5.55,5.55,0,0,1,2.5.78q18.19,9.68,36.41,19.31Zm-140.5-21c-.63,1.29-1.48,2.35-.76,3.49.83,1.31,1.28,2.78,2,4.1a40,40,0,0,1,2.61,6.68,5.47,5.47,0,0,0,3.1,3.71,19.66,19.66,0,0,1,3.72,2.08,12.78,12.78,0,0,0,7.2,1.91,15.59,15.59,0,0,1,5.28,1.08,8.12,8.12,0,0,0,3.47.77A21.22,21.22,0,0,1,485,196c.71.1,1.73.66,2.06.17.47-.68,0-1.69-.32-2.5-2.22-6.26-4.55-12.49-6.68-18.78-1.68-5-3.12-10.05-4.69-15.08-.41-1.32-.93-2.6-1.37-3.91-.32-.95-.67-.93-1.29-.21a10.92,10.92,0,0,1-1.54,1.32c-2.54,2-5.09,4.08-7.62,6.14-2,1.59-4,3.13-5.83,4.83C456.31,169.24,454.28,169.91,453.79,171.7Z"/><path class="cls-2" d="M594.29,192.68l-11.84-6.24Q564.24,176.8,546,167.13a5.55,5.55,0,0,0-2.5-.78c-3.3-5.26-6.1-10.8-9-16.29-3.44-6.52-6.78-13.09-10.41-19.51-1.64-2.89-2.86-6-5.29-8.4a1.32,1.32,0,0,1-.41-.68c-.19-1.92-1.6-3.08-2.66-4.47a4.94,4.94,0,0,1-1.13-4.73,1.45,1.45,0,0,0-.32-1.28c-1.17-2-2.42-3.94-3.5-6-1.24-2.33-3-4.39-3.78-7a4.5,4.5,0,0,0-2.39-2.52,10.42,10.42,0,0,0-4.84-1,21.78,21.78,0,0,1-7.38-1.18c.38,1.19-.05,2.17.31,3.16,1.38,3.76,2.25,7.68,3.45,11.49,2.71,8.54,4.78,17.26,7.29,25.85,1.34,4.58,3,9.07,4.17,13.68a23.61,23.61,0,0,0-3.66-2.16l-40.72-21.59a3.29,3.29,0,0,0-2.17-.6,8.13,8.13,0,0,1,2.42-5.88c2.56-2.78,3.63-6.2,4.4-9.7a57.48,57.48,0,0,1,3.92-12.22,21.28,21.28,0,0,1,3.31-4.82,66.22,66.22,0,0,0,11.31-18.24c.83-2,1-4.33,2.3-6.24a15.79,15.79,0,0,1,2.34-2.68c.41-.38.76-.31,1.24-.09,9.53,4.51,18.6,9.86,27.81,15a29.91,29.91,0,0,1,4.39,2.44c.34.27.77.52.79.94,0,1.35,1.07,1.85,2,2.3,2.88,1.38,5.61,3,8.34,4.67A7.81,7.81,0,0,0,540,89.75c2.49-.06,5,.4,7.45-.39a1.24,1.24,0,0,1,1,.15c2.92,1.77,6,3.21,9,4.95s6.32,2.8,9.19,4.78c.51.35,1,.66,1.55,1,1,.63.95.71-.07,1.34-1.34.84-1.35,1,0,1.87,1.09.72,2.19,1.44,3.32,2.1a.85.85,0,0,1,.5,1.09c-.4,1.89,0,2.65,1.68,3.54,1.5.8,3.19,1.12,4.73,1.8.5.21.68-.11.91-.44,2.36-3.34,3.37-3.65,7-1.72,3.25,1.73,6.21,4,9.48,5.71A85,85,0,0,1,606,122.09c1.76,1.29,1.76,1.29,1.22,3.39-.32,1.23-.15,1.41,1.09,1.17a6,6,0,0,0,1.68-.75c1.34-.73,2.09-.48,2.92.83a4.91,4.91,0,0,0,1.95,1.57c2.06,1.14,4.18,2.15,6.15,3.44a4.66,4.66,0,0,1,2.42,3,4,4,0,0,0,1.6,2.2c.51.42.45.77.24,1.37a13.43,13.43,0,0,1-3.76,5.83,3.09,3.09,0,0,0-.88,1.6,50.45,50.45,0,0,1-2.23,5.69A135.57,135.57,0,0,1,611.85,165c-1.57,3-3.26,5.85-4.83,8.8-.66,1.23-1.61,2.22-2.32,3.41-.5.84-1.63.91-2.59.8-2.75-.31-2.58-.27-3.28,2.54-.28,1.12-1.33,1-2.05,1.43-.53.29-1.13.46-1.69.7-1,.43-1.05,1.21-.93,2.11.21,1.6.44,3.19.58,4.8A6.17,6.17,0,0,1,594.29,192.68Zm-7.64-42.52c1.38-1.39,1.56-3,0-4.67a1.41,1.41,0,0,1-.22-.4,42.75,42.75,0,0,0-4.42-7.15c-.38-.53-.81-1-1.48-.9a7,7,0,0,1-3-.33c-6-1.59-12-2.88-18-4.3-.54-.13-1.32-.61-1.59-.23-.4.54,0,1.3.34,1.92a1.32,1.32,0,0,1,.12.2c.82,2.07,2,4,2.75,6.06,1.65,4.66,4.17,8.91,6.1,13.44,1.4,3.31,3.62,6.24,4.82,9.68a2.81,2.81,0,0,0,2.44,2c1.13.09,1.56-1,2-1.78a30.58,30.58,0,0,1,4.49-6.38C583.14,155.26,585.28,153.16,586.65,150.16Z"/><path class="cls-3" d="M443.09,202.69a.32.32,0,0,1,.35.19Z"/><ellipse class="cls-1" cx="442.7" cy="225.03" rx="31.41" ry="27"/><ellipse class="cls-1" cx="485" cy="213.03" rx="31.41" ry="27"/><rect class="cls-4" x="305.15" y="146.83" width="35.98" height="102.39"/><path class="cls-5" d="M312.52,192.25a32.77,32.77,0,0,1-32.77-32.77"/><path class="cls-6" d="M324.25,0l-5.47.06c-31.22.31-56.31,23.41-56,51.58l1,103.05h.15l.14,14.42c0,3.27,3,5.89,6.63,5.86s6.53-2.72,6.5-6v-1.4c0-3.27,2.88-6,6.5-6s6.6,2.59,6.63,5.86l.05,4.55c0,3.27,3,5.89,6.62,5.86s6.54-2.72,6.51-6l-.08-7.47c0-3.27,2.88-6,6.51-6s6.59,2.59,6.62,5.86l0,3.95c0,3.28,3,5.9,6.63,5.86s6.53-2.72,6.5-6v1.46c0-3.27,2.88-6,6.51-6s6.59,2.58,6.63,5.85l0-1.1c0,3.27,3,5.89,6.63,5.85s6.54-2.71,6.5-6v-1.39c0-3.27,2.88-5.95,6.51-6s6.59,2.59,6.62,5.86l.05,4.55c0,3.27,3,5.89,6.62,5.85s6.54-2.71,6.51-6l-.08-7.46a5.71,5.71,0,0,1,.22-1.56l-.08-8.55v-.82l-1-102.23C381,22.27,355.48-.31,324.25,0Z"/><path class="cls-7" d="M336.59,222.18a2.57,2.57,0,0,1-2.57,2.57h0a2.57,2.57,0,0,1-2.56-2.57v-42A2.56,2.56,0,0,1,334,177.6h0a2.57,2.57,0,0,1,2.57,2.56Z"/><path class="cls-8" d="M374.89,177.6a6.89,6.89,0,0,0,4.57-1.68,33,33,0,0,1-10.92-2.76A6.48,6.48,0,0,0,374.89,177.6Z"/><path class="cls-8" d="M367,57a32.76,32.76,0,0,0,14.69-3.46V51c0-22.84-16.64-42.17-39.58-48.67A33,33,0,0,0,367,57Z"/><path class="cls-8" d="M292,79a33,33,0,0,0-28.62-32.71,46.18,46.18,0,0,0-.25,4.72v60.72A33,33,0,0,0,292,79Z"/><path class="cls-8" d="M368.33,167.12c0-3.27-2.95-5.92-6.57-5.92a6.75,6.75,0,0,0-5.41,2.58,33.19,33.19,0,0,0,12.19,9.38,5.26,5.26,0,0,1-.21-1.49Z"/><path class="cls-8" d="M381.46,171.67v-7.46a5.3,5.3,0,0,1,.23-1.56V110a33,33,0,0,0-25.34,53.75,6.75,6.75,0,0,1,5.41-2.58c3.62,0,6.57,2.65,6.57,5.92v4.55a5.26,5.26,0,0,0,.21,1.49,33,33,0,0,0,10.92,2.76A5.65,5.65,0,0,0,381.46,171.67Z"/><g id="Layer_2-2" data-name="Layer 2"><path class="cls-2" d="M75.36,229.56s-15.31,22.88-40.48,31.09-34.13,23-34.13,23-7.36-3.18,23.92-37.3S48.38,205.5,48.38,205.5"/></g><g id="Layer_1-3" data-name="Layer 1"><rect class="cls-9" x="112.13" y="174.05" width="9.28" height="180.05" transform="translate(-158.03 175.46) rotate(-48.27)"/></g><path class="cls-10" d="M630,299a15.71,15.71,0,0,0-2.06,4.82c-3-1.07-5.92-2.12-8.94-3a34.84,34.84,0,0,1,1.36-4.2,2.37,2.37,0,0,0,.06-1.32c-.4-1.67-.78-3.35-1.16-5a9,9,0,0,1,1-6.72c5.72-9.89,11.4-19.81,17.16-29.67a3.9,3.9,0,0,0,.62-3.32,3.46,3.46,0,0,1,.35-2.73c1.78-3.23,3.65-6.41,5.48-9.61a.89.89,0,0,1,1.14-.41c1.69,1,3.38,2,5.08,3,.48.27.56.5.27,1-1,1.66-1.93,3.36-2.92,5-.33.55-.25.8.3,1.11,2.16,1.21,4.29,2.47,6.43,3.71q-2.44,4.65-4.91,9.29c-.61,1.16-.61,1.14.68,1.58A34.35,34.35,0,0,0,665.63,264a39.36,39.36,0,0,0,12.83-4c.58-.29.82-.3,1.14.34,1.6,3.18,3.25,6.33,4.92,9.48.26.51.28.76-.27,1.13a33.07,33.07,0,0,1-7.68,3.5,50.25,50.25,0,0,1-10.39,2.09c-1.15.15-2.32,0-3.49.11a56.33,56.33,0,0,1-10.92-.86,48.71,48.71,0,0,1-5.61-1.21c-.66-.18-.75.22-1,.59s-.38.73.09,1.07a5.45,5.45,0,0,1,.63.64c1.11,1.12,1.13,1.2.36,2.55a.91.91,0,0,0-.09,1A3.54,3.54,0,0,1,646,284c-.93,1.63-1.88,3.24-2.81,4.87a4.22,4.22,0,0,1-2.58,2,4.72,4.72,0,0,1-2.28-.38c-.61-.31-1.22-1.07-1.81-.83s-.85,1-1.23,1.61C633.55,293.86,631.66,296.36,630,299Zm5.52-11.39c1.16.66,2.26,1.39,3.45,2a2.44,2.44,0,0,0,3.14-1.07c1-1.73,2.06-3.49,3-5.26a2.48,2.48,0,0,0-1-3.44c-.55-.33-1.09-.66-1.66-.95a1.74,1.74,0,0,0-2.54.73c-.44.73-.8,1.5-1.29,2.19a2.33,2.33,0,0,0,.07,2.64c.42.78,1.28.66,2,.61a4.94,4.94,0,0,0,1-.22c.17,0,.36-.15.49,0s0,.4-.2.52a3.67,3.67,0,0,1-2.93.91A3.74,3.74,0,0,0,635.56,287.65Z"/><path class="cls-11" d="M619,300.84c3,.9,6,2,8.94,3-.1,2.8-.43,5.58-.67,8.37q-.79,9.15-1.62,18.3c-.53,5.89-1,11.78-1.37,17.68-.12,1.87-1.2,2.6-3,2.08s-3.95-1.19-5.93-1.81c-3.83-1.19-7.68-2.35-11.5-3.59-1.53-.5-1.84-1.13-1.4-2.69,1.23-4.38,2.62-8.72,4.12-13a84.75,84.75,0,0,1,7-15.11c2.17-3.66,3.44-7.7,4.86-11.68A4.37,4.37,0,0,1,619,300.84Z"/><path class="cls-10" d="M656.8,218.75c.09-.3.32-.62.58-.64,1-.1,1.26-.91,1.66-1.6,2.25-3.9,4.51-7.79,6.74-11.7a2.48,2.48,0,0,1,2-1.37,11.6,11.6,0,0,0,4.89-1.23,7.86,7.86,0,0,0,2.87-2.94c1.36-2.42,2.77-4.82,4.15-7.23.42-.72.64-1.32-.29-2a7.29,7.29,0,0,1-1.39-1.95c-.68-1-1.37-2-2.06-3a4,4,0,0,0-1.42-.94c-.56-.33-.69-.71-.35-1.27s.62-1,.9-1.57.75-.68,1.34-.34c1.4.83,2.82,1.64,4.24,2.45.19.11.49.42.61.24.71-1.05,1.27-.14,1.76.16.67.41,1,.28,1.26-.4.31-.91.78-.9,1.54-.42,1.54,1,1.57.93.67,2.49a3.64,3.64,0,0,1-.28.47c-.37.46-.3.77.26,1,.72.34.81.89.41,1.57L666.47,224a1.73,1.73,0,0,1-.17.21Q661.55,221.51,656.8,218.75Zm10.32-5.33c.93-1.62,1.84-3.26,2.82-4.86.37-.61-.08-.69-.41-.92s-.62-.33-.91.18c-1.83,3.23-3.68,6.46-5.57,9.66-.33.56,0,.69.34.93s.68.36,1-.19C665.25,216.6,666.2,215,667.12,213.42Zm13.52-26.76c.09-.15.14-.25.21-.35.32-.47.47-.89-.16-1.27s-1-.09-1.25.48c-.12.24-.27.46-.4.7a.83.83,0,0,0,.75,1.29C680.39,187.53,680.39,186.94,680.64,186.66Z"/><path class="cls-11" d="M656.8,218.75q4.74,2.76,9.5,5.5l-3.53,6.83a43.09,43.09,0,0,0-3.61,10.21c-.88,3.79-2.22,7.39-4.92,10.33-2.14-1.24-4.27-2.5-6.43-3.71-.55-.31-.63-.56-.3-1.11,1-1.65,1.92-3.35,2.92-5,.29-.48.21-.71-.27-1-1.7-1-3.39-2-5.08-3,1.57-2.6,3.13-5.21,4.72-7.8,2.15-3.52,4.33-7,6.49-10.53C656.45,219.24,656.63,219,656.8,218.75Zm-1.43,12.08c-1.42,2.46-2.84,4.91-4.25,7.37-.14.24-.43.51,0,.76s.52-.1.68-.34c.26-.4.47-1.1.79-1.16,1.14-.2,1.26-1.19,1.75-1.89.21-.32.64-.74.47-1-.46-.78.11-1.25.39-1.78.64-1.2,1.34-2.37,2-3.54.14-.25.23-.54.6-.62.53-.11,2.24-2.3,2-2.71-.47-.84.16-1.29.4-1.88.12-.29.55-.64,0-.9s-.54.26-.68.51C658.14,226,656.76,228.42,655.37,230.83Z"/><path class="cls-11" d="M630,299c1.62-2.68,3.51-5.18,5.24-7.78.38-.58.69-1.39,1.23-1.61s1.2.52,1.81.83a4.72,4.72,0,0,0,2.28.38,36.33,36.33,0,0,0,8.09,11.89c.15.15.32.27.48.41a2,2,0,0,1-.21,3.29c-1.45.94-2.93,1.82-4.41,2.69a2.32,2.32,0,0,1-3.15-.58c-2.09-2.22-3.93-4.68-6.4-6.52C633.44,300.88,631.65,300.1,630,299Z"/><path class="cls-11" d="M655.37,230.83c1.39-2.41,2.77-4.82,4.17-7.21.14-.25.19-.74.68-.51s.13.61,0,.9c-.24.59-.87,1-.4,1.88.23.41-1.48,2.6-2,2.71-.37.08-.46.37-.6.62-.69,1.17-1.39,2.34-2,3.54-.28.53-.85,1-.39,1.78.17.29-.26.71-.47,1-.49.7-.61,1.69-1.75,1.89-.32.06-.53.76-.79,1.16-.16.24-.26.6-.68.34s-.13-.52,0-.76C652.53,235.74,654,233.29,655.37,230.83Z"/><path class="cls-10" d="M695.59,323.44a1.88,1.88,0,0,1-.07.85c0,.24-.17.29-.39.26-1.38-.15-2.77-.31-4.16-.44l-5.33-.49c-1-.09-2-.22-2.94-.31-1.4-.14-2.8-.26-4.21-.39l-2.48-.24c-.28,0-.29-.21-.26-.43.07-.64,0-.65-.6-.69-.82,0-1.64-.12-2.45-.22a.55.55,0,0,0-.62.31c-1,1.71-2,3.4-3,5.11a.78.78,0,0,1-1,.48c-1.07-.23-1-.19-1.27.87a27.79,27.79,0,0,0-.51,6c0,1.65-.18,3.3-.05,4.94s.46,3.22.6,4.83a44.51,44.51,0,0,0,1.7,7.67c.26,1,.5,1.91.77,2.86.09.31,0,.4-.3.45l-3.35.61c-2.54.45-5.08.88-7.62,1.35-.45.08-.6-.05-.7-.47-.62-2.49-1.24-5-1.89-7.46a37.68,37.68,0,0,1-.7-4.71c-.23-1.7-.41-3.4-.6-5.1a29.84,29.84,0,0,1,0-3.41c0-1.54.07-3.08.11-4.63a7.28,7.28,0,0,1,.09-1.31c.29-1.43.35-2.9.67-4.32.07-.31,0-.45-.34-.5q-4.95-.86-9.9-1.74a.42.42,0,0,0-.52.3q-2.49,5.71-5,11.43c-1,2.33-2,4.67-3,7-.1.25-.23.3-.49.19-1.69-.69-3.38-1.35-5.07-2l-7.34-3c-.53-.21-.54-.24-.31-.74q1.7-3.66,3.37-7.32c1.23-2.69,2.46-5.37,3.71-8.06a.93.93,0,0,0,0-.86c-1-2.06-2-4.13-2.94-6.2-.19-.4-.41-.71-.89-.71.7-1,1.41-1.91,2.08-2.89a1.23,1.23,0,0,1,1.42-.57q11.52,2.06,23.07,4.06c.21,0,.42.08.63.1a.39.39,0,0,0,.45-.35c0-.27,0-.46-.3-.52l-.63-.13-23.17-4.07c-.19,0-.38-.08-.58-.1-.42-.05-.58-.27-.49-.69.12-.61.21-1.23.32-1.84.14-.77.19-.8,1-.66l12.64,2.21,11.2,2c.6.1.73,0,.82-.53s-.25-.58-.62-.65l-10.7-1.88-8.41-1.48c-.17,0-.42,0-.45-.23s.21-.23.34-.33l.2-.11a22.88,22.88,0,0,1,5.36-2,1.2,1.2,0,0,0,.67-.27l3.64.63,26.89,4.72.68.13c.53,1.19,1.08,2.38,1.6,3.58.1.21.34.45.18.66s-.46.05-.69,0c-1.16-.19-2.31-.4-3.47-.61-.39-.07-.59.08-.67.47s0,.64.47.71l3.47.61c.54.1.61.2.53.74s-.21,1.2-.32,1.8c-.13.77-.18.8-1,.66l-3.37-.58a.45.45,0,1,0-.17.89l5,.88a.5.5,0,0,0,.62-.4c0-.16.08-.32.12-.48.15-.59.3-1.18.46-1.77,0-.14.05-.33.22-.38s.23.16.33.26l.92,1a.69.69,0,0,0,.45.2l3.72.36,5.49.53,5.54.54,3.77.37c.35,0,.55.17.51.58C696,320,695.82,321.72,695.59,323.44Z"/><path class="cls-12" d="M641.17,302.2a1.2,1.2,0,0,1-.67.27,22.88,22.88,0,0,0-5.36,2l-.2.11c-.13.1-.37.13-.34.33s.28.2.45.23l8.41,1.48,10.7,1.88c.37.07.7.14.62.65s-.22.63-.82.53l-11.2-2-12.64-2.21c-.78-.14-.83-.11-1,.66-.11.61-.2,1.23-.32,1.84-.09.42.07.64.49.69.2,0,.39.07.58.1l23.17,4.07.63.13c.27.06.35.25.3.52a.39.39,0,0,1-.45.35c-.21,0-.42-.06-.63-.1q-11.53-2-23.07-4.06a1.23,1.23,0,0,0-1.42.57c-.67,1-1.38,1.93-2.08,2.89-2.41-.42-4.83-.83-7.24-1.26a2.76,2.76,0,0,0-1.34.08l-21.17,6.31c-1.63.49-3.27.95-4.91,1.43a1.77,1.77,0,0,1-.76,0l-3.33-.59c-.55-.1-.58-.15-.49-.7q1.64-9.33,3.28-18.66c.1-.59.14-.62.76-.51l13.09,2.3c4.9.86,9.81,1.71,14.71,2.59a2.35,2.35,0,0,0,1.45-.19c2.15-1,4.33-1.92,6.49-2.89.55-.24,1.09-.46,1.62-.74a2,2,0,0,1,1.53-.18c.28.07.57.1.86.15l2,.35Z"/><path class="cls-12" d="M695.59,323.44c.23-1.72.37-3.44.53-5.17,0-.41-.16-.55-.51-.58l-3.77-.37-5.54-.54-5.49-.53-3.72-.36a.69.69,0,0,1-.45-.2l-.92-1c-.1-.1-.15-.3-.33-.26s-.19.24-.22.38c-.16.59-.31,1.18-.46,1.77,0,.16-.07.32-.12.48a.5.5,0,0,1-.62.4l-5-.88a.45.45,0,1,1,.17-.89l3.37.58c.78.14.83.11,1-.66.11-.6.22-1.2.32-1.8s0-.64-.53-.74l-3.47-.61c-.43-.07-.54-.3-.47-.71s.28-.54.67-.47c1.16.21,2.31.42,3.47.61.23,0,.52.21.69,0s-.08-.45-.18-.66c-.52-1.2-1.07-2.39-1.6-3.58l.81.12,23.57,4.14,2,.35c.56.1,1.13.21,1.7.3a.4.4,0,0,1,.37.54c-.14.78-.27,1.55-.41,2.33l-.88,5.05c-.16.88-.32,1.76-.46,2.65-.06.37-.19.55-.62.51C697.5,323.56,696.54,323.51,695.59,323.44Z"/><path class="cls-10" d="M699.53,320.51l.88-5.05,12,2.11c.72.12.72.12.6.84-.22,1.24-.46,2.48-.65,3.73-.07.46-.25.57-.7.49Q705.58,321.55,699.53,320.51Z"/><path class="cls-10" d="M698.75,312.29l-2-.35c.29-1.65.6-3.31.88-5,.07-.45.24-.62.69-.5a6,6,0,0,0,.94.17c.38.05.42.27.36.59-.27,1.47-.52,2.95-.78,4.43C698.81,311.87,698.78,312.08,698.75,312.29Z"/><path class="cls-10" d="M632.91,300.73l-2-.35c.16-.91.34-1.82.49-2.73.06-.37.22-.5.59-.41s.68.13,1,.18.43.21.37.53C633.21,298.88,633.06,299.8,632.91,300.73Z"/><rect class="cls-13" x="653.56" y="309.89" width="15.98" height="5.39" transform="translate(64.01 -109.68) rotate(9.96)"/><ellipse class="cls-1" cx="608.7" cy="313.03" rx="31.41" ry="27"/><ellipse class="cls-1" cx="600.7" cy="352.03" rx="31.41" ry="27"/><path class="cls-14" d="M553.55,307.22a20.35,20.35,0,0,1,7.12,12.1c0,.11,0,.23.05.34l2.12,27.2,0,.25a13.36,13.36,0,0,0,16.6,11.06c19.41-5.18,34-44.21,44.49-80.73a3,3,0,0,0-.28-2.31l-.51-.91a3,3,0,0,1,0-2.86,9.32,9.32,0,0,0,.18-8.1c-7.17-15.73-14.34-22.32-21.53-21.68a3.06,3.06,0,0,1-2.25-.65L566.79,214.1A3.06,3.06,0,0,1,565.7,212c-.78-7.17-8.65-12.91-25.49-16.85a9.28,9.28,0,0,0-7.9,1.77,3,3,0,0,1-2.82.52l-1-.31a3,3,0,0,0-2.32.19c-33.73,17.45-69.14,39.42-70.41,59.48a13.37,13.37,0,0,0,14.11,14.1l.25,0,27.09-3.26a2,2,0,0,1,.34,0,20.37,20.37,0,0,1,13.26,4.61l42.73,35Z"/><path class="cls-9" d="M571.13,278.06a9.38,9.38,0,1,1-13.2,1.31,9.38,9.38,0,0,1,13.2-1.31"/><path class="cls-15" d="M559.24,292.56a9.38,9.38,0,1,1,13.2-1.31h0a9.37,9.37,0,0,1-13.19,1.3m12.64-15.43A10.57,10.57,0,1,0,573.35,292a10.57,10.57,0,0,0-1.47-14.88Z"/><path class="cls-16" d="M539.79,248a13.54,13.54,0,1,1-19,1.89,13.55,13.55,0,0,1,19-1.89"/><path class="cls-15" d="M522.63,269a13.54,13.54,0,1,1,19-1.89,13.55,13.55,0,0,1-19,1.89m18.15-22.15a15.1,15.1,0,1,0,2.11,21.25,15.1,15.1,0,0,0-2.11-21.25"/><path class="cls-17" d="M540.35,260.83l-3.53-2.89,2.89-3.53a2.3,2.3,0,0,0-.32-3.24L536.78,249a2.3,2.3,0,0,0-3.25.32l-2.89,3.53L527.12,250a2.3,2.3,0,0,0-3.24.33l-2.14,2.61a2.3,2.3,0,0,0,.32,3.24l3.53,2.89-2.89,3.53a2.29,2.29,0,0,0,.32,3.24l2.61,2.14a2.3,2.3,0,0,0,3.25-.32l2.89-3.53L535.3,267a2.31,2.31,0,0,0,3.24-.32l2.15-2.62a2.3,2.3,0,0,0-.34-3.24"/><path class="cls-16" d="M557.26,240.91a3.63,3.63,0,1,1-5.11.5,3.63,3.63,0,0,1,5.11-.5"/><path class="cls-16" d="M576.52,256.69a3.63,3.63,0,1,1-5.12.5,3.62,3.62,0,0,1,5.12-.5"/><path class="cls-15" d="M538.17,216.71a10.25,10.25,0,1,1-14.42,1.43,10.25,10.25,0,0,1,14.42-1.43"/><path class="cls-9" d="M537.53,217.49a9.24,9.24,0,1,1-13,1.29,9.24,9.24,0,0,1,13-1.29"/><path class="cls-18" d="M593.23,267.76a5.66,5.66,0,1,1-8,.79,5.66,5.66,0,0,1,8-.79"/><path class="cls-19" d="M594.77,283.74a5.66,5.66,0,1,1-8,.79,5.66,5.66,0,0,1,8-.79"/><path class="cls-20" d="M609.21,266.13a5.66,5.66,0,1,1-8,.79,5.67,5.67,0,0,1,8-.79"/><path class="cls-21" d="M610.75,282.12a5.66,5.66,0,1,1-8,.79,5.66,5.66,0,0,1,8-.79"/><path class="cls-22" d="M661.41,374.62a3,3,0,0,1-4.09-1l-7.26-12.14a3,3,0,0,1,1-4.08l6.39-3.83a3,3,0,0,1,4.09,1l7.26,12.13c1.53,2.56,1.14,10.6-1.54,14.81a42.12,42.12,0,0,1-13,13c-5.75,3.45-17.63,5.35-17.63,5.35l4.6-5.36s8.82-2.67,12.65-5S661.41,374.62,661.41,374.62Z"/><path class="cls-22" d="M656.56,372.32l.76,1.28a3.48,3.48,0,0,0,.47.59l11.35-6.8a4.78,4.78,0,0,0-.32-.68l-.76-1.28Z"/><path class="cls-23" d="M648.09,387.53c5.92-3.55,9.66-9.07,10.35-14.39a59.5,59.5,0,0,0-3.43-6.67,58.38,58.38,0,0,0-4.27-6.18c-5-1.91-11.64-1.22-17.56,2.32s-9.66,9.07-10.35,14.39a57.22,57.22,0,0,0,3.43,6.68,55.82,55.82,0,0,0,4.27,6.17C635.54,391.76,642.17,391.07,648.09,387.53Z"/><path class="cls-24" d="M647.56,389l1-.59a26.28,26.28,0,0,0,3.75-2.72,71.4,71.4,0,0,0-6.44-13.72,72.13,72.13,0,0,0-9-12.16,26.25,26.25,0,0,0-4.17,2c-.35.2-.68.41-1,.63A75.35,75.35,0,0,0,647.56,389Z"/><path class="cls-24" d="M642.72,383.2a38.44,38.44,0,0,0,6.42-5.3c-1-2-2-4-3.24-6a76.58,76.58,0,0,0-5.35-7.83,22.82,22.82,0,0,0-3.52,1.7,27.08,27.08,0,0,0-3.18,2.26,76.1,76.1,0,0,0,4.39,8.46A80.22,80.22,0,0,0,642.72,383.2Z"/><path class="cls-25" d="M660.39,370a8.93,8.93,0,1,0-3.08,12.26A8.92,8.92,0,0,0,660.39,370Zm-13.2,7.91a6.45,6.45,0,1,1,8.85,2.22A6.46,6.46,0,0,1,647.19,377.93Z"/><path class="cls-25" d="M659.1,373.6a6.61,6.61,0,0,1,.08,1l2.48-.16a7.93,7.93,0,0,0-.08-1Z"/><path class="cls-25" d="M657.46,367l-1.52,2a6.33,6.33,0,0,1,2.32,2.28,6.91,6.91,0,0,1,.6,1.3l2.31-.91a9,9,0,0,0-.78-1.66A8.83,8.83,0,0,0,657.46,367Z"/><path class="cls-26" d="M657.3,380.11a19.07,19.07,0,0,0,2-4.8.89.89,0,0,1-1.24.58,4.22,4.22,0,0,0,.73.27.89.89,0,0,1-.65-1A5.46,5.46,0,0,1,656,379a.88.88,0,0,1,1.3,1.15Zm1.94-5.66a4.09,4.09,0,0,1-.42-.16.89.89,0,0,0-1.24.58,17.31,17.31,0,0,1-1.81,4.35.89.89,0,0,0,.18,1.11.88.88,0,0,0,1.12,0,7.25,7.25,0,0,0,2.82-5A.89.89,0,0,0,659.24,374.45Z"/><ellipse class="cls-1" cx="168" cy="296.03" rx="31.41" ry="27"/><ellipse class="cls-1" cx="168" cy="334.03" rx="31.41" ry="27"/><path class="cls-27" d="M232.34,259l58.15,5.83a58.43,58.43,0,1,1-11.85-41.5Z"/><circle class="cls-28" cx="219.68" cy="229.27" r="9.3"/></g></g></svg>