<svg xmlns="http://www.w3.org/2000/svg" viewBox="0 0 158 158"><defs><style>.cls-1{fill:#fff;}.cls-2{fill:#ffdfc2;}.cls-3{fill:#0c0c0c;}.cls-4,.cls-5,.cls-6{fill:none;stroke:#0c0c0c;stroke-linecap:round;stroke-miterlimit:10;}.cls-4{stroke-width:4.35px;}.cls-5{stroke-width:4.35px;}.cls-6{stroke-width:6.76px;}</style></defs><title>Asset 90</title><g id="Layer_2" data-name="Layer 2"><g id="Layer_1-2" data-name="Layer 1"><rect class="cls-1" width="158" height="158" rx="31.5" ry="31.5"/><path class="cls-2" d="M97.65,75.83H59c-7.11,0-12,6.3-11,13.52l3.87,26.56A12.44,12.44,0,0,0,53.28,120v0c3.78,7.2,13.85,12.77,25,12.77s21.23-5.57,25-12.77v0a12.44,12.44,0,0,0,1.42-4.06l3.87-26.56C109.66,82.13,104.76,75.83,97.65,75.83Z"/><rect class="cls-1" x="85.18" y="97.7" width="10.75" height="12.4" rx="2.77" ry="2.77"/><circle class="cls-3" cx="90.25" cy="103.9" r="2.89"/><rect class="cls-1" x="62.85" y="97.7" width="10.75" height="12.4" rx="2.77" ry="2.77"/><circle class="cls-3" cx="67.92" cy="103.9" r="2.89"/><path class="cls-4" d="M53.12,87.27s3,6,16.55,4.65"/><path class="cls-3" d="M118.83,67.49C121.21,82.8,104,95,78.93,94.63,56.89,94.27,39,82.48,39,67.49S56.89,40.35,78.93,40.35,116.52,52.67,118.83,67.49Z"/><path class="cls-5" d="M39.85,53.88C48.92,45.72,55,43.17,59,44.75"/><path class="cls-6" d="M59.18,46.1s2-9.17,27.21-4.66"/><path class="cls-3" d="M48.79,50.58a2.2,2.2,0,0,0-3.57-2.18c-6.29,5.47-15.09,17.49-4.28,37,14.56,26.29,5.54-14.79,4.4-19.83a2.29,2.29,0,0,1,0-1Z"/><path class="cls-3" d="M45.77,81.3a2.2,2.2,0,0,0-.64,1.86c.47,3.33,1.91,13.16,2.72,13.63a10.08,10.08,0,0,0,3.64.2,2.2,2.2,0,0,0,2.07-2.36L52.44,79.81a2.2,2.2,0,0,0-3.73-1.4Z"/><path class="cls-3" d="M114.75,70.21l-6,30.79a2.2,2.2,0,0,1-2.15,1.78h0a2.2,2.2,0,0,1-2.2-2.2V83.92"/><path class="cls-5" d="M70.79,91.13s4.12,5.34,17.14,1.33"/><path class="cls-5" d="M88.73,89.94s4.7,4.83,17.18-.62"/><path class="cls-3" d="M115.24,67.4s4.89,10.91-4.36,22.6"/><path class="cls-6" d="M81.43,47.51s4.95-8,27.21,4.6"/><ellipse class="cls-2" cx="52.09" cy="101.42" rx="5.99" ry="7.35"/><ellipse class="cls-2" cx="106.56" cy="102.11" rx="5.99" ry="7.35"/></g></g></svg>