<svg xmlns="http://www.w3.org/2000/svg" viewBox="0 0 561.92 517.91"><defs><style>.cls-1{fill:#eaeae8;}.cls-2{fill:#d8d8d8;}.cls-3{fill:#0dc6ff;}.cls-4{fill:#09a5c9;}.cls-5{fill:#d3d3d3;}.cls-6{fill:#b7805a;}.cls-7{fill:#70f9f9;}.cls-8{fill:#bdfcff;}.cls-9{fill:#a5683f;}.cls-10{fill:#bfbfbf;}.cls-11{fill:#a3a3a3;}.cls-12{fill:#fff;}.cls-13{fill:#0c0c0c;}</style></defs><title>Asset 72</title><g id="Layer_2" data-name="Layer 2"><g id="Layer_1-2" data-name="Layer 1"><rect class="cls-1" x="32.45" y="266.53" width="520.53" height="251.37"/><rect class="cls-2" x="372.18" y="266.53" width="180.81" height="251.37"/><rect class="cls-1" x="151.47" y="118.24" width="233.19" height="176.38"/><rect class="cls-2" x="372.18" y="23.01" width="180.81" height="271.61"/><rect class="cls-3" y="291.51" width="372.18" height="15.13"/><rect class="cls-4" x="365.69" y="291.51" width="196.22" height="15.13"/><polygon class="cls-3" points="557.23 19.52 354.52 123.37 124.98 123.37 354.52 19.52 557.23 19.52"/><polygon class="cls-4" points="557.23 19.52 557.23 29.47 354.52 135.18 127.08 135.18 124.98 123.37 354.52 123.37 557.23 19.52"/><rect class="cls-5" x="10.39" y="229.28" width="141.08" height="64.34"/><rect class="cls-1" x="5.9" y="272.81" width="145.57" height="9.02"/><rect class="cls-1" x="5.9" y="256.94" width="145.57" height="9.02"/><rect class="cls-1" x="5.9" y="241.07" width="145.57" height="9.02"/><rect class="cls-6" x="238.8" y="318.41" width="101.42" height="178.79"/><rect class="cls-7" x="245.31" y="324.7" width="88.4" height="166.2"/><rect class="cls-8" x="250.89" y="324.7" width="82.81" height="166.2"/><rect class="cls-6" x="227.35" y="490.9" width="112.86" height="6.29"/><rect class="cls-9" x="340.22" y="318.41" width="3.46" height="178.79"/><rect class="cls-6" x="421.64" y="360.08" width="115.28" height="157.82"/><rect class="cls-9" x="522.09" y="360.08" width="14.84" height="157.82"/><rect class="cls-10" x="246.85" y="13.38" width="26.77" height="74.78"/><rect class="cls-11" x="273.62" y="13.38" width="23.79" height="74.78"/><rect class="cls-1" x="239.75" width="64.58" height="18"/><rect class="cls-6" x="60.98" y="318.41" width="101.42" height="178.79"/><rect class="cls-7" x="67.49" y="324.7" width="88.4" height="166.2"/><rect class="cls-8" x="73.07" y="324.7" width="82.81" height="166.2"/><rect class="cls-6" x="49.53" y="490.9" width="112.86" height="6.29"/><rect class="cls-9" x="162.4" y="318.41" width="3.46" height="178.79"/><rect class="cls-12" x="290.38" y="156.55" width="76.31" height="88.05" rx="19.63" ry="19.63"/><circle class="cls-13" cx="310.92" cy="200.58" r="20.54"/><rect class="cls-12" x="131.89" y="156.55" width="76.31" height="88.05" rx="19.63" ry="19.63"/><circle class="cls-13" cx="152.43" cy="200.58" r="20.54"/></g></g></svg>