<svg xmlns="http://www.w3.org/2000/svg" viewBox="0 0 144.72 134.3"><defs><style>.cls-1{fill:#ffc599;}.cls-2{fill:#ffd3b6;}.cls-3{fill:#ff7676;}.cls-4{fill:#fc4949;}.cls-5{fill:#fff;}</style></defs><title>Asset 47</title><g id="Layer_2" data-name="Layer 2"><g id="Layer_1-2" data-name="Layer 1"><rect class="cls-1" x="133.98" width="10.74" height="134.3"/><rect class="cls-2" x="125.64" width="9.64" height="134.3"/><rect class="cls-2" width="125.64" height="12.45"/><rect class="cls-3" x="6.92" y="24.65" width="106.98" height="31.19"/><rect class="cls-4" x="113.9" y="24.65" width="2.4" height="31.19"/><path class="cls-5" d="M23.69,42.24v-6.5c0-1.87,1-3,2.8-3s2.81,1.11,2.81,3V37H27.5V35.61c0-.79-.38-1.12-.95-1.12s-1,.33-1,1.12v6.77c0,.8.38,1.11,1,1.11s.95-.31.95-1.11V40.53h1.8v1.71c0,1.87-1,3-2.81,3S23.69,44.11,23.69,42.24Z"/><path class="cls-5" d="M30.34,42.17V35.8c0-1.93,1-3,2.89-3s2.89,1.11,2.89,3v6.37c0,1.94-1,3-2.89,3S30.34,44.11,30.34,42.17Zm3.87.12V35.68c0-.86-.38-1.19-1-1.19s-1,.33-1,1.19v6.61c0,.87.38,1.2,1,1.2S34.21,43.16,34.21,42.29Z"/><path class="cls-5" d="M37.4,32.93h2.91c1.9,0,2.83,1.06,2.83,3v6.12c0,1.94-.93,3-2.83,3H37.4Zm2.87,10.38c.61,0,1-.31,1-1.17v-6.3c0-.87-.36-1.18-1-1.18h-1v8.65Z"/><path class="cls-5" d="M44.43,32.93h5.19v1.73H46.33v3.2h2.61v1.73H46.33v3.72h3.29v1.74H44.43Z"/><path class="cls-5" d="M53.48,32.93h5v1.73H55.38V38h2.46v1.73H55.38v5.28h-1.9Z"/><path class="cls-5" d="M60.35,32.93h2.58l2,12.12H63l-.35-2.41v0H60.49l-.35,2.38H58.38ZM62.43,41l-.85-6h0l-.83,6Z"/><path class="cls-5" d="M65.67,42.24v-6.5c0-1.87,1-3,2.8-3s2.8,1.11,2.8,3V37H69.48V35.61c0-.79-.39-1.12-1-1.12s-1,.33-1,1.12v6.77c0,.8.38,1.11,1,1.11s1-.31,1-1.11V40.53h1.79v1.71c0,1.87-1,3-2.8,3S65.67,44.11,65.67,42.24Z"/><path class="cls-5" d="M73.91,34.66h-2V32.93H77.8v1.73h-2V45.05h-1.9Z"/><path class="cls-5" d="M78.51,42.17V35.8c0-1.93,1-3,2.89-3s2.89,1.11,2.89,3v6.37c0,1.94-1,3-2.89,3S78.51,44.11,78.51,42.17Zm3.88.12V35.68c0-.86-.38-1.19-1-1.19s-1,.33-1,1.19v6.61c0,.87.38,1.2,1,1.2S82.39,43.16,82.39,42.29Z"/><path class="cls-5" d="M85.57,32.93h2.82c2,0,2.83.92,2.83,2.79v.74c0,1.25-.4,2-1.25,2.39v0c1,.3,1.26,1.2,1.26,2.57v2.12a3.64,3.64,0,0,0,.21,1.48H89.5a3.9,3.9,0,0,1-.17-1.49V41.34c0-1.12-.33-1.49-1.19-1.49h-.66v5.2H85.57Zm2.6,5.19c.71,0,1.14-.31,1.14-1.28v-.93c0-.87-.29-1.25-1-1.25h-.86v3.46Z"/><path class="cls-5" d="M94,39.89l-2.3-7h2L95,37.38h0l1.29-4.45h1.86l-2.31,7v5.16H94Z"/><rect class="cls-3" x="25.74" y="12.45" width="2.31" height="12.19"/><rect class="cls-4" x="28.04" y="12.45" width="2.31" height="12.19"/><rect class="cls-3" x="94.28" y="12.45" width="2.31" height="12.19"/><rect class="cls-4" x="96.59" y="12.45" width="2.31" height="12.19"/></g></g></svg>