<svg xmlns="http://www.w3.org/2000/svg" viewBox="0 0 521.98 166.11"><defs><style>.cls-1{fill:#fff;}.cls-2{fill:#7f5336;}.cls-3{fill:#d3d3d3;}.cls-4{fill:#8d6042;}.cls-5{fill:none;stroke:#a5a5a5;stroke-miterlimit:10;stroke-width:0.91px;}</style></defs><title>Asset 18</title><g id="Layer_2" data-name="Layer 2"><g id="Layer_1-2" data-name="Layer 1"><rect class="cls-1" y="13.19" width="36.83" height="149.42"/><rect class="cls-2" x="0.04" y="152.64" width="484.44" height="13.47"/><rect class="cls-1" x="36.83" y="13.19" width="127.33" height="149.42"/><rect class="cls-1" x="163.81" y="13.19" width="127.33" height="148.59"/><rect class="cls-3" x="66.01" y="17.58" width="68.97" height="6.72" rx="2.28" ry="2.28"/><rect class="cls-3" x="192.99" y="17.58" width="68.97" height="6.72" rx="2.28" ry="2.28"/><rect class="cls-1" x="431.38" y="13.19" width="90.19" height="35.2"/><rect class="cls-3" x="441.99" y="17.66" width="68.97" height="4.15" rx="1.96" ry="1.96"/><rect class="cls-1" x="431.38" y="48.03" width="90.19" height="35.2"/><rect class="cls-3" x="441.99" y="52.49" width="68.97" height="4.15" rx="1.96" ry="1.96"/><rect class="cls-1" x="431.38" y="82.86" width="90.19" height="35.2"/><rect class="cls-3" x="441.99" y="87.33" width="68.97" height="4.15" rx="1.96" ry="1.96"/><rect class="cls-1" x="431.38" y="117.69" width="90.19" height="35.2"/><rect class="cls-3" x="441.99" y="122.16" width="68.97" height="4.15" rx="1.96" ry="1.96"/><rect class="cls-1" x="291.16" y="13.19" width="140.6" height="69.95"/><rect class="cls-3" x="312.65" y="17.76" width="101.04" height="4.15" rx="1.96" ry="1.96"/><rect class="cls-1" x="291.16" y="82.76" width="140.6" height="69.95"/><rect class="cls-3" x="312.65" y="87.33" width="101.04" height="4.15" rx="1.96" ry="1.96"/><rect class="cls-4" x="36.75" y="152.64" width="484.44" height="13.47"/><rect class="cls-2" x="0.04" width="485.94" height="13.2"/><rect class="cls-4" x="36.83" width="485.15" height="13.2"/><line class="cls-5" x1="36.83" y1="13.19" x2="36.83" y2="152.64"/><line class="cls-5" x1="163.81" y1="13.19" x2="163.81" y2="152.64"/><line class="cls-5" x1="291.15" y1="13.19" x2="291.15" y2="152.64"/><line class="cls-5" x1="431.76" y1="13.19" x2="431.76" y2="152.64"/><line class="cls-5" x1="291.16" y1="83.14" x2="431.38" y2="83.14"/><line class="cls-5" x1="431.38" y1="48.39" x2="521.58" y2="48.39"/><line class="cls-5" x1="431.38" y1="83.12" x2="521.58" y2="83.12"/><line class="cls-5" x1="431.38" y1="118.52" x2="521.58" y2="118.52"/></g></g></svg>