<svg xmlns="http://www.w3.org/2000/svg" viewBox="0 0 772.18 519.6"><defs><style>.cls-1{fill:#04ad04;}.cls-2{fill:#896800;}.cls-3{fill:#21d821;}.cls-4{fill:none;stroke:#d6d6d6;stroke-linecap:round;stroke-linejoin:round;stroke-width:8.77px;}.cls-5{fill:#d6d6d6;}.cls-6{fill:#f9f9f9;}.cls-7{fill:#c1c1c1;}.cls-8{fill:#ddd;}.cls-9{fill:#bababa;}.cls-10{fill:#a5a5a5;}.cls-11{fill:#c6c6c6;}.cls-12{fill:#999;}</style></defs><title>Asset 57</title><g id="Layer_2" data-name="Layer 2"><g id="Layer_1-2" data-name="Layer 1"><circle class="cls-1" cx="81.91" cy="435.22" r="27.24"/><circle class="cls-1" cx="89.21" cy="401.62" r="27.24"/><circle class="cls-1" cx="119.34" cy="392.83" r="27.24"/><ellipse class="cls-1" cx="142.48" cy="389.87" rx="21.9" ry="24.12" transform="translate(-50.83 22.54) rotate(-7.68)"/><ellipse class="cls-1" cx="148" cy="360.24" rx="21.9" ry="24.12" transform="translate(-46.82 23.01) rotate(-7.68)"/><ellipse class="cls-1" cx="187.92" cy="335.59" rx="21.9" ry="24.12" transform="translate(-43.17 28.13) rotate(-7.68)"/><ellipse class="cls-1" cx="193.44" cy="305.96" rx="21.9" ry="24.12" transform="matrix(0.99, -0.13, 0.13, 0.99, -39.16, 28.6)"/><ellipse class="cls-1" cx="214.93" cy="313.06" rx="21.9" ry="24.12" transform="translate(-39.91 31.54) rotate(-7.68)"/><ellipse class="cls-1" cx="434.72" cy="314" rx="29" ry="26.87" transform="translate(-97.2 245.86) rotate(-28.54)"/><ellipse class="cls-1" cx="470.48" cy="307.71" rx="29" ry="26.87" transform="translate(-89.85 262.18) rotate(-28.54)"/><ellipse class="cls-1" cx="471.94" cy="335.34" rx="29" ry="26.87" transform="matrix(0.88, -0.48, 0.48, 0.88, -102.87, 266.23)"/><ellipse class="cls-1" cx="495.61" cy="363.38" rx="29" ry="26.87" transform="translate(-88.75 173.12) rotate(-18.21)"/><ellipse class="cls-1" cx="531.92" cy="363.61" rx="29" ry="26.87" transform="translate(-87 184.48) rotate(-18.21)"/><ellipse class="cls-1" cx="528.4" cy="391.04" rx="29" ry="26.87" transform="translate(-95.75 184.75) rotate(-18.21)"/><ellipse class="cls-1" cx="563.45" cy="446.16" rx="26.87" ry="29" transform="matrix(0.18, -0.98, 0.98, 0.18, 23.67, 920.69)"/><ellipse class="cls-1" cx="595.24" cy="463.7" rx="26.87" ry="29" transform="translate(32.53 966.37) rotate(-79.69)"/><ellipse class="cls-1" cx="579.05" cy="486.13" rx="26.87" ry="29" transform="translate(-2.83 968.86) rotate(-79.69)"/><rect class="cls-2" x="79.02" y="353.37" width="15.75" height="86.73" rx="7.87" ry="7.87" transform="translate(-255.09 177.65) rotate(-45)"/><path class="cls-3" d="M101.48,361.66,53.66,409.47a5.65,5.65,0,0,1-9.15-1.67L5.14,320.61a5.65,5.65,0,0,1,7.48-7.48L99.81,352.5A5.66,5.66,0,0,1,101.48,361.66Z"/><path class="cls-3" d="M66.54,334.79,26.8,374.53c-2.33,2.33-5.7,2.17-6.53-.31L.18,314.39c-1.09-3.26,3-7.31,6.22-6.22l59.83,20.09C68.7,329.09,68.86,332.46,66.54,334.79Z"/><rect class="cls-2" x="240.44" y="237.01" width="15.75" height="86.73" rx="7.87" ry="7.87" transform="translate(-71.62 85.66) rotate(-17.14)"/><path class="cls-3" d="M277.6,256.18,213,276.11a5.65,5.65,0,0,1-7.31-5.75l5.93-95.48a5.65,5.65,0,0,1,10.11-3.12L280.4,247.3A5.66,5.66,0,0,1,277.6,256.18Z"/><path class="cls-3" d="M259.26,216.09l-53.71,16.57c-3.14,1-6-.74-5.62-3.32l10.19-62.28c.56-3.39,6-5.08,8.41-2.59L262,210.18C263.84,212.07,262.41,215.13,259.26,216.09Z"/><rect class="cls-2" x="588.63" y="444.14" width="15.75" height="86.73" rx="7.87" ry="7.87" transform="translate(545.54 -281.18) rotate(46.95)"/><path class="cls-3" d="M631.07,503.28l-46.16-49.42a5.65,5.65,0,0,1,2-9.09l88.48-36.38a5.65,5.65,0,0,1,7.22,7.73l-42.31,85.8A5.66,5.66,0,0,1,631.07,503.28Z"/><path class="cls-3" d="M659.12,469.27,620.75,428.2c-2.25-2.4-2-5.77.53-6.51l60.47-18c3.3-1,7.21,3.2,6,6.42l-22.11,59.12C664.74,471.63,661.36,471.67,659.12,469.27Z"/><circle class="cls-1" cx="235.52" cy="326.57" r="22.73"/><circle class="cls-1" cx="300.84" cy="301.55" r="22.73"/><circle class="cls-1" cx="278.11" cy="315.13" r="22.73"/><circle class="cls-1" cx="385.73" cy="300.61" r="22.73"/><path class="cls-4" d="M531.81,317.88c-17.79-1.91-35.59-3.73-53.35-5.95"/><path class="cls-4" d="M531.81,317.88c1.59,17.75,3.15,35.5,5.12,53.21"/><path class="cls-5" d="M561.92,352.64,500,289.51a6.81,6.81,0,0,1,.16-9.59l16.23-16a6.77,6.77,0,0,1,9.57,0l61.94,63.14a6.82,6.82,0,0,1-.17,9.59l-16.22,16A6.78,6.78,0,0,1,561.92,352.64Z"/><path class="cls-6" d="M518.46,293.7h0a6.52,6.52,0,0,1,.16-9.19l2.84-2.79a6.5,6.5,0,0,1,9.17,0h0a6.54,6.54,0,0,1-.16,9.2l-2.84,2.79A6.49,6.49,0,0,1,518.46,293.7Z"/><path class="cls-6" d="M531.27,306.76h0a6.53,6.53,0,0,1,.15-9.19l2.84-2.8a6.5,6.5,0,0,1,9.18,0h0a6.52,6.52,0,0,1-.16,9.19l-2.84,2.8A6.51,6.51,0,0,1,531.27,306.76Z"/><path class="cls-6" d="M544.07,319.81h0a6.52,6.52,0,0,1,.16-9.19l2.84-2.8a6.49,6.49,0,0,1,9.17,0h0a6.53,6.53,0,0,1-.15,9.19l-2.84,2.8A6.5,6.5,0,0,1,544.07,319.81Z"/><path class="cls-6" d="M556.88,332.86h0a6.52,6.52,0,0,1,.16-9.19l2.84-2.8a6.51,6.51,0,0,1,9.17,0h0a6.54,6.54,0,0,1-.16,9.2l-2.84,2.79A6.49,6.49,0,0,1,556.88,332.86Z"/><path class="cls-7" d="M721.74,236.64h0a3.49,3.49,0,0,1,.08-4.9l32.35-31.87a3.48,3.48,0,0,1,4.89,0h0a3.49,3.49,0,0,1-.08,4.91l-32.35,31.86A3.46,3.46,0,0,1,721.74,236.64Z"/><path class="cls-8" d="M658.41,316.82l-17.75-18.09a6,6,0,0,1,.14-8.49q37.08-36.51,74.14-73a6,6,0,0,1,8.47,0l17.75,18.1a6,6,0,0,1-.14,8.48l-74.14,73A6,6,0,0,1,658.41,316.82Z"/><path class="cls-9" d="M621.07,361.71l-25.83-26.34a7,7,0,0,1,.16-9.91l72.7-71.61a7,7,0,0,1,9.89,0l25.84,26.34a7,7,0,0,1-.17,9.91L631,361.71A7,7,0,0,1,621.07,361.71Z"/><path class="cls-10" d="M521.69,464.31c-9.76-12.45-20-24.54-30.61-36.28-4-4.44-3.95-11.24.07-15,39.61-37,78.52-74.38,117.12-112.4a10.66,10.66,0,0,1,15.05,0l32.95,33.59a10.72,10.72,0,0,1-.26,15.09C616.29,388.38,576.5,427.42,536.23,466,532.06,470,525.5,469.15,521.69,464.31Z"/><path class="cls-8" d="M769.43,202.31a9,9,0,1,1,.22-12.79A9,9,0,0,1,769.43,202.31Z"/><path class="cls-7" d="M617.39,130.27h0a3.48,3.48,0,0,1,.09-4.9l32.34-31.86a3.46,3.46,0,0,1,4.89,0h0a3.47,3.47,0,0,1-.08,4.9l-32.35,31.86A3.46,3.46,0,0,1,617.39,130.27Z"/><path class="cls-8" d="M554.06,210.46l-17.75-18.1a6,6,0,0,1,.14-8.48l74.15-73a6,6,0,0,1,8.46,0l17.76,18.1a6,6,0,0,1-.15,8.48l-74.14,73.05A6,6,0,0,1,554.06,210.46Z"/><path class="cls-9" d="M516.72,255.34,490.89,229a7,7,0,0,1,.17-9.9l72.7-71.62a7,7,0,0,1,9.88,0l25.84,26.33a7,7,0,0,1-.17,9.91l-72.7,71.62A7,7,0,0,1,516.72,255.34Z"/><path class="cls-10" d="M418.93,356.25q-17.62-16-36.22-30.83c-3.85-3.06-3.15-8.59,1-12.82,39.59-39.92,80.13-78.93,120.18-118.39a10.65,10.65,0,0,1,15.05,0q16.49,16.78,32.95,33.58a10.71,10.71,0,0,1-.26,15.09C512.83,281.13,473.84,319,434,356.21A11.39,11.39,0,0,1,418.93,356.25Z"/><path class="cls-8" d="M665.08,95.94a9,9,0,1,1,.22-12.79A9,9,0,0,1,665.08,95.94Z"/><path class="cls-11" d="M192.32,361.4,171,370c-2.46,1-5.5-.84-6.74-4L81.2,150.82a4,4,0,0,1,2.12-5.15l16.89-6.8a4,4,0,0,1,5.1,2.25L194.38,353.8C195.71,357,194.78,360.4,192.32,361.4Z"/><rect class="cls-11" x="42.34" y="-1.78" width="4.59" height="53.84" rx="2.3" ry="2.3" transform="translate(-6.16 18.48) rotate(-21.92)"/><rect class="cls-8" x="54.32" y="31.6" width="10.85" height="62.19" rx="0.94" ry="0.94" transform="translate(-19.09 26.84) rotate(-21.92)"/><rect class="cls-9" x="56.38" y="74.59" width="19.67" height="8.35" transform="translate(-24.62 30.42) rotate(-21.92)"/><rect class="cls-8" x="58.4" y="82.55" width="19.67" height="2.5" transform="translate(-26.35 31.54) rotate(-21.92)"/><rect class="cls-8" x="56.53" y="77.9" width="19.67" height="2.5" transform="translate(-24.75 30.5) rotate(-21.92)"/><rect class="cls-9" x="61.52" y="84.45" width="19.67" height="14.19" transform="translate(-29.02 33.26) rotate(-21.92)"/><path class="cls-8" d="M117.73,140.55,71.85,159a2.58,2.58,0,0,1-3.12-1.3L40.42,104.87c-1-1.81-.64-3.77.76-4.33L99.35,77.13c1.4-.56,3,.62,3.55,2.6l16.18,57.72A2.59,2.59,0,0,1,117.73,140.55Z"/><rect class="cls-12" x="39.51" y="95.7" width="70.59" height="8.85" rx="1.72" ry="1.72" transform="translate(-31.97 35.17) rotate(-21.92)"/><rect class="cls-12" x="48.26" y="111.09" width="65.48" height="8.85" rx="1.65" ry="1.65" transform="translate(-37.27 38.59) rotate(-21.92)"/><rect class="cls-12" x="56.69" y="126.48" width="61.01" height="8.85" rx="1.6" ry="1.6" transform="translate(-42.57 42.02) rotate(-21.92)"/><rect class="cls-12" x="64.48" y="141.87" width="57.82" height="8.85" rx="1.55" ry="1.55" transform="translate(-47.86 45.44) rotate(-21.92)"/></g></g></svg>