<svg xmlns="http://www.w3.org/2000/svg" viewBox="0 0 63.15 64.83"><defs><style>.cls-1{fill:#4c4c4c;}</style></defs><title>Asset 94</title><g id="Layer_2" data-name="Layer 2"><g id="Layer_1-2" data-name="Layer 1"><path class="cls-1" d="M52,36.94c1.29,21.36-12.5,23.62-16.48,23.83l-.71.85h0a17.89,17.89,0,0,0,12.56-5.27c4.35-4.53,6.13-11.55,5.32-20.86Z"/><path class="cls-1" d="M46.19,55.18a16.08,16.08,0,0,1-10,4.69l-.73.9c4-.21,17.77-2.47,16.48-23.83l-.76,1.42C51.44,45.8,49.76,51.45,46.19,55.18Z"/><path class="cls-1" d="M10.48,35.2l-.46-1a.8.8,0,0,0-.34.58c-1,9.65.81,16.89,5.26,21.54A17.89,17.89,0,0,0,27.5,61.62h.44a.82.82,0,0,0,.44-.17l-.54-.66C26.78,60.82,8,61.17,10.48,35.2Z"/><path class="cls-1" d="M16.14,55.2c-3.85-4-5.51-10.26-5-18.56-.24-.48-.48-1-.71-1.44C8,61.17,26.78,60.82,27.84,60.78L27.16,60A16.32,16.32,0,0,1,16.14,55.2Z"/><path class="cls-1" d="M55,49.05a.84.84,0,0,0,.13,1.66h.13c2.48-.4,4.92-.85,7.25-1.34a.83.83,0,0,0,.64-1,.81.81,0,0,0-1-.64C59.84,48.22,57.43,48.67,55,49.05Z"/><path class="cls-1" d="M.67,49.36c2.32.45,4.75.88,7.22,1.25H8a.82.82,0,0,0,.82-.7.83.83,0,0,0-.69-1C5.7,48.6,3.29,48.18,1,47.73a.82.82,0,0,0-1,.65A.83.83,0,0,0,.67,49.36Z"/><path class="cls-1" d="M11.33,35c0,.32-.06.64-.08,1l3.22,4.8C13.31,38.86,12.25,36.92,11.33,35Z"/><path class="cls-1" d="M10.91,34.17a25.69,25.69,0,0,1-2.76-9.56c-.28-.27-.56-.55-.83-.85,0,.19,0,.39,0,.59,0,2.83,1,6.25,2.71,9.88a.94.94,0,0,1,.57-.17A.87.87,0,0,1,10.91,34.17Z"/><path class="cls-1" d="M52.36,34.28a.79.79,0,0,1,.28.53l.06.68c2-4.1,3.31-8,3.31-11.14,0-.27,0-.53,0-.79-.26.3-.53.59-.82.87C55.15,27.22,54.06,30.64,52.36,34.28Z"/><path class="cls-1" d="M27.34,60h.51a.72.72,0,0,1,.53.17c-1.85-2.26-4.3-5.34-6.86-8.83Z"/><path class="cls-1" d="M31.66.83a23.47,23.47,0,0,1,18.46,9L51,9.6a24.31,24.31,0,0,0-38.73,0l.89.19A23.48,23.48,0,0,1,31.66.83Z"/><path class="cls-1" d="M33.88,61.39C32.51,63,31.66,64,31.66,64s-1.18-1.34-3-3.56a1,1,0,0,1,.08.29.85.85,0,0,1-.35.71c1.48,1.77,2.47,2.9,2.66,3.11a.8.8,0,0,0,.62.28.82.82,0,0,0,.62-.28c.18-.2,1.11-1.26,2.5-2.93h-.41A.79.79,0,0,1,33.88,61.39Z"/><path class="cls-1" d="M36.22,59.87c4.13-5.06,10.58-13.46,15-21.51,0-.53,0-1.07-.08-1.62-4.54,8.64-11.8,18-16.06,23.21C35.37,59.94,35.75,59.92,36.22,59.87Z"/><path class="cls-1" d="M52.36,34.28c-.17.35-.34.7-.52,1,0,.55.1,1.08.13,1.61l.73-1.45-.06-.68A.79.79,0,0,0,52.36,34.28Z"/><path class="cls-1" d="M34.42,60.78l.15-.22-.69.83a.79.79,0,0,0,.49.22h.41l.71-.85C34.82,60.8,34.42,60.78,34.42,60.78Z"/><path class="cls-1" d="M35.07,60l-.5.61-.15.22s.4,0,1.07,0l.73-.9C35.75,59.92,35.37,59.94,35.07,60Z"/><path class="cls-1" d="M51.13,36.74c0,.55.06,1.09.08,1.62L52,36.94c0-.53-.08-1.06-.13-1.61C51.61,35.8,51.38,36.26,51.13,36.74Z"/><path class="cls-1" d="M14.47,40.79,11.25,36l-.06.65c4.41,8.59,11.55,17.9,16,23.31h.18l-5.82-8.66C19.13,48,16.64,44.41,14.47,40.79Z"/><path class="cls-1" d="M10.51,34.89l.74,1.1c0-.31.05-.63.08-1-.14-.29-.29-.59-.42-.87a.87.87,0,0,0-.32-.11.94.94,0,0,0-.57.17l.46,1Z"/><path class="cls-1" d="M28.73,60.73a1,1,0,0,0-.08-.29l-.27-.32a.72.72,0,0,0-.53-.17h-.51l.56.83h-.06l.54.66A.85.85,0,0,0,28.73,60.73Z"/><path class="cls-1" d="M27.84,60.78h.06L27.34,60h-.18Z"/><path class="cls-1" d="M11.25,36l-.74-1.1,0,.31c.23.48.47,1,.71,1.44Z"/><path class="cls-1" d="M51.51,34.13a.81.81,0,0,1,.22-.07.88.88,0,0,1,.63.22c1.7-3.64,2.79-7.06,2.81-9.85-.28.28-.57.55-.87.8A26.82,26.82,0,0,1,51.51,34.13Z"/><path class="cls-1" d="M34.47,60H35l6.26-9.31c-4.18,5.69-8.1,10.36-9.58,12.09C28.06,58.53,10.07,37,9,25.38c-.3-.25-.59-.5-.87-.77a25.69,25.69,0,0,0,2.76,9.56.8.8,0,0,1,.42.8V35c.92,1.88,2,3.82,3.14,5.75l7,10.5c2.56,3.49,5,6.57,6.86,8.83l.27.32c1.83,2.22,3,3.56,3,3.56s.85-1,2.22-2.61a.83.83,0,0,1-.29-.65A.84.84,0,0,1,34.47,60Z"/><path class="cls-1" d="M31.66,1.66A22.64,22.64,0,0,1,49.21,10l.91-.2a23.5,23.5,0,0,0-36.95,0l.91.21A22.66,22.66,0,0,1,31.66,1.66Z"/><path class="cls-1" d="M51.07,36c0-.27,0-.54-.07-.81-.85,1.7-1.82,3.44-2.87,5.18Z"/><path class="cls-1" d="M48.13,40.36c-2.12,3.53-4.54,7.07-6.89,10.28L35,60h.09c4.26-5.2,11.52-14.57,16.06-23.21L51.07,36Z"/><path class="cls-1" d="M51.51,34.13q-.24.52-.51,1c0,.27,0,.54.07.81l.74-1.1c0,.15,0,.29,0,.44.18-.35.35-.7.52-1a.88.88,0,0,0-.63-.22A.81.81,0,0,0,51.51,34.13Z"/><path class="cls-1" d="M34.47,60a.84.84,0,0,0-.88.79.83.83,0,0,0,.29.65l.69-.83L35,60Z"/><path class="cls-1" d="M35,60l-.41.61.5-.61Z"/><path class="cls-1" d="M51.07,36l.06.75c.25-.48.48-.94.71-1.41,0-.15,0-.29,0-.44Z"/><path class="cls-1" d="M14.47,40.79c2.17,3.62,4.66,7.24,7,10.5Z"/><path class="cls-1" d="M10.91,34.17c.13.28.28.58.42.87V35A.8.8,0,0,0,10.91,34.17Z"/><rect class="cls-1" x="28.79" y="26.02" width="5.57" height="5.57" transform="translate(-11.12 30.77) rotate(-45)"/><path class="cls-1" d="M49.78,16.68a5.05,5.05,0,0,1-8.27,1.82l-2.69.59a7.7,7.7,0,0,0,7.7,2.76l.21-.05a7.71,7.71,0,0,0,5-3.72l0,0,.21-.4.79-1.54s0-.05,0-.07Z"/><path class="cls-1" d="M52.76,16s0,.05,0,.07l0-.08Z"/><path class="cls-1" d="M55.37,12,59,11.23l-3.74,7.25c.1.42.2.84.28,1.27,0-.1.11-.21.15-.3l4.05-7.83a.82.82,0,0,0-.08-.89.85.85,0,0,0-.84-.31l-3.66.81-2.66.59c.15.24.29.5.43.75Z"/><path class="cls-1" d="M47.44,25.05l-.21.05a11,11,0,0,1-13-8.06h-.86a11.81,11.81,0,0,0,14.06,8.87l.21-.05a11.82,11.82,0,0,0,6.58-4.05c0-.39-.09-.77-.16-1.14A10.93,10.93,0,0,1,47.44,25.05Z"/><path class="cls-1" d="M37.7,15.93l13.56-3c-.15-.26-.3-.51-.46-.75L37.51,15.13A5.47,5.47,0,0,1,37.7,15.93Z"/><path class="cls-1" d="M33.43,16.27a.88.88,0,0,0-.12.63c0,.05,0,.09,0,.14h.86c0-.11-.06-.21-.08-.32l3.57-.79a5.47,5.47,0,0,0-.19-.8L34,15.91A.82.82,0,0,0,33.43,16.27Z"/><path class="cls-1" d="M55,19.07l-.29.55c.08.4.15.81.22,1.22.16-.24.32-.48.46-.74h0l0-.05c.06-.1.11-.2.16-.3-.08-.43-.18-.85-.28-1.27Z"/><path class="cls-1" d="M53,12.57c-.14-.25-.28-.51-.43-.75l-.85.18c.15.25.3.5.44.76Z"/><path class="cls-1" d="M51.26,13l.86-.19c-.14-.26-.29-.51-.44-.76l-.88.2C51,12.44,51.11,12.69,51.26,13Z"/><path class="cls-1" d="M54.68,19.65l0,.05h0a10.08,10.08,0,0,1-.62,1c.07.37.12.75.16,1.14.25-.31.49-.63.72-1-.07-.41-.14-.82-.22-1.22Z"/><path class="cls-1" d="M57.48,12.43,55,17.3c.12.39.23.78.33,1.18L59,11.23,55.37,12,53,12.57c.14.25.27.51.4.76Z"/><path class="cls-1" d="M47.26,24.24l-.21,0a10.16,10.16,0,0,1-11.9-6.93l1.4-.31H34.21a11,11,0,0,0,13,8.06l.21-.05A10.93,10.93,0,0,0,54,20.67c-.06-.4-.14-.8-.23-1.19A10.18,10.18,0,0,1,47.26,24.24Z"/><path class="cls-1" d="M37.79,16.76l2.37-.52a5.86,5.86,0,0,1-.17-.75l9.9-2.18a4.56,4.56,0,0,1,.18.75l1.62-.36c-.14-.25-.28-.5-.43-.75l-13.56,3A5.7,5.7,0,0,1,37.79,16.76Z"/><path class="cls-1" d="M34.21,17h2.34l1.24-.28a5.7,5.7,0,0,0-.09-.83l-3.57.79C34.15,16.83,34.19,16.93,34.21,17Z"/><path class="cls-1" d="M53.36,13.33c-.13-.25-.26-.51-.4-.76l-.84.19c.14.25.28.5.41.76Z"/><path class="cls-1" d="M54.41,18.37c.11.41.21.83.29,1.25l.29-.55.3-.59c-.1-.4-.21-.79-.33-1.18Z"/><path class="cls-1" d="M54.24,18.71l-.28.54,0,0c0,.06-.09.12-.13.19.09.39.17.79.23,1.19a10.08,10.08,0,0,0,.62-1h0l0-.05,0,0c-.08-.42-.18-.84-.29-1.25Z"/><path class="cls-1" d="M52.53,13.52c-.13-.26-.27-.51-.41-.76l-.86.19c.15.25.29.5.43.75Z"/><path class="cls-1" d="M49.89,13.31,40,15.49a5.86,5.86,0,0,0,.17.75l9.91-2.18A4.56,4.56,0,0,0,49.89,13.31Z"/><path class="cls-1" d="M13.37,16.68l-2.82-.62-.09.21.66,1.27.25.5,0,0a7.63,7.63,0,0,0,5,3.72l.2.05a7.7,7.7,0,0,0,7.7-2.76l-2.69-.59a5.05,5.05,0,0,1-8.27-1.82Z"/><path class="cls-1" d="M10.32,16l.14.26.09-.21Z"/><path class="cls-1" d="M4.12,11.23,7.78,12l2.56.56c.14-.25.28-.5.43-.75L8,11.23,4.3,10.42a.84.84,0,0,0-.92,1.2l4,7.81a6,6,0,0,0,.29.56c.08-.43.16-.86.27-1.29Z"/><path class="cls-1" d="M15.53,25.86l.21.05A11.84,11.84,0,0,0,29.8,17h-.86a11,11,0,0,1-13,8.06l-.21-.05a11,11,0,0,1-6.47-4.21c-.06.38-.11.76-.15,1.15A11.84,11.84,0,0,0,15.53,25.86Z"/><path class="cls-1" d="M25.64,15.13l-13.15-2.9L12,13l13.41,2.95A5.47,5.47,0,0,1,25.64,15.13Z"/><path class="cls-1" d="M29.72,16.27a.82.82,0,0,0-.52-.36l-3.56-.78a5.47,5.47,0,0,0-.19.8l3.57.79c0,.11-.06.21-.08.32h.86c0-.05,0-.09,0-.14A.88.88,0,0,0,29.72,16.27Z"/><path class="cls-1" d="M11.18,12.79c.14-.25.29-.51.44-.75l-.85-.19c-.15.25-.29.5-.43.75Z"/><path class="cls-1" d="M8.49,19.69h0l0-.05c-.11-.19-.21-.39-.31-.58L8,18.7c-.11.43-.19.86-.27,1.29a.36.36,0,0,0,0,.09.21.21,0,0,0,0,.06c.18.32.38.62.58.92q.09-.61.21-1.23Z"/><path class="cls-1" d="M9.24,20.84a9.73,9.73,0,0,1-.66-1q-.12.62-.21,1.23.35.48.72.93C9.13,21.6,9.18,21.22,9.24,20.84Z"/><path class="cls-1" d="M12,13l.45-.75L11.62,12c-.15.24-.3.5-.44.75Z"/><path class="cls-1" d="M5.67,12.43l4.27.94.4-.77L7.78,12l-3.66-.81L8,18.7c.09-.4.2-.8.31-1.19Z"/><path class="cls-1" d="M13.08,14.06a4.56,4.56,0,0,1,.18-.75l9.9,2.18a5.86,5.86,0,0,1-.17.75l2.37.52a5.7,5.7,0,0,1,.09-.83L12,13c-.15.25-.29.5-.43.76Z"/><path class="cls-1" d="M15.71,25.05l.21.05a11,11,0,0,0,13-8.06H26.6l1.4.31a10.16,10.16,0,0,1-11.9,6.93l-.21,0a10.14,10.14,0,0,1-6.43-4.57c-.08.39-.16.78-.22,1.17A11,11,0,0,0,15.71,25.05Z"/><path class="cls-1" d="M25.45,15.93a5.7,5.7,0,0,0-.09.83L26.6,17h2.34c0-.11.06-.21.08-.32Z"/><path class="cls-1" d="M10.77,13.55c.13-.26.27-.51.41-.76l-.84-.19-.4.77Z"/><path class="cls-1" d="M8.29,17.51c-.11.39-.22.79-.31,1.19l.18.37c.1.19.2.39.31.58l0,.05h0l.09.14c.08-.42.17-.83.27-1.24Z"/><path class="cls-1" d="M11.61,13.74c.14-.26.28-.51.43-.76l-.86-.19c-.14.25-.28.5-.41.76Z"/><path class="cls-1" d="M9.21,19.29a.05.05,0,0,0,0,0h0c-.1-.18-.19-.36-.29-.56l-.05-.1c-.1.41-.19.82-.27,1.24a9.73,9.73,0,0,0,.66,1c.06-.39.14-.78.22-1.17Z"/><path class="cls-1" d="M23.16,15.49l-9.9-2.18a4.56,4.56,0,0,0-.18.75L23,16.24A5.86,5.86,0,0,0,23.16,15.49Z"/></g></g></svg>