<svg xmlns="http://www.w3.org/2000/svg" viewBox="0 0 132 132"><defs><style>.cls-1,.cls-2{stroke:#fff;stroke-width:2px;}.cls-1,.cls-2,.cls-4{stroke-linecap:round;stroke-linejoin:round;}.cls-2{fill:none;}.cls-3,.cls-4,.cls-5{fill:#fff;}.cls-4{stroke:#000;stroke-width:8px;}.cls-5{font-size:28px;font-family:LMMonoProp10-Regular, Latin Modern Mono Prop;}.cls-6{letter-spacing:-0.03em;}</style></defs><title>Asset 28</title><g id="Layer_2" data-name="Layer 2"><g id="Layer_1-2" data-name="Layer 1"><rect width="132" height="132"/><path d="M58.5,31.5a7.5,7.5,0,0,1,15,0"/><path class="cls-1" d="M69.43,84.13S93.6,85.52,90.35,53"/><path class="cls-1" d="M61.57,84.13S37.4,85.52,40.65,53"/><path class="cls-2" d="M103,69.4c-2.88.62-5.77,1.15-8.67,1.61"/><path class="cls-2" d="M37.65,70.91q-4.3-.66-8.64-1.51"/><path class="cls-1" d="M37.8,40.3C37.8,55.93,66.1,88,66.1,88S94.4,55.93,94.4,40.3a28.3,28.3,0,0,0-56.6,0Z"/><rect class="cls-3" x="62.65" y="42.31" width="6.7" height="6.7" transform="translate(51.62 -33.29) rotate(45)"/><path class="cls-4" d="M94.62,25.49h0l4.41-1-4.86,9.42c-.12.24-.24.47-.37.7l0,.06h0a13.22,13.22,0,0,1-8.69,6.45l-.25,0A13.22,13.22,0,0,1,69.07,31.12Z"/><path d="M82.2,35A6.13,6.13,0,0,0,88,27L76.13,29.64A6.13,6.13,0,0,0,82.2,35Z"/><path class="cls-2" d="M94.62,25.49h0l4.41-1-4.86,9.42c-.12.24-.24.47-.37.7l0,.06h0a13.22,13.22,0,0,1-8.69,6.45l-.25,0A13.22,13.22,0,0,1,69.07,31.12Z"/><path class="cls-4" d="M37.38,25.49h0l-4.41-1,4.86,9.42c.12.24.24.47.37.7l0,.06h0a13.22,13.22,0,0,0,8.69,6.45l.25,0A13.22,13.22,0,0,0,62.93,31.12Z"/><path d="M49.8,35A6.13,6.13,0,0,1,44,27l11.91,2.63A6.13,6.13,0,0,1,49.8,35Z"/><path class="cls-2" d="M37.38,25.49h0l-4.41-1,4.86,9.42c.12.24.24.47.37.7l0,.06h0a13.22,13.22,0,0,0,8.69,6.45l.25,0A13.22,13.22,0,0,0,62.93,31.12Z"/><text class="cls-5" transform="translate(25.57 116.11)">&lt;<tspan class="cls-6" x="14.7" y="0">O</tspan><tspan x="36.76" y="0">W&gt;</tspan></text></g></g></svg>