<svg xmlns="http://www.w3.org/2000/svg" viewBox="0 0 447.25 594.43"><defs><style>.cls-1{fill:#e28d4d;}.cls-2{fill:#e29d64;}.cls-3{fill:#35e55b;}.cls-4{fill:#1ddd42;}.cls-5{fill:#e0e0e0;}.cls-6{fill:#fff;}.cls-7{fill:#3f3f3f;}.cls-8{fill:#eaeae8;}.cls-9{fill:none;stroke:#ff8a9e;stroke-miterlimit:10;stroke-width:5.03px;}.cls-10{fill:#fff53b;}.cls-11{fill:#05ce2b;}</style></defs><title>Asset 69</title><g id="Layer_2" data-name="Layer 2"><g id="Layer_1-2" data-name="Layer 1"><rect class="cls-1" x="172.85" y="349.23" width="145.67" height="16" transform="translate(-180.64 278.35) rotate(-45)"/><rect class="cls-1" x="171.27" y="294.66" width="38.25" height="281.8"/><rect class="cls-2" x="180.27" y="294.66" width="38.25" height="281.8"/><rect class="cls-2" x="189.45" y="304.89" width="257.8" height="17.14"/><circle class="cls-3" cx="197.14" cy="167.54" r="167.54"/><circle class="cls-4" cx="188.11" cy="176.57" r="158.5"/><rect class="cls-5" x="346.61" y="312.07" width="96.26" height="68.31"/><rect class="cls-6" x="348.61" y="312.07" width="96.26" height="68.31"/><rect class="cls-7" x="378.11" y="341.2" width="35.56" height="2.17" rx="0.69" ry="0.69" transform="translate(433.8 864.27) rotate(-135)"/><rect class="cls-8" x="378.45" y="341.34" width="35.17" height="2.17" rx="0.69" ry="0.69" transform="translate(433.94 864.6) rotate(-135)"/><rect class="cls-7" x="383.49" y="345.48" width="33.34" height="2.17" transform="translate(438.07 874.58) rotate(-135)"/><circle class="cls-8" cx="389.29" cy="335.68" r="0.59"/><circle class="cls-9" cx="396.74" cy="344.18" r="24.12"/><line class="cls-9" x1="379.69" y1="361.23" x2="413.79" y2="327.13"/><rect class="cls-10" x="385.74" y="341.42" width="0.86" height="0.39" rx="0.19" ry="0.19"/><rect class="cls-10" x="387.02" y="341.42" width="0.86" height="0.39" rx="0.19" ry="0.19"/><rect class="cls-10" x="386.38" y="342.06" width="0.86" height="0.39" rx="0.19" ry="0.19" transform="translate(44.55 729.06) rotate(-90)"/><rect class="cls-10" x="386.38" y="340.78" width="0.86" height="0.39" rx="0.19" ry="0.19" transform="translate(45.83 727.78) rotate(-90)"/><rect class="cls-10" x="382.09" y="338.89" width="0.86" height="0.39" rx="0.19" ry="0.19"/><rect class="cls-10" x="383.38" y="338.89" width="0.86" height="0.39" rx="0.19" ry="0.19"/><rect class="cls-10" x="382.74" y="339.53" width="0.86" height="0.39" rx="0.19" ry="0.19" transform="translate(43.44 722.89) rotate(-90)"/><rect class="cls-10" x="382.74" y="338.25" width="0.86" height="0.39" rx="0.19" ry="0.19" transform="matrix(0, -1, 1, 0, 44.72, 721.6)"/><rect class="cls-10" x="380.35" y="341.23" width="0.86" height="0.39" rx="0.19" ry="0.19"/><rect class="cls-10" x="381.64" y="341.23" width="0.86" height="0.39" rx="0.19" ry="0.19"/><rect class="cls-10" x="381" y="341.87" width="0.86" height="0.39" rx="0.19" ry="0.19" transform="translate(39.36 723.49) rotate(-90)"/><rect class="cls-10" x="381" y="340.59" width="0.86" height="0.39" rx="0.19" ry="0.19" transform="translate(40.65 722.2) rotate(-90)"/><path class="cls-10" d="M383.16,335.46a.18.18,0,0,1-.18.18,1.77,1.77,0,0,0-.32.05,1.37,1.37,0,0,0-1.05,1.24V337a.18.18,0,0,1-.19.2c-.12,0-.17-.09-.19-.2a2.19,2.19,0,0,0-.1-.51,1.34,1.34,0,0,0-1.22-.84c-.17,0-.25-.11-.21-.24a.2.2,0,0,1,.22-.14,1.29,1.29,0,0,0,.92-.41,1.24,1.24,0,0,0,.39-.89s0-.06,0-.09a.19.19,0,0,1,.2-.16.18.18,0,0,1,.17.18,2.72,2.72,0,0,0,0,.3,1.35,1.35,0,0,0,1.27,1.07C383.08,335.28,383.16,335.34,383.16,335.46Z"/><path class="cls-10" d="M379.69,342.26a.19.19,0,0,1-.19.18l-.31,0a1.36,1.36,0,0,0-1.05,1.25.17.17,0,0,0,0,.07.17.17,0,0,1-.19.19c-.12,0-.17-.08-.18-.2a2,2,0,0,0-.11-.5,1.35,1.35,0,0,0-1.22-.85c-.16,0-.25-.1-.21-.23a.2.2,0,0,1,.22-.14,1.29,1.29,0,0,0,.92-.41,1.33,1.33,0,0,0,.4-.89v-.09a.19.19,0,0,1,.2-.16.18.18,0,0,1,.17.18c0,.1,0,.2,0,.3a1.36,1.36,0,0,0,1.27,1.07C379.6,342.07,379.69,342.14,379.69,342.26Z"/><path class="cls-10" d="M388.33,338a.19.19,0,0,1-.18.18,1.65,1.65,0,0,0-.32,0,1.37,1.37,0,0,0-1.05,1.24v.07c0,.13-.07.2-.19.2s-.17-.08-.19-.2a2.21,2.21,0,0,0-.11-.51,1.31,1.31,0,0,0-1.21-.84c-.17,0-.26-.11-.22-.24s.12-.14.23-.14a1.29,1.29,0,0,0,.92-.41,1.33,1.33,0,0,0,.39-.89.28.28,0,0,1,0-.09.16.16,0,0,1,.19-.15.17.17,0,0,1,.18.17c0,.1,0,.21,0,.31a1.38,1.38,0,0,0,1.28,1.06C388.25,337.83,388.33,337.89,388.33,338Z"/><circle class="cls-11" cx="154.69" cy="561.85" r="32.58"/><circle class="cls-11" cx="210.02" cy="561.85" r="32.58"/><circle class="cls-11" cx="255.35" cy="561.85" r="32.58"/><circle class="cls-11" cx="109.99" cy="561.85" r="32.58"/><rect class="cls-2" x="177.85" y="353.23" width="145.67" height="16" transform="translate(-182.01 283.06) rotate(-45)"/><rect class="cls-2" x="63.74" y="380.38" width="145.67" height="16" transform="translate(60.66 793.02) rotate(-150)"/><circle class="cls-3" cx="52.01" cy="342.6" r="52.01"/></g></g></svg>