<svg xmlns="http://www.w3.org/2000/svg" viewBox="0 0 1883.69 397"><defs><style>.cls-1{fill:#fff;}.cls-2{fill:#00728c;}.cls-3,.cls-4{fill:none;stroke-miterlimit:10;}.cls-3{stroke:#7df6ff;}.cls-4{stroke:#389bf4;}</style></defs><title>Asset 55</title><g id="Layer_2" data-name="Layer 2"><g id="Layer_1-2" data-name="Layer 1"><g id="_Group_" data-name="&lt;Group&gt;"><path class="cls-1" d="M1178.18,10.53l35,37.54S1208.79,64,1186.79,63s-10-16-37-17-25,9-36,12c-10.83,3-17.13-11.38-17.33-11.83l33.26-35.64A33.14,33.14,0,0,1,1178.18,10.53Z" transform="translate(-0.25)"/><path class="cls-2" d="M1486.89,341.36c19.73,21.16,4.72,55.64-24.23,55.64H845.24c-29,0-44-34.48-24.23-55.64L1096.46,46.17c.2.45,6.5,14.78,17.33,11.83,11-3,9-13,36-12s15,16,37,17,26.42-14.93,26.42-14.93Z" transform="translate(-0.25)"/><path class="cls-3" d="M1096.46,46.16h0c.2.45,6.5,14.78,17.33,11.83,11-3,9-13,36-12s15,16,37,17,26.42-14.93,26.42-14.93" transform="translate(-0.25)"/></g><path class="cls-2" d="M1063.79,397H446.38c-28.95,0-44-23.54-24.23-38L730.86,133.19c13.09-9.58,35.36-9.58,48.46,0L1088,359C1107.76,373.46,1092.75,397,1063.79,397Z" transform="translate(-0.25)"/><path class="cls-2" d="M1850.75,397H1233.34c-28.95,0-44-19-24.23-30.69l308.71-182.47c13.09-7.74,35.36-7.74,48.46,0L1875,366.31C1894.72,378,1879.7,397,1850.75,397Z" transform="translate(-0.25)"/><path class="cls-2" d="M675.08,344.34c19.74,20,4.72,52.66-24.23,52.66H33.43c-28.95,0-44-32.64-24.23-52.66L267,82.86s14.8,34.8,21.8,34.8,9-22,30-23,15,25,29,23,25-26,38-26,25,26,34,26,19.48-12.5,19.48-12.5Z" transform="translate(-0.25)"/><path class="cls-1" d="M366.37,31.21l72.9,73.95s-10.48,12.5-19.48,12.5-21-26-34-26-24,24-38,26-8-24-29-23-23,23-30,23S267,82.86,267,82.86l50.92-51.65C331,17.93,353.28,17.93,366.37,31.21Z" transform="translate(-0.25)"/><path class="cls-4" d="M267,82.86s14.8,34.8,21.8,34.8,9-22,30-23,15,25,29,23,25-26,38-26,25,26,34,26,19.48-12.5,19.48-12.5" transform="translate(-0.25)"/></g></g></svg>