<svg xmlns="http://www.w3.org/2000/svg" 
    viewBox="0 0 131.06 167.71"><defs>
    <style>.cls-1{fill:#fff;}</style>
    </defs>
    <title>Asset 52</title>
    <g id="Layer_2" data-name="Layer 2">
    <g id="Layer_1-2" data-name="Layer 1">
    <path class="cls-1" d="M85.42,32.4A44.43,44.43,0,0,0,21.24,66.86,40.06,40.06,0,0,0,24,87.19a62.07,62.07,0,0,0,6.81,12.17c.86,1.23,1.75,2.51,2.52,3.85q4.81,8.34,9.57,16.71l2.92,5.13.32.58a8.22,8.22,0,0,0-1.06,5A8.32,8.32,0,0,0,47,135a8,8,0,0,0,0,10.49,7.67,7.67,0,0,0-1.28,8.43A7.84,7.84,0,0,0,53,158.74l.64,0c2.35,5.9,6.25,8.91,11.59,9h.09A12.15,12.15,0,0,0,77,158.88h0a8.25,8.25,0,0,0,6.67-13.5,8,8,0,0,0,0-10.45l.11-.13a7.72,7.72,0,0,0,.94-8.7,1,1,0,0,1,.07-1.17q2.76-4.75,5.49-9.52,3-5.18,6-10.34c1.22-2.1,2.54-4.1,3.55-5.61a88,88,0,0,0,5.27-8.71,40,40,0,0,0,4.61-16.31,44.46,44.46,0,0,0-24.28-42Zm-34.5,96.41a2.19,2.19,0,0,1,1.89-1.48,6.48,6.48,0,0,1,1-.06H76.93a3,3,0,0,1,2.21.63,2.36,2.36,0,0,1-1,4.08,6.56,6.56,0,0,1-1.34.11H53.56a2.57,2.57,0,0,1-2.21-.84A2.26,2.26,0,0,1,50.92,128.81Zm1.58,9.06a3,3,0,0,1,.74-.1H77.5a2.29,2.29,0,0,1,2,1A2.35,2.35,0,0,1,78,142.5a7.15,7.15,0,0,1-1.26.08H53.62a2.73,2.73,0,0,1-2.31-.89,2.35,2.35,0,0,1-.46-2.26A2.31,2.31,0,0,1,52.5,137.87Zm.4,10.41a5.49,5.49,0,0,1,.58,0H76.92a5.23,5.23,0,0,1,1.39.15A2.29,2.29,0,0,1,80,150.79,2.34,2.34,0,0,1,78.14,153a6.78,6.78,0,0,1-1.34.1H53.89a7,7,0,0,1-1.08-.06,2.37,2.37,0,0,1,.09-4.71Zm31.88-34.66-4.17,7.26-.3.53-.1.2H61.28c-3.31,0-6.62,0-9.93,0h-1a2.39,2.39,0,0,1-.13-.24c-.09-.17-.2-.38-.35-.64q-2.33-4-4.63-8.09c-2.44-4.26-4.87-8.52-7.33-12.78-.62-1.07-1.33-2.1-2-3.09l-.62-.88A56.51,56.51,0,0,1,29,84.24a34.06,34.06,0,0,1-2.12-16.33A38.81,38.81,0,0,1,65.4,33.26,38.82,38.82,0,0,1,97.29,50.09a38.35,38.35,0,0,1,6.77,23.7A34.28,34.28,0,0,1,99.5,89.07c-1,1.82-2.17,3.64-3.27,5.39l-1,1.62c-.42.67-.86,1.33-1.29,2-.67,1-1.35,2.05-2,3.13Q88.34,107.4,84.78,113.62ZM70.89,158.75A6.33,6.33,0,0,1,65.46,162a6.23,6.23,0,0,1-5.61-3.2C62.34,158.7,67.9,158.66,70.89,158.75Z"/><path class="cls-1" d="M27.43,15.41q3.45,4.82,6.92,9.61a4,4,0,0,0,.79.87,3.32,3.32,0,0,0,2,.76,3.1,3.1,0,0,0,1.4-.34,3.35,3.35,0,0,0,1.86-3.25V22.8l-.12-.22-.13-.27a6.58,6.58,0,0,0-.68-1.25q-2.64-3.7-5.3-7.39l-1.47-2a5.12,5.12,0,0,0-.54-.67,3.22,3.22,0,0,0-4.13-.42,3.26,3.26,0,0,0-1.16,4A4.38,4.38,0,0,0,27.43,15.41Z"/><path class="cls-1" d="M130.74,38.55a3.26,3.26,0,0,0-3.94-1.67,5.9,5.9,0,0,0-1,.45l-.16.08-9.73,5-.12.06a8.67,8.67,0,0,0-1,.55,3,3,0,0,0-1.33,2.65,3.24,3.24,0,0,0,3.24,3.23,3.46,3.46,0,0,0,1-.15,6.15,6.15,0,0,0,1-.42l.12-.07,10-5.17a6.68,6.68,0,0,0,.82-.47A3.26,3.26,0,0,0,130.74,38.55Z"/><path class="cls-1" d="M91.91,26a3.33,3.33,0,0,0,2,.66l.46,0a3.48,3.48,0,0,0,2.23-1.41c2.45-3.36,4.9-6.79,7.18-10a4.18,4.18,0,0,0,.5-1.05l.11-.26v-.18a3.33,3.33,0,0,0-2-3.48,3.16,3.16,0,0,0-3.87,1.09c-2.52,3.45-5,6.84-7.25,10.08A3.25,3.25,0,0,0,91.91,26Z"/><path class="cls-1" d="M16.1,43a6.73,6.73,0,0,0-.78-.44l-1.68-.87L5.19,37.3a5,5,0,0,0-1.43-.53,3.26,3.26,0,0,0-2.64.7A3.25,3.25,0,0,0,0,40H0a3.23,3.23,0,0,0,1.84,2.93l10,5.17.91.47a3,3,0,0,0,.74.28A3.25,3.25,0,0,0,16.1,43Z"/><path class="cls-1" d="M65.52,19h0a3.22,3.22,0,0,0,3.21-3c0-.27,0-.55,0-.83V3.78a7.79,7.79,0,0,0,0-1,3.24,3.24,0,0,0-6.41-.12,5.2,5.2,0,0,0-.06,1v8.87c0,.31,0,.63,0,.95,0,.8,0,1.63,0,2.46A3.17,3.17,0,0,0,65.52,19Z"/>
    </g></g></svg>