<svg xmlns="http://www.w3.org/2000/svg" viewBox="0 0 163 418.2"><defs><style>.cls-1{fill:#d98b37;}.cls-2{fill:#8d6042;}.cls-3{fill:#9e6e4d;}.cls-4{fill:#50d839;}.cls-5{fill:#fff;}</style></defs><title>Asset 5</title><g id="Layer_2" data-name="Layer 2"><g id="Layer_1-2" data-name="Layer 1"><rect class="cls-1" x="60.52" y="95.84" width="7.14" height="257.97"/><polygon class="cls-2" points="103.52 418.2 24.67 418.2 12.6 351.15 115.59 351.15 103.52 418.2"/><rect class="cls-3" x="5.36" y="325.93" width="117.48" height="26.82"/><ellipse class="cls-4" cx="63.5" cy="133.15" rx="63.5" ry="100.81"/><path class="cls-5" d="M53.34,24.15A10.08,10.08,0,0,1,46,27.05a10.08,10.08,0,0,1-7.34-2.9,9.71,9.71,0,0,1-3-7.22,9.74,9.74,0,0,1,3-7.23A10.11,10.11,0,0,1,46,6.81,10.11,10.11,0,0,1,53.34,9.7a9.74,9.74,0,0,1,3,7.23A9.71,9.71,0,0,1,53.34,24.15ZM50.91,11.9a6.86,6.86,0,0,0-9.82,0,7,7,0,0,0-2,5,6.93,6.93,0,0,0,2,5,6.84,6.84,0,0,0,9.82,0,6.93,6.93,0,0,0,2-5A7,7,0,0,0,50.91,11.9Z"/><path class="cls-5" d="M60.89,3.71a1.81,1.81,0,0,0,.38-1.06,1.19,1.19,0,0,0-.41-.91,1.44,1.44,0,0,0-1-.38A2.14,2.14,0,0,0,58,2.48l-1.21-.7A4.35,4.35,0,0,1,58.08.45,3.35,3.35,0,0,1,59.91,0a3,3,0,0,1,2,.71,2.38,2.38,0,0,1,.85,1.94A2.62,2.62,0,0,1,62.36,4,8.66,8.66,0,0,1,61,5.58l-2.1,2.14H63V9.17H56.88V7.89l2.71-2.73A14.15,14.15,0,0,0,60.89,3.71Z"/><path class="cls-5" d="M126.34,56.15a10.74,10.74,0,0,1-14.68,0,10.3,10.3,0,0,1,0-14.45,10.77,10.77,0,0,1,14.68,0,10.3,10.3,0,0,1,0,14.45ZM123.91,43.9a6.86,6.86,0,0,0-9.82,0,7.29,7.29,0,0,0,0,10.05,6.84,6.84,0,0,0,9.82,0,7.29,7.29,0,0,0,0-10.05Z"/><path class="cls-5" d="M133.89,35.71a1.81,1.81,0,0,0,.38-1.06,1.19,1.19,0,0,0-.41-.91,1.44,1.44,0,0,0-1-.38A2.14,2.14,0,0,0,131,34.48l-1.21-.7a4.35,4.35,0,0,1,1.3-1.33,3.35,3.35,0,0,1,1.83-.45,3,3,0,0,1,2,.71,2.38,2.38,0,0,1,.85,1.94,2.62,2.62,0,0,1-.36,1.32A8.66,8.66,0,0,1,134,37.58l-2.1,2.14H136v1.45h-6.12V39.89l2.71-2.73A14.15,14.15,0,0,0,133.89,35.71Z"/><path class="cls-5" d="M153.34,157.15a10.74,10.74,0,0,1-14.68,0,10.3,10.3,0,0,1,0-14.45,10.77,10.77,0,0,1,14.68,0,10.3,10.3,0,0,1,0,14.45Zm-2.43-12.25a6.86,6.86,0,0,0-9.82,0,7.29,7.29,0,0,0,0,10,6.84,6.84,0,0,0,9.82,0,7.29,7.29,0,0,0,0-10Z"/><path class="cls-5" d="M160.89,136.71a1.81,1.81,0,0,0,.38-1.06,1.19,1.19,0,0,0-.41-.91,1.44,1.44,0,0,0-1-.38,2.14,2.14,0,0,0-1.83,1.12l-1.21-.7a4.35,4.35,0,0,1,1.3-1.33,3.35,3.35,0,0,1,1.83-.45,3,3,0,0,1,2,.71,2.38,2.38,0,0,1,.85,1.94,2.62,2.62,0,0,1-.36,1.32,8.66,8.66,0,0,1-1.32,1.61l-2.1,2.14H163v1.45h-6.12v-1.28l2.71-2.73A14.15,14.15,0,0,0,160.89,136.71Z"/></g></g></svg>