<svg xmlns="http://www.w3.org/2000/svg" viewBox="0 0 158 158"><defs><style>.cls-1{fill:#fff;}.cls-2{fill:#008ab5;}.cls-3{fill:#33b3e5;}.cls-4{fill:#6dcdfc;}.cls-5{fill:#c7f4ff;}</style></defs><title>Asset 91</title><g id="Layer_2" data-name="Layer 2"><g id="Layer_1-2" data-name="Layer 1"><rect class="cls-1" width="158" height="158" rx="31.5" ry="31.5"/><polygon class="cls-2" points="36.33 48.2 59.57 48.23 63.84 55.24 117.26 55.24 117.26 121.8 36.33 121.8 36.33 48.2"/><polygon class="cls-3" points="43.9 70.7 125.67 70.7 117.28 120.99 36.33 120.99 43.9 70.7"/><polygon class="cls-4" points="45.3 71.51 125.67 71.51 117.28 121.8 36.33 121.8 45.3 71.51"/><path class="cls-5" d="M65.94,96.92a2.53,2.53,0,0,1,1.54-2.34l6.68-3.27a2.33,2.33,0,0,1,2,0,1.39,1.39,0,0,1,.88,1.42c0,.65-.76,1.32-2.18,2L70.24,97l4.65,2.28c1.42.69,2.14,1.36,2.18,2a1.41,1.41,0,0,1-.88,1.43,2.3,2.3,0,0,1-2,0l-6.68-3.44A2.54,2.54,0,0,1,65.94,96.92Z"/><path class="cls-5" d="M81.07,103.36a1.65,1.65,0,1,1-3-1.43l5.24-10.8a1.64,1.64,0,1,1,3,1.43Z"/><path class="cls-5" d="M98.48,97.12a2.53,2.53,0,0,1-1.54,2.34l-6.68,3.27a2.33,2.33,0,0,1-2,0,1.39,1.39,0,0,1-.88-1.42c0-.65.76-1.33,2.18-2L94.18,97l-4.65-2.28c-1.42-.69-2.14-1.36-2.18-2a1.42,1.42,0,0,1,.87-1.43,2.32,2.32,0,0,1,2,0l6.68,3.44A2.54,2.54,0,0,1,98.48,97.12Z"/></g></g></svg>