<svg xmlns="http://www.w3.org/2000/svg" viewBox="0 0 87.14 106.39"><defs><style>.cls-1{fill:#fff;}.cls-2{fill:#8d6042;}.cls-3{fill:#d8996f;stroke-width:1.6px;}.cls-3,.cls-4{stroke:#8d6042;stroke-linecap:round;stroke-linejoin:round;}.cls-4{fill:none;stroke-width:1.6px;}</style></defs><title>Asset 73</title><g id="Layer_2" data-name="Layer 2"><g id="Layer_1-2" data-name="Layer 1"><polygon class="cls-1" points="87.14 106.39 0 106.39 0 0 74.31 0 87.14 12.24 87.14 106.39"/><rect class="cls-2" y="45.44" width="87.14" height="60.95"/><path class="cls-2" d="M30.59,36.74V34.28A1.52,1.52,0,0,0,32,33.63a3.1,3.1,0,0,0,.45-1.45c0-.53,0-1.12,0-1.75a15.08,15.08,0,0,1,.15-2.51,2.77,2.77,0,0,1,.54-1.28,2.4,2.4,0,0,1,1.06-.74,5.51,5.51,0,0,1,1.8-.24h.46v2.45a2.36,2.36,0,0,0-1.45.28,1.64,1.64,0,0,0-.31,1.21,17.13,17.13,0,0,1-.32,4.09,3.5,3.5,0,0,1-1.3,1.82A3.19,3.19,0,0,1,34.31,37a14.72,14.72,0,0,1,.4,4.38,2,2,0,0,0,.18,1,.85.85,0,0,0,.48.38,4.47,4.47,0,0,0,1.1.09v2.46H36a4.4,4.4,0,0,1-2.25-.46,2.16,2.16,0,0,1-1-1.33,11.31,11.31,0,0,1-.27-3,13.4,13.4,0,0,0-.14-2.35,1.91,1.91,0,0,0-.54-1.08A2,2,0,0,0,30.59,36.74Z"/><path class="cls-2" d="M52.39,34.28v2.46a1.89,1.89,0,0,0-1.18.41,2,2,0,0,0-.55,1.09,12.87,12.87,0,0,0-.15,2.35,16.18,16.18,0,0,1-.14,2.52,2.85,2.85,0,0,1-.54,1.27,2.29,2.29,0,0,1-1.06.74,5.43,5.43,0,0,1-1.8.24h-.46V42.9a2.26,2.26,0,0,0,1.42-.29,1.54,1.54,0,0,0,.34-1.19,17.6,17.6,0,0,1,.32-4.09,3.18,3.18,0,0,1,1.29-1.82,3.23,3.23,0,0,1-1.34-1.95,19.9,19.9,0,0,1-.28-4c0-.65-.11-1.06-.32-1.23a2.57,2.57,0,0,0-1.43-.26V25.66H47a4,4,0,0,1,2.37.5,3,3,0,0,1,.9,1.19,10.57,10.57,0,0,1,.28,3.08,13,13,0,0,0,.14,2.34,1.92,1.92,0,0,0,.55,1.09A1.86,1.86,0,0,0,52.39,34.28Z"/><g id="_Group_" data-name="&lt;Group&gt;"><path class="cls-3" d="M41.54,29.87c2.06,0,3.73,2.63,3.73,5.87S43.6,41.6,41.54,41.6h-.11V29.88Z"/><path class="cls-3" d="M41.43,29.88V41.6c-2-.09-3.62-2.68-3.62-5.86S39.42,30,41.43,29.88Z"/></g><polyline class="cls-4" points="49.45 29.67 56.4 29.67 56.4 42.5 49.45 42.5"/><path class="cls-1" d="M26.41,61.29v-6c0-1.73.89-2.76,2.59-2.76a2.43,2.43,0,0,1,2.6,2.76v1.19H29.93v-1.3c0-.74-.35-1-.88-1s-.88.31-.88,1v6.27c0,.73.35,1,.88,1s.88-.29.88-1V59.7H31.6v1.59A2.43,2.43,0,0,1,29,64.05C27.3,64.05,26.41,63,26.41,61.29Z"/><path class="cls-1" d="M32.56,61.22v-5.9a2.49,2.49,0,0,1,2.68-2.82,2.49,2.49,0,0,1,2.68,2.82v5.9a2.5,2.5,0,0,1-2.68,2.83A2.5,2.5,0,0,1,32.56,61.22Zm3.6.12V55.21c0-.8-.36-1.11-.92-1.11s-.91.31-.91,1.11v6.13c0,.8.35,1.1.91,1.1S36.16,62.14,36.16,61.34Z"/><path class="cls-1" d="M39.11,52.66h4.66v1.6h-2.9v3.13h2.28V59H40.87v4.9H39.11Z"/><path class="cls-1" d="M44.62,52.66h4.67v1.6h-2.9v3.13h2.28V59H46.39v4.9H44.62Z"/><path class="cls-1" d="M50.14,52.66H55v1.6h-3v3h2.42v1.6H51.91v3.45h3v1.61H50.14Z"/><path class="cls-1" d="M56,52.66h4.82v1.6H57.73v3h2.42v1.6H57.73v3.45h3.05v1.61H56Z"/><path class="cls-1" d="M21,77.32h-.82v-.57a1.77,1.77,0,0,1-1.42.64,1.63,1.63,0,0,1-1.1-.38,1.27,1.27,0,0,1-.44-1,1.06,1.06,0,0,1,.47-.94,2.22,2.22,0,0,1,1.26-.31h1.16v-.16c0-.57-.32-.85-.95-.85a2.18,2.18,0,0,0-1.23.43l-.4-.56A2.76,2.76,0,0,1,19.24,73a1.94,1.94,0,0,1,1.23.38,1.46,1.46,0,0,1,.48,1.2Zm-.9-1.59v-.36H19c-.65,0-1,.21-1,.61a.55.55,0,0,0,.24.48,1.17,1.17,0,0,0,.67.16,1.2,1.2,0,0,0,.75-.24A.77.77,0,0,0,20.05,75.73Z"/><path class="cls-1" d="M24.73,76.78a2.18,2.18,0,0,1-.61-1.61,2.12,2.12,0,0,1,.62-1.59A2.06,2.06,0,0,1,26.21,73a1.63,1.63,0,0,1,1.38.72V71.37h.9v5.95h-.9v-.64a1.67,1.67,0,0,1-1.45.71A1.94,1.94,0,0,1,24.73,76.78ZM25,75.21a1.35,1.35,0,0,0,.39,1,1.32,1.32,0,0,0,.93.38,1.2,1.2,0,0,0,.9-.39,1.41,1.41,0,0,0,.36-1,1.47,1.47,0,0,0-.36-1,1.16,1.16,0,0,0-.91-.41,1.18,1.18,0,0,0-.92.41A1.41,1.41,0,0,0,25,75.21Z"/><path class="cls-1" d="M33.75,75.58H30.41a1,1,0,0,0,.43.75A1.66,1.66,0,0,0,33,76.11l.52.56a2.38,2.38,0,0,1-1.8.72,2.14,2.14,0,0,1-1.53-.6,2.35,2.35,0,0,1,0-3.21,2.29,2.29,0,0,1,3-.06,1.81,1.81,0,0,1,.6,1.44Zm-3.34-.71h2.45a1,1,0,0,0-.34-.82,1.25,1.25,0,0,0-.83-.29,1.45,1.45,0,0,0-.89.3A1,1,0,0,0,30.41,74.87Z"/><path class="cls-1" d="M35.82,77.32l-1.71-4.27H35l1.3,3.23,1.3-3.23h.93l-1.72,4.27Z"/><path class="cls-1" d="M43.25,75.58H39.91a1,1,0,0,0,.42.75,1.67,1.67,0,0,0,2.12-.22l.51.56a2.38,2.38,0,0,1-1.8.72,2.13,2.13,0,0,1-1.52-.6A2.11,2.11,0,0,1,39,75.18a2.07,2.07,0,0,1,.64-1.6A2.17,2.17,0,0,1,41.16,73a2.2,2.2,0,0,1,1.48.53A1.79,1.79,0,0,1,43.25,75Zm-3.34-.71h2.44a1,1,0,0,0-.34-.82,1.23,1.23,0,0,0-.83-.29,1.42,1.42,0,0,0-.88.3A1,1,0,0,0,39.91,74.87Z"/><path class="cls-1" d="M45.13,77.32h-.89V71.37h.89Z"/><path class="cls-1" d="M50,76.75a2.2,2.2,0,0,1-1.6.64,2.23,2.23,0,0,1-1.61-.64,2.16,2.16,0,0,1-.64-1.56,2.13,2.13,0,0,1,.64-1.56A2.19,2.19,0,0,1,48.4,73a2.16,2.16,0,0,1,1.6.64,2.09,2.09,0,0,1,.64,1.56A2.12,2.12,0,0,1,50,76.75Zm-2.57-.56a1.4,1.4,0,0,0,1.94,0,1.37,1.37,0,0,0,.38-1,1.41,1.41,0,0,0-.38-1,1.4,1.4,0,0,0-1.94,0,1.41,1.41,0,0,0-.38,1A1.37,1.37,0,0,0,47.43,76.19Z"/><path class="cls-1" d="M54,73a2,2,0,0,1,1.46.59A2.11,2.11,0,0,1,56,75.16a2.21,2.21,0,0,1-.6,1.61,1.87,1.87,0,0,1-2.86-.09v2.2h-.9V73.05h.9v.75A1.6,1.6,0,0,1,54,73ZM52.54,75.2a1.39,1.39,0,0,0,.37,1,1.2,1.2,0,0,0,.9.39,1.29,1.29,0,0,0,.92-.38,1.32,1.32,0,0,0,.4-1,1.41,1.41,0,0,0-.39-1,1.21,1.21,0,0,0-.92-.4,1.18,1.18,0,0,0-.91.4A1.49,1.49,0,0,0,52.54,75.2Z"/><path class="cls-1" d="M61,75.58H57.68a1,1,0,0,0,.42.75,1.67,1.67,0,0,0,2.12-.22l.51.56a2.37,2.37,0,0,1-1.79.72,2.14,2.14,0,0,1-1.53-.6,2.11,2.11,0,0,1-.63-1.61,2.07,2.07,0,0,1,.64-1.6A2.17,2.17,0,0,1,58.93,73a2.2,2.2,0,0,1,1.48.53A1.79,1.79,0,0,1,61,75Zm-3.34-.71h2.44a1,1,0,0,0-.33-.82,1.27,1.27,0,0,0-.83-.29,1.43,1.43,0,0,0-.89.3A1,1,0,0,0,57.68,74.87Z"/><path class="cls-1" d="M64.24,73.9a1.19,1.19,0,0,0-1,.43,1.88,1.88,0,0,0-.33,1.16v1.83H62V73.05h.9v.86a1.91,1.91,0,0,1,.58-.65,1.42,1.42,0,0,1,.79-.27v.91Z"/><path class="cls-1" d="M65.13,72.62a.4.4,0,0,1-.22-.38.53.53,0,0,1,.14-.39.48.48,0,0,1,.36-.14.52.52,0,0,1,.37.13.48.48,0,0,1,.15.36.72.72,0,0,1-.15.43l-.47.68h-.49Z"/><path class="cls-1" d="M69.78,76.05a1.21,1.21,0,0,1-.44,1,1.74,1.74,0,0,1-1.13.37,3.1,3.1,0,0,1-1-.17,3.05,3.05,0,0,1-.89-.48l.44-.69a2.41,2.41,0,0,0,1.44.56.78.78,0,0,0,.48-.14.45.45,0,0,0,.18-.36c0-.21-.29-.41-.85-.58l-.1,0c-.89-.24-1.33-.64-1.33-1.2a1.13,1.13,0,0,1,.46-1,1.9,1.9,0,0,1,1.2-.36,2.45,2.45,0,0,1,1.39.43l-.33.67a2,2,0,0,0-1.13-.35,1,1,0,0,0-.52.12.37.37,0,0,0-.2.35.31.31,0,0,0,.2.3,1.93,1.93,0,0,0,.41.14l.46.13.39.14a2.39,2.39,0,0,1,.4.23A1,1,0,0,1,69.78,76.05Z"/><path class="cls-1" d="M21.3,82.61a2,2,0,0,1,1.47.6,2.12,2.12,0,0,1,.61,1.58,2.17,2.17,0,0,1-.61,1.6,1.87,1.87,0,0,1-2.86-.09v.64H19V81h.89v2.43A1.61,1.61,0,0,1,21.3,82.61Zm-1.4,2.21a1.37,1.37,0,0,0,.37,1,1.17,1.17,0,0,0,.89.39,1.27,1.27,0,0,0,.93-.39,1.33,1.33,0,0,0,.39-1,1.41,1.41,0,0,0-.39-1,1.21,1.21,0,0,0-.92-.4,1.15,1.15,0,0,0-.9.4A1.44,1.44,0,0,0,19.9,84.82Z"/><path class="cls-1" d="M28.37,85.2H25a1,1,0,0,0,.43.75,1.63,1.63,0,0,0,2.11-.22l.51.56a2.36,2.36,0,0,1-1.79.72,2.14,2.14,0,0,1-1.53-.6,2.33,2.33,0,0,1,0-3.2,2.26,2.26,0,0,1,3-.07,1.8,1.8,0,0,1,.61,1.45ZM25,84.5h2.45a1,1,0,0,0-.34-.83,1.25,1.25,0,0,0-.83-.29,1.43,1.43,0,0,0-.89.3A1,1,0,0,0,25,84.5Z"/><path class="cls-1" d="M32.4,85.67a1.21,1.21,0,0,1-.44,1,1.69,1.69,0,0,1-1.13.37,3.15,3.15,0,0,1-1-.17,2.85,2.85,0,0,1-.88-.47l.43-.7a2.45,2.45,0,0,0,1.44.56.74.74,0,0,0,.48-.14.43.43,0,0,0,.18-.36c0-.21-.28-.4-.85-.57l-.1,0c-.88-.24-1.33-.64-1.33-1.2a1.17,1.17,0,0,1,.46-1,1.9,1.9,0,0,1,1.2-.36,2.52,2.52,0,0,1,1.4.44l-.34.66a2,2,0,0,0-1.13-.34,1.11,1.11,0,0,0-.52.11.38.38,0,0,0-.2.35.33.33,0,0,0,.21.31,1.7,1.7,0,0,0,.4.13l.46.13a3.53,3.53,0,0,1,.39.15,2.08,2.08,0,0,1,.41.22A1,1,0,0,1,32.4,85.67Z"/><path class="cls-1" d="M34.52,83.4v2.17a.69.69,0,0,0,.17.48.54.54,0,0,0,.44.18.76.76,0,0,0,.56-.28l.37.63A1.53,1.53,0,0,1,35,87a1.34,1.34,0,0,1-1-.4,1.42,1.42,0,0,1-.4-1.07V83.4h-.54v-.72h.54V81.34h.89v1.34h1.13v.72Z"/><path class="cls-1" d="M40.07,82.32v.36H41.2v.72H40.07v3.54h-.89V83.4h-.54v-.72h.54v-.33a1.42,1.42,0,0,1,.4-1.07,1.34,1.34,0,0,1,1-.4,1.53,1.53,0,0,1,1,.43l-.37.63a.76.76,0,0,0-.56-.28.58.58,0,0,0-.45.18A.73.73,0,0,0,40.07,82.32Z"/><path class="cls-1" d="M44.3,83.52a1.18,1.18,0,0,0-1,.43A1.83,1.83,0,0,0,43,85.12v1.82h-.9V82.68H43v.86a1.88,1.88,0,0,1,.59-.66,1.47,1.47,0,0,1,.79-.27v.91Z"/><path class="cls-1" d="M45.3,81.83a.56.56,0,0,1-.17-.4.54.54,0,0,1,.17-.4.52.52,0,0,1,.4-.17.58.58,0,0,1,.57.57.52.52,0,0,1-.17.4.54.54,0,0,1-.4.17A.56.56,0,0,1,45.3,81.83Zm.84,5.11h-.89V82.68h.89Z"/><path class="cls-1" d="M51.41,85.2H48.07a1,1,0,0,0,.42.75,1.53,1.53,0,0,0,.9.29,1.48,1.48,0,0,0,1.22-.51l.51.56a2.36,2.36,0,0,1-1.79.72,2.14,2.14,0,0,1-1.53-.6,2.1,2.1,0,0,1-.63-1.6,2.06,2.06,0,0,1,.64-1.6,2.14,2.14,0,0,1,1.51-.6,2.18,2.18,0,0,1,1.48.53,1.8,1.8,0,0,1,.61,1.45Zm-3.34-.7h2.44a1,1,0,0,0-.33-.83,1.25,1.25,0,0,0-.83-.29,1.43,1.43,0,0,0-.89.3A1,1,0,0,0,48.07,84.5Z"/><path class="cls-1" d="M53.3,84.63v2.31h-.9V82.68h.9v.78a1.49,1.49,0,0,1,.6-.62,1.56,1.56,0,0,1,.82-.23,1.58,1.58,0,0,1,1.16.44,1.72,1.72,0,0,1,.45,1.28v2.61h-.9V84.6c0-.78-.33-1.18-1-1.18a1.2,1.2,0,0,0-.81.31A1.15,1.15,0,0,0,53.3,84.63Z"/><path class="cls-1" d="M57.91,86.4a2.2,2.2,0,0,1-.6-1.61,2.07,2.07,0,0,1,2.09-2.18,1.6,1.6,0,0,1,1.37.73V81h.9v6h-.9V86.3a1.66,1.66,0,0,1-1.45.71A1.9,1.9,0,0,1,57.91,86.4Zm.3-1.57a1.35,1.35,0,0,0,.39,1,1.25,1.25,0,0,0,.92.38,1.2,1.2,0,0,0,.9-.39,1.39,1.39,0,0,0,.37-1,1.49,1.49,0,0,0-.37-1,1.19,1.19,0,0,0-.91-.41,1.23,1.23,0,0,0-.92.41A1.4,1.4,0,0,0,58.21,84.83Z"/><path class="cls-1" d="M66,85.67a1.21,1.21,0,0,1-.44,1,1.69,1.69,0,0,1-1.13.37,3.1,3.1,0,0,1-1-.17,3,3,0,0,1-.89-.47l.44-.7a2.43,2.43,0,0,0,1.44.56.78.78,0,0,0,.48-.14.43.43,0,0,0,.18-.36c0-.21-.29-.4-.85-.57l-.1,0c-.89-.24-1.33-.64-1.33-1.2a1.14,1.14,0,0,1,.46-1,1.9,1.9,0,0,1,1.2-.36,2.52,2.52,0,0,1,1.4.44l-.34.66a2,2,0,0,0-1.13-.34,1.09,1.09,0,0,0-.52.11.38.38,0,0,0-.2.35.34.34,0,0,0,.2.31,2,2,0,0,0,.41.13l.46.13c.13,0,.26.09.39.15a2.08,2.08,0,0,1,.41.22A1,1,0,0,1,66,85.67Z"/><path class="cls-1" d="M67.08,86.83a.57.57,0,0,1-.17-.42.54.54,0,0,1,.17-.42.54.54,0,0,1,.42-.18.56.56,0,0,1,.42.18.54.54,0,0,1,.18.42.58.58,0,0,1-.18.42.56.56,0,0,1-.42.18A.54.54,0,0,1,67.08,86.83Z"/></g></g></svg>