<svg xmlns="http://www.w3.org/2000/svg" viewBox="0 0 158 158"><defs><style>.cls-1{fill:#fff;}.cls-2{fill:#fc4f71;}.cls-3{fill:#c64066;}</style></defs><title>Asset 14</title><g id="Layer_2" data-name="Layer 2"><g id="Layer_1-2" data-name="Layer 1"><g id="Layer_1-2-2" data-name="Layer 1-2"><rect class="cls-1" width="158" height="158" rx="31.5" ry="31.5"/></g><path class="cls-2" d="M93.12,38H47.51c-1.27,0-2.3,1-2.3,3v83.4a2.37,2.37,0,0,0,2.3,1.57h63a2.37,2.37,0,0,0,2.3-1.57v-66c0-1.09-.15-1.44-.41-1.7L94.1,38.4A1.42,1.42,0,0,0,93.12,38Z"/><polygon class="cls-3" points="93.93 38.24 93.93 56.86 112.55 56.86 93.93 38.24"/><path class="cls-1" d="M65.66,90.37h0a2.47,2.47,0,0,1-1.51-.52,3.76,3.76,0,0,1-1.76-3.52c.29-2.56,3.45-5.24,9.41-8a105.58,105.58,0,0,0,6-16.9c-1.57-3.41-3.09-7.84-2-10.43a3,3,0,0,1,1.78-1.91,7.65,7.65,0,0,1,1.6-.27c.79,0,1.49,1,2,1.64s1.51,1.85-.59,10.69a50.26,50.26,0,0,0,8,11.89,29.91,29.91,0,0,1,5.28-.57c2.46,0,4,.58,4.56,1.76.5,1,.29,2.12-.62,3.39a4.15,4.15,0,0,1-3.49,1.87c-1.91,0-4.13-1.2-6.61-3.59a76,76,0,0,0-13.88,4.44A44.53,44.53,0,0,1,70,87.06C68.43,89.31,67,90.37,65.66,90.37Zm4.19-8.06c-3.36,1.89-4.73,3.44-4.83,4.31,0,.15-.06.53.68,1.09C65.93,87.64,67.3,87,69.85,82.31Zm21.43-7c1.28,1,1.59,1.48,2.43,1.48a2.36,2.36,0,0,0,1.9-.69,2.48,2.48,0,0,0,.36-.65c-.19-.1-.45-.31-1.85-.31A23.52,23.52,0,0,0,91.28,75.33ZM79.54,65a112,112,0,0,1-4.2,11.88,79.46,79.46,0,0,1,10.2-3.17A53.42,53.42,0,0,1,79.54,65Zm-1-13.3a3.76,3.76,0,0,0,.15,5.05C80.23,53.42,78.65,51.67,78.59,51.69Z"/><path class="cls-2" d="M110.49,126h-63a2.3,2.3,0,0,1-2.3-2.3V99.29h67.58V123.7A2.3,2.3,0,0,1,110.49,126Z"/><path class="cls-1" d="M62.32,121.29H59.74V105.45h4.55a6.53,6.53,0,0,1,2,.32,5.45,5.45,0,0,1,1.77,1,4.93,4.93,0,0,1,1.27,1.56,4.34,4.34,0,0,1,.49,2,5.65,5.65,0,0,1-.41,2.18,4.6,4.6,0,0,1-1.14,1.65,5.38,5.38,0,0,1-1.76,1,6.9,6.9,0,0,1-2.28.36H62.32v5.72Zm0-13.88v6.27h2.36a2.77,2.77,0,0,0,.94-.16,2.33,2.33,0,0,0,.85-.53,2.65,2.65,0,0,0,.62-1,4.75,4.75,0,0,0,.23-1.62,4.32,4.32,0,0,0-.1-.89,2.56,2.56,0,0,0-.44-1,2.69,2.69,0,0,0-.94-.77,3.43,3.43,0,0,0-1.59-.31Z"/><path class="cls-1" d="M85.63,112.93a11.61,11.61,0,0,1-.42,3.34,8.32,8.32,0,0,1-1.06,2.32,5.64,5.64,0,0,1-1.45,1.47,7.3,7.3,0,0,1-1.56.81,6.29,6.29,0,0,1-1.38.34,8.73,8.73,0,0,1-.92.08h-6V105.45h4.77a8.9,8.9,0,0,1,3.51.64,7.19,7.19,0,0,1,2.51,1.68,6.82,6.82,0,0,1,1.49,2.4A7.88,7.88,0,0,1,85.63,112.93ZM78,119.4a4.26,4.26,0,0,0,3.78-1.68,8.47,8.47,0,0,0,1.16-4.86,8.59,8.59,0,0,0-.23-2,4.23,4.23,0,0,0-.92-1.75,4.82,4.82,0,0,0-1.83-1.27,8,8,0,0,0-3-.48H75.42v12Z"/><path class="cls-1" d="M92,107.41v5h6.62v1.76H92v7.14H89.37V105.45h9.9v2Z"/></g></g></svg>