<svg xmlns="http://www.w3.org/2000/svg" viewBox="0 0 175.58 367.46"><defs><style>.cls-1{fill:#896800;}.cls-2{fill:#21d821;}</style></defs><title>Asset 38</title><g id="Layer_2" data-name="Layer 2"><g id="Layer_1-2" data-name="Layer 1"><path class="cls-1" d="M84.87,174.56h0a17.51,17.51,0,0,1,17.51,17.51V367.46a0,0,0,0,1,0,0h-35a0,0,0,0,1,0,0V192.07A17.51,17.51,0,0,1,84.87,174.56Z"/><path class="cls-2" d="M163,238.77H12.59a12.58,12.58,0,0,1-11.77-17L76,22.71a12.58,12.58,0,0,1,23.54,0l75.2,199A12.58,12.58,0,0,1,163,238.77Z"/><path class="cls-2" d="M150.3,141.56h-125c-7.31,0-12.37-5.55-9.78-10.75L78,5.14c3.41-6.85,16.16-6.85,19.56,0l62.51,125.67C162.66,136,157.61,141.56,150.3,141.56Z"/></g></g></svg>