<svg xmlns="http://www.w3.org/2000/svg" xmlns:xlink="http://www.w3.org/1999/xlink" viewBox="0 0 1098 889.7"><defs><style>.cls-1{fill:#fff;}.cls-18,.cls-2{fill:none;}.cls-3{fill:#c4c4de;}.cls-4{fill:#8b8bb5;}.cls-5{mask:url(#mask);}.cls-6{fill:#ff8484;}.cls-7{fill:#de6262;}.cls-8{fill:#ffeecd;}.cls-9{fill:#f5cb76;}.cls-10{fill:#353535;}.cls-11{mask:url(#mask-2);}.cls-12{fill:#ffcdcd;}.cls-13{fill:#fff9d6;}.cls-14{mask:url(#mask-3);}.cls-15{fill:#3c3ca0;}.cls-16{fill:#26266f;}.cls-17{clip-path:url(#clip-path);}.cls-18{stroke:#fff;stroke-width:2px;}</style><mask id="mask" x="393" y="0" width="705" height="424.43" maskUnits="userSpaceOnUse"><g id="mask0"><path class="cls-1" d="M450.5,322V0h-27V335.5A13.49,13.49,0,0,0,437,349H657.22a86.61,86.61,0,0,1,44.62,12.39l50.4,30.35A113.48,113.48,0,0,0,810.78,408H1072.5V381H810.78a86.61,86.61,0,0,1-44.62-12.39l-50.4-30.35A113.48,113.48,0,0,0,657.22,322Z"/></g></mask><mask id="mask-2" x="239.7" y="424" width="682.87" height="418" maskUnits="userSpaceOnUse"><g id="mask2"><path class="cls-1" d="M849.39,764.78l23,16.23a5.32,5.32,0,0,1,.47.36,6.3,6.3,0,0,1,.68,8.88,9.92,9.92,0,0,1-11,2.83q-39-14.6-45-21.08L756,718.5,678,699l-5,102q-9.51.84-14.5,1c-30,1-54.33,1.37-70.28,1.61s-34.79,0-62-.83q-3.81-.12-15.51-1.68l10.48-109.36-64.44,65.42a100,100,0,0,1-17,13.81l-58.52,37.82a64,64,0,0,1-22,9L240,842q-2.62-21.32,17.5-38.5c11.71-10,50.7-16.77,78.5-18.5q4-.24,68.71-56.51a44.23,44.23,0,0,0,4.28-4.27l73.66-84.33a98,98,0,0,1,70.16-33.47L591,605l8.54-38.54h-20.8a28,28,0,0,1-26.5-37L573,468.68A66,66,0,0,1,635.43,424h14a43,43,0,0,1,40.44,57.57L643,611.5l126.75,46.39a100,100,0,0,1,43.71,31.44L848,732.5q45-2,49,5,3.32,5.82,23.54,25.76a6.81,6.81,0,0,1-3.29,11.49,26,26,0,0,1-22-5.13L889.5,765q-30.79,1.68-39,0Z"/></g></mask><mask id="mask-3" x="564" y="414" width="143" height="70" maskUnits="userSpaceOnUse"><g id="mask3"><path class="cls-1" d="M564,448l143,36q-8.89-8.38-8.5-12.79c3-33.35-15.55-43.89-53.54-52.14-38.16-8.28-49.81-9.22-66.08,19.07Q576.81,441.74,564,448Z"/></g></mask><clipPath id="clip-path"><path class="cls-2" d="M228,501.13c70.09-6.16,118.39-109,107.88-229.79S260.06,57.71,190,63.87,71.57,172.91,82.08,293.66,157.94,507.29,228,501.13Z"/></clipPath></defs><title>Asset 101</title><g id="Layer_2" data-name="Layer 2"><g id="Layer_1-2" data-name="Layer 1"><path class="cls-3" d="M987,643l34.31-98.9a80,80,0,0,0-19.81-83.6l-1-.94A100,100,0,0,1,971,375.8L983.86,270a100,100,0,0,0-87.19-111.34c-2.8-.34-5.6-.56-8.42-.67L847,156.5,762.82,76.14a94,94,0,0,0-107-16.08l-95.32,47.67a100,100,0,0,1-49.84,10.42l-77.38-4A83.47,83.47,0,0,0,347.25,181l-13,64.17A99.62,99.62,0,0,0,332.55,258L320.38,430.48a66.1,66.1,0,0,1-6.29,23.84l-33.45,69.94a100,100,0,0,0-6.17,69.79L288,643Z"/><path class="cls-4" d="M288,643l-89.71,97.38a71,71,0,0,0,49,119l665.49,30.22a71,71,0,0,0,74.15-67.71c.05-1.07.07-2.14.07-3.22V643Z"/><g class="cls-5"><path class="cls-6" d="M450.5,322V0h-27V335.5A13.49,13.49,0,0,0,437,349H657.22a86.61,86.61,0,0,1,44.62,12.39l50.4,30.35A113.48,113.48,0,0,0,810.78,408H1072.5V381H810.78a86.61,86.61,0,0,1-44.62-12.39l-50.4-30.35A113.48,113.48,0,0,0,657.22,322Z"/><path class="cls-7" d="M954,373h144v49H954ZM393,314H537v49H393Zm22.5-116.5V75H476L464.5,197.5ZM702.5,304l116,55v49q-5,19.1-41,16T667,395Z"/></g><path class="cls-8" d="M591,409,259,90.5,230,501l354.5-63Z"/><path class="cls-9" d="M228,501.13c70.09-6.16,118.39-109,107.88-229.79S260.06,57.71,190,63.87,71.57,172.91,82.08,293.66,157.94,507.29,228,501.13Z"/><path class="cls-10" d="M572,450q-25.94,43.28,0,50.16t44-42.29Z"/><path class="cls-10" d="M592.5,803C709.86,803,805,791.36,805,777s-95.14-26-212.5-26S380,762.64,380,777,475.14,803,592.5,803Z"/><g class="cls-11"><path class="cls-12" d="M849.39,764.78l23,16.23a5.32,5.32,0,0,1,.47.36,6.3,6.3,0,0,1,.68,8.88,9.92,9.92,0,0,1-11,2.83q-39-14.6-45-21.08L756,718.5,678,699l-5,102q-9.51.84-14.5,1c-30,1-54.33,1.37-70.28,1.61s-34.79,0-62-.83q-3.81-.12-15.51-1.68l10.48-109.36-64.44,65.42a100,100,0,0,1-17,13.81l-58.52,37.82a64,64,0,0,1-22,9L240,842q-2.62-21.32,17.5-38.5c11.71-10,50.7-16.77,78.5-18.5q4-.24,68.71-56.51a44.23,44.23,0,0,0,4.28-4.27l73.66-84.33a98,98,0,0,1,70.16-33.47L591,605l8.54-38.54h-20.8a28,28,0,0,1-26.5-37L573,468.68A66,66,0,0,1,635.43,424h14a43,43,0,0,1,40.44,57.57L643,611.5l126.75,46.39a100,100,0,0,1,43.71,31.44L848,732.5q45-2,49,5,3.32,5.82,23.54,25.76a6.81,6.81,0,0,1-3.29,11.49,26,26,0,0,1-22-5.13L889.5,765q-30.79,1.68-39,0Z"/><path class="cls-13" d="M568,603.5q13.5,23,45,26t46-15l106,21.41L720.5,717.5l-22.5-3-19.69,88L494.05,815l27.64-121.9-27.64,51.76L417,659.28Q466.94,610.2,505.36,600T568,603.5Z"/></g><path class="cls-10" d="M677.69,475.38,698,480.24q.27,51.76-27.18,45-13.73-3.39-15.54-16.69-11.53,9.4-24,5.15Q606,505,628.92,463L678,474.7C677.9,474.93,677.79,475.16,677.69,475.38Z"/><g class="cls-14"><path class="cls-15" d="M564,448l143,36q-8.89-8.38-8.5-12.79c3-33.35-15.55-43.89-53.54-52.14-38.16-8.28-49.81-9.22-66.08,19.07Q576.81,441.74,564,448Z"/><path class="cls-16" d="M593,437l108.5,29,3-11.5L597,422Z"/></g><path class="cls-9" d="M587.5,443A19.5,19.5,0,1,0,568,423.5,19.5,19.5,0,0,0,587.5,443Z"/><path class="cls-8" d="M587.5,438c8.56,0,15.5-6.49,15.5-14.5S596.06,409,587.5,409,572,415.49,572,423.5,578.94,438,587.5,438Z"/><path class="cls-10" d="M581.33,473.88c-2.12-5-5.18-7.38-9.33-7.38v-3c5.17,0,9.1,2.84,11.68,8.29,10-6,18.47-3.79,24.61,6.44a1.5,1.5,0,0,1-2.58,1.54c-5.49-9.16-12.44-10.69-21.59-4.71l-20.75,35.1,12.16,2.37a1.5,1.5,0,1,1-.57,2.94l-14.25-2.77a1.51,1.51,0,0,1-1-2.24ZM593,488a4,4,0,1,1,4-4A4,4,0,0,1,593,488Zm-21-6a4,4,0,1,1,4-4A4,4,0,0,1,572,482Zm-6.36,50.67c-4.55-1.25-7.41-5-6.38-8.42s5.55-5.16,10.1-3.92,7.41,5,6.38,8.42S570.19,533.91,565.64,532.67ZM554.09,546a1.5,1.5,0,1,1,2.82,1l-3.5,9.5a1.5,1.5,0,0,1-2.82-1Zm6,2a1.5,1.5,0,1,1,2.82,1l-3.5,9.5a1.5,1.5,0,0,1-2.82-1Zm6,2a1.5,1.5,0,1,1,2.82,1l-3.5,9.5a1.5,1.5,0,0,1-2.82-1Z"/><path class="cls-4" d="M732,155.5v20H519v-20h20v-20H751v20Zm-88,41H751v20H644Zm-243,364v19H293v-19H240v-20H452v20Zm572-254h54v20H814v-20H761v-20H973ZM894,533h71v20H858V534H787V514H894Z"/><path class="cls-6" d="M741,785H579v18.5H564v-62a7.5,7.5,0,0,1,15,0V770H741V741.5a7.5,7.5,0,0,1,15,0v52l-15,2Z"/><path class="cls-12" d="M648,522.66q30.42,7.89,35.39-11.8c2.51-10-2.75-18.18-14.28-15.39q-3.68.88-14.11,13.53Z"/><g class="cls-17"><path class="cls-1" d="M346,424.5v18H238v-18H187v-20H399v20Zm-2,0H240v16H344Zm-106-2h54v-16H189v16Zm56,0H397v-16H294Zm-80-283H161v16H264v-16Zm0-2h52v20H53v-20h54v-18H214Zm-55,18v-16H55v16Zm53-18v-16H109v16H212Zm-107,47H212v20H0v-20Zm0,18v-16H2v16Zm2,0H210v-16H107Z"/><path class="cls-18" d="M398,470.5H293v18H398Z"/><path class="cls-18" d="M451,424.5H346v18H451Z"/><path class="cls-18" d="M106,120.5H1v18H106Z"/></g></g></g></svg>